<?xml version="1.0" encoding="utf-8"?>
<!-- Generator: Adobe Illustrator 16.0.0, SVG Export Plug-In . SVG Version: 6.00 Build 0)  -->
<!DOCTYPE svg PUBLIC "-//W3C//DTD SVG 1.1//EN" "http://www.w3.org/Graphics/SVG/1.1/DTD/svg11.dtd">
<svg version="1.1" id="Layer_1" xmlns="http://www.w3.org/2000/svg" xmlns:xlink="http://www.w3.org/1999/xlink" x="0px" y="0px"
	 width="501.321px" height="95.943px" viewBox="0 0 501.321 95.943" enable-background="new 0 0 501.321 95.943"
	 xml:space="preserve">
<g>
	<g>
		<path fill="#BE1E2D" d="M65.493,64.163c-6.885,6.789-15.777,9.944-25.435,9.944c-24.86,0-35.378-17.116-35.474-34.519
			C4.489,22.091,15.868,4.306,40.059,4.306c9.083,0,17.69,3.442,24.574,10.23l-8.415,8.128c-4.397-4.303-10.326-6.311-16.159-6.311
			c-16.159,0-23.14,12.047-23.044,23.234C17.11,50.68,23.517,62.25,40.059,62.25c5.833,0,12.431-2.391,16.829-6.789L65.493,64.163z"
			/>
	</g>
	<g>
		<path fill="#BE1E2D" d="M216.925,53.167c0.766,5.833,5.832,10.04,14.057,10.04c4.302,0,9.943-1.626,12.621-4.398l7.457,7.362
			c-4.971,5.162-13.1,7.65-20.271,7.65c-16.255,0-25.911-10.04-25.911-25.147c0-14.344,9.752-24.67,25.051-24.67
			c15.776,0,25.625,9.752,23.809,29.163H216.925z M242.55,43.508c-0.766-6.118-5.545-9.179-12.238-9.179
			c-6.311,0-11.475,3.061-13.195,9.179H242.55z"/>
	</g>
	<g>
		<path fill="#BE1E2D" d="M151.998,92.274V25.437h10.9l0.765,6.502c3.635-5.259,9.945-7.554,15.3-7.554
			c14.533,0,24.19,10.806,24.19,24.669c0,13.769-8.701,24.669-23.809,24.669c-4.973,0-12.334-1.529-15.682-6.691v25.242H151.998z
			 M191.487,49.054c0-7.361-4.971-13.386-13.385-13.386s-13.388,6.024-13.388,13.386c0,7.362,5.45,13.388,13.388,13.388
			C186.038,62.442,191.487,56.417,191.487,49.054z"/>
	</g>
	<g>
		<path fill="#BE1E2D" d="M303.599,73h-11.319l-14.706-16.87h-9.156V73h-9.516V22.463c8.004,0,16.005,0.074,24.006,0.074
			c11.895,0.073,18.168,8.002,18.168,16.725c0,6.921-3.174,13.915-12.76,15.859l15.283,17.23V73z M268.417,31.405v16.149h14.49
			c6.057,0,8.651-4.038,8.651-8.073c0-4.041-2.667-8.076-8.651-8.076H268.417z"/>
	</g>
	<g>
		<path fill="#BE1E2D" d="M343.319,63.483h-26.383L312.61,73h-10.309l22.637-50.463h10.381L357.954,73h-10.381L343.319,63.483z
			 M330.128,33.136l-9.371,21.48H339.5L330.128,33.136z"/>
	</g>
	<g>
		<path fill="#BE1E2D" d="M392.632,34.72c-1.73-2.883-6.488-5.622-11.967-5.622c-7.066,0-10.453,2.955-10.453,6.703
			c0,4.399,5.191,5.621,11.246,6.342c10.525,1.301,20.329,4.04,20.329,16.078c0,11.246-9.948,16.077-21.194,16.077
			c-10.309,0-18.239-3.173-21.986-12.397l7.929-4.11c2.235,5.552,8.073,8.001,14.202,8.001c5.982,0,11.605-2.09,11.605-7.57
			c0-4.756-4.974-6.703-11.678-7.425c-10.309-1.226-19.825-3.964-19.825-15.284c0-10.378,10.236-14.633,19.536-14.705
			c7.859,0,16.004,2.234,19.826,10.021L392.632,34.72z"/>
	</g>
	<g>
		<path fill="#BE1E2D" d="M456.675,3.669h-9.559l-4.912,13.004v0.573h7.168l7.303-13.101V3.669z"/>
	</g>
	<g>
		<path fill="#BE1E2D" d="M485.073,72.577V47.908c0-7.172-3.921-12.622-11.379-12.622c-7.172,0-12.049,6.024-12.049,13.196v24.095
			h-11.569V25.342h10.423l0.765,6.406c4.781-4.686,9.562-7.076,15.491-7.076c11.091,0,19.982,8.318,19.982,23.14v24.765H485.073z"/>
	</g>
	<g>
		<path fill="#BE1E2D" d="M111.253,35.287c-0.507-5.403-4.114-13.744-12.037-14.565c-0.912-0.089-1.787-0.134-2.602-0.134
			c-5.83,0-8.714,2.215-12.617,6.867l-1.558,1.854l-1.558-1.857c-3.904-4.65-6.789-6.864-12.623-6.864
			c-0.812,0-1.684,0.045-2.598,0.134c-7.902,0.773-11.525,9.135-12.033,14.561c-0.014,0.148-0.021,0.296-0.021,0.445v2.957
			c0,0.149,0.007,0.297,0.02,0.435c0.951,10.25,9.698,21.593,25.997,33.711c0.821,0.607,1.793,0.932,2.814,0.932
			s1.994-0.324,2.814-0.932c16.302-12.118,25.05-23.461,26-33.698c0.014-0.15,0.021-0.298,0.021-0.447v-2.957
			C111.273,35.577,111.267,35.426,111.253,35.287z"/>
		<path fill="#FFFFFF" d="M82.438,75.355c-1.362,0-2.664-0.432-3.764-1.246C61.995,61.709,53.034,49.987,52.04,39.266
			c-0.018-0.186-0.026-0.383-0.026-0.582v-2.957c0-0.199,0.009-0.396,0.028-0.596c0.557-5.955,4.602-15.13,13.465-15.996
			c0.967-0.094,1.893-0.142,2.752-0.142c6.427,0,9.705,2.505,13.844,7.435l0.337,0.401l0.337-0.399
			c4.139-4.932,7.415-7.437,13.838-7.437c0.865,0,1.791,0.048,2.756,0.142c8.869,0.92,12.914,10.074,13.471,16.003
			c0.018,0.187,0.026,0.387,0.026,0.589v2.957c0,0.199-0.009,0.396-0.028,0.597c-0.992,10.709-9.954,22.427-26.635,34.827
			C85.104,74.923,83.802,75.355,82.438,75.355z M68.259,22.181c-0.758,0-1.58,0.043-2.443,0.126
			c-6.939,0.68-10.143,8.219-10.601,13.122c-0.009,0.101-0.014,0.198-0.014,0.298v2.957c0,0.1,0.005,0.198,0.013,0.291
			c0.907,9.777,9.439,20.739,25.359,32.574c1.092,0.809,2.642,0.809,3.73,0c15.922-11.837,24.455-22.794,25.362-32.565
			c0.009-0.102,0.014-0.2,0.014-0.3v-2.957c0-0.1-0.005-0.197-0.013-0.291c-0.459-4.883-3.664-12.408-10.616-13.129
			c-0.851-0.083-1.675-0.126-2.437-0.126c-5.23,0-7.742,1.942-11.396,6.296l-2.778,3.312l-2.779-3.312
			C76.007,24.124,73.493,22.181,68.259,22.181z"/>
	</g>
	<g>
		<path fill="#BE1E2D" d="M159.587,35.287c-0.508-5.403-4.115-13.744-12.038-14.565c-0.911-0.089-1.786-0.134-2.601-0.134
			c-5.83,0-8.715,2.215-12.618,6.867l-1.558,1.854l-1.557-1.857c-3.905-4.65-6.789-6.864-12.623-6.864
			c-0.812,0-1.685,0.045-2.598,0.134c-7.903,0.773-11.525,9.135-12.033,14.561c-0.014,0.148-0.021,0.296-0.021,0.445v2.957
			c0,0.149,0.008,0.297,0.02,0.435c0.951,10.25,9.698,21.593,25.997,33.711c0.821,0.607,1.794,0.932,2.814,0.932
			c1.021,0,1.995-0.324,2.815-0.932c16.301-12.118,25.049-23.461,26-33.698c0.014-0.15,0.02-0.298,0.02-0.447v-2.957
			C159.606,35.577,159.601,35.426,159.587,35.287z"/>
		<path fill="#FFFFFF" d="M130.771,75.355c-1.362,0-2.663-0.432-3.763-1.246c-16.68-12.399-25.641-24.122-26.635-34.843
			c-0.018-0.186-0.027-0.383-0.027-0.582v-2.957c0-0.199,0.01-0.396,0.029-0.596c0.557-5.955,4.602-15.13,13.464-15.996
			c0.967-0.094,1.893-0.142,2.753-0.142c6.426,0,9.704,2.505,13.844,7.435l0.336,0.401l0.337-0.399
			c4.14-4.932,7.415-7.437,13.839-7.437c0.864,0,1.791,0.048,2.755,0.142c8.87,0.92,12.914,10.074,13.471,16.003
			c0.019,0.187,0.026,0.387,0.026,0.589v2.957c0,0.199-0.008,0.396-0.027,0.597c-0.992,10.709-9.955,22.427-26.635,34.827
			C133.438,74.923,132.136,75.355,130.771,75.355z M116.593,22.181c-0.758,0-1.58,0.043-2.443,0.126
			c-6.94,0.68-10.143,8.219-10.602,13.122c-0.008,0.101-0.014,0.198-0.014,0.298v2.957c0,0.1,0.006,0.198,0.014,0.291
			c0.906,9.777,9.439,20.739,25.359,32.574c1.092,0.809,2.641,0.809,3.73,0c15.922-11.837,24.455-22.794,25.361-32.565
			c0.01-0.102,0.014-0.2,0.014-0.3v-2.957c0-0.1-0.004-0.197-0.013-0.291c-0.458-4.883-3.663-12.408-10.616-13.129
			c-0.851-0.083-1.674-0.126-2.436-0.126c-5.23,0-7.742,1.942-11.397,6.296l-2.778,3.312l-2.779-3.312
			C124.34,24.124,121.826,22.181,116.593,22.181z"/>
	</g>
	<path fill="#BE1E2D" d="M457.076,35.287c-0.508-5.403-4.115-13.744-12.038-14.565c-0.912-0.089-1.786-0.134-2.602-0.134
		c-5.83,0-8.713,2.215-12.617,6.867l-1.558,1.854l-1.558-1.857c-3.905-4.65-6.789-6.864-12.623-6.864
		c-0.811,0-1.684,0.045-2.598,0.134c-7.902,0.773-11.525,9.135-12.033,14.561c-0.014,0.148-0.02,0.296-0.02,0.445v2.957
		c0,0.149,0.006,0.297,0.02,0.435c0.949,10.25,9.697,21.593,25.995,33.711c0.822,0.607,1.795,0.932,2.815,0.932
		c1.021,0,1.994-0.324,2.814-0.932c16.302-12.118,25.051-23.461,26-33.698c0.014-0.15,0.021-0.298,0.021-0.447v-2.957
		C457.097,35.577,457.089,35.426,457.076,35.287z"/>
	<path fill="#FFFFFF" d="M428.261,75.355c-1.362,0-2.664-0.432-3.764-1.246c-16.68-12.399-25.641-24.122-26.635-34.843
		c-0.018-0.186-0.025-0.383-0.025-0.582v-2.957c0-0.199,0.008-0.396,0.027-0.596c0.558-5.955,4.602-15.13,13.465-15.996
		c0.967-0.094,1.893-0.142,2.752-0.142c6.428,0,9.705,2.505,13.844,7.435l0.337,0.401l0.337-0.399
		c4.139-4.932,7.416-7.437,13.838-7.437c0.865,0,1.791,0.048,2.755,0.142c8.87,0.92,12.915,10.074,13.472,16.003
		c0.018,0.187,0.027,0.387,0.027,0.589v2.957c0,0.199-0.01,0.396-0.029,0.597c-0.992,10.709-9.953,22.427-26.635,34.827
		C430.927,74.923,429.624,75.355,428.261,75.355z M414.081,22.181c-0.758,0-1.579,0.043-2.443,0.126
		c-6.939,0.68-10.142,8.219-10.6,13.122c-0.01,0.101-0.014,0.198-0.014,0.298v2.957c0,0.1,0.004,0.198,0.013,0.291
		c0.907,9.777,9.438,20.739,25.359,32.574c1.091,0.809,2.641,0.809,3.729,0c15.922-11.837,24.456-22.794,25.363-32.565
		c0.008-0.102,0.014-0.2,0.014-0.3v-2.957c0-0.1-0.006-0.197-0.014-0.291c-0.459-4.883-3.664-12.408-10.616-13.129
		c-0.851-0.083-1.675-0.126-2.437-0.126c-5.229,0-7.742,1.942-11.396,6.296l-2.778,3.312l-2.778-3.312
		C421.829,24.124,419.315,22.181,414.081,22.181z"/>
</g>
</svg>
