<?xml version="1.0" encoding="utf-8"?>
<!-- Generator: Adobe Illustrator 16.0.0, SVG Export Plug-In . SVG Version: 6.00 Build 0)  -->
<!DOCTYPE svg PUBLIC "-//W3C//DTD SVG 1.1//EN" "http://www.w3.org/Graphics/SVG/1.1/DTD/svg11.dtd">
<svg version="1.1" id="Layer_1" xmlns="http://www.w3.org/2000/svg" xmlns:xlink="http://www.w3.org/1999/xlink" x="0px" y="0px"
	 width="100px" height="100px" viewBox="0 0 100 100" enable-background="new 0 0 100 100" xml:space="preserve">
<g>
	<circle fill="#ED5EA1" cx="50" cy="50.001" r="49.897"/>
	<path fill="#E34C9A" d="M50,99.897c27.557,0,49.897-22.339,49.897-49.896C99.897,22.444,77.557,0.103,50,0.103V99.897z"/>
	<g>
		<path fill="none" stroke="#FFFFFF" stroke-width="5" stroke-linecap="round" stroke-linejoin="round" stroke-miterlimit="10" d="
			M44.138,74.105V60.497c0-0.789,0.637-1.426,1.425-1.426h7.595c0.787,0,1.426,0.637,1.426,1.426v13.608"/>
		
			<polyline fill="none" stroke="#FFFFFF" stroke-width="6" stroke-linecap="round" stroke-linejoin="round" stroke-miterlimit="10" points="
			19.278,48.922 49,22.717 78.404,48.922 		"/>
		<path fill="none" stroke="#FFFFFF" stroke-width="5" stroke-linecap="round" stroke-linejoin="round" stroke-miterlimit="10" d="
			M72.011,42.651v32.359c0,0.595-0.481,1.078-1.076,1.078H27.069c-0.598,0-1.079-0.483-1.079-1.078V42.651"/>
		
			<line fill="none" stroke="#FFFFFF" stroke-width="7" stroke-linecap="round" stroke-linejoin="round" stroke-miterlimit="10" x1="66.979" y1="37.304" x2="66.979" y2="28.948"/>
	</g>
</g>
</svg>
