<?xml version="1.0" encoding="utf-8"?>
<!-- Generator: Adobe Illustrator 16.0.0, SVG Export Plug-In . SVG Version: 6.00 Build 0)  -->
<!DOCTYPE svg PUBLIC "-//W3C//DTD SVG 1.1//EN" "http://www.w3.org/Graphics/SVG/1.1/DTD/svg11.dtd">
<svg version="1.1" id="Layer_1" xmlns="http://www.w3.org/2000/svg" xmlns:xlink="http://www.w3.org/1999/xlink" x="0px" y="0px"
	 width="100px" height="100px" viewBox="0 0 100 100" enable-background="new 0 0 100 100" xml:space="preserve">
<g>
	<circle fill="#ED5EA1" cx="49.999" cy="50.001" r="49.855"/>
	<path fill="#E34C9A" d="M50,99.855c27.534,0,49.854-22.32,49.854-49.854S77.534,0.145,50,0.145V99.855z"/>
	<path fill="none" stroke="#FFFFFF" stroke-width="5" stroke-linecap="round" stroke-linejoin="round" stroke-miterlimit="10" d="
		M22.39,42.105v3.236c0.855,10.394,10.141,21.99,27.606,34.488C67.463,67.334,76.75,55.735,77.61,45.341v-3.236
		c-0.756-8.932-6.412-13.521-11.364-14.007c-0.88-0.085-1.719-0.128-2.487-0.128c-5.541,0-8.168,2.015-11.964,6.532
		c-0.446,0.531-1.104,0.838-1.799,0.838l0,0c-0.695,0-1.353-0.307-1.8-0.838c-3.789-4.517-6.416-6.532-11.961-6.532
		c-0.771,0-1.607,0.043-2.485,0.128C28.797,28.584,23.141,33.173,22.39,42.105z M33.931,29.943c0.809-0.079,1.584-0.118,2.305-0.118
		c4.837,0,7.069,1.729,10.541,5.868L50,39.53l3.219-3.837c3.473-4.138,5.705-5.868,10.54-5.868c0.721,0,1.498,0.039,2.309,0.118
		c0.015,0.002,0.032,0.004,0.048,0.006c6.29,0.653,9.206,7.599,9.631,12.121c0.007,0.074,0.011,0.146,0.011,0.22v2.868
		c0,0.072-0.004,0.144-0.011,0.216c-0.862,9.295-9.054,19.771-24.348,31.14c-0.416,0.31-0.908,0.464-1.402,0.464
		c-0.492,0-0.984-0.156-1.4-0.466c-15.29-11.367-23.481-21.843-24.342-31.138c-0.007-0.072-0.011-0.144-0.011-0.216V42.29
		c0-0.072,0.004-0.146,0.011-0.218C24.677,37.538,27.604,30.563,33.931,29.943z"/>
</g>
</svg>
