<?xml version="1.0" encoding="utf-8"?>
<!-- Generator: Adobe Illustrator 16.0.0, SVG Export Plug-In . SVG Version: 6.00 Build 0)  -->
<!DOCTYPE svg PUBLIC "-//W3C//DTD SVG 1.1//EN" "http://www.w3.org/Graphics/SVG/1.1/DTD/svg11.dtd">
<svg version="1.1" id="Layer_1" xmlns="http://www.w3.org/2000/svg" xmlns:xlink="http://www.w3.org/1999/xlink" x="0px" y="0px"
	 width="100px" height="100px" viewBox="0 0 100 100" enable-background="new 0 0 100 100" xml:space="preserve">
<g>
	<circle fill="#ED5EA1" cx="50" cy="50.001" r="49.792"/>
	<path fill="#E34C9A" d="M50,99.792c27.5,0,49.792-22.292,49.792-49.791S77.5,0.208,50,0.208V99.792z"/>
	
		<path fill-rule="evenodd" clip-rule="evenodd" fill="none" stroke="#FFFFFF" stroke-width="5" stroke-linecap="round" stroke-linejoin="round" stroke-miterlimit="10" d="
		M65.763,58.652L54.523,85.344l-8.377-3.525l0,0c2.041-4.845-0.03-10.713-4.875-12.751c-4.847-2.041-10.926,0.396-12.967,5.239l0,0
		l-7.939-3.341l11.237-26.694l0.409-0.968l11.237-26.694l7.94,3.343l0,0c-2.039,4.845,0.47,10.896,5.314,12.935
		c4.844,2.04,10.489-0.579,12.529-5.423l0,0l8.375,3.525L66.17,57.682L65.763,58.652z"/>
	
		<rect x="39.913" y="39.901" transform="matrix(0.9217 0.388 -0.388 0.9217 23.6064 -14.9736)" fill-rule="evenodd" clip-rule="evenodd" fill="none" stroke="#FFFFFF" stroke-width="5" stroke-linecap="round" stroke-linejoin="round" stroke-miterlimit="10" width="17.947" height="22.149"/>
</g>
</svg>
