<?xml version="1.0" encoding="utf-8"?>
<!-- Generator: Adobe Illustrator 16.0.0, SVG Export Plug-In . SVG Version: 6.00 Build 0)  -->
<!DOCTYPE svg PUBLIC "-//W3C//DTD SVG 1.1//EN" "http://www.w3.org/Graphics/SVG/1.1/DTD/svg11.dtd">
<svg version="1.1" id="Layer_1" xmlns="http://www.w3.org/2000/svg" xmlns:xlink="http://www.w3.org/1999/xlink" x="0px" y="0px"
	 width="100px" height="100px" viewBox="0 0 100 100" enable-background="new 0 0 100 100" xml:space="preserve">
<g>
	<circle fill="#ED5EA1" cx="49.999" cy="50.001" r="49.896"/>
	<path fill="#E34C9A" d="M50,99.896c27.557,0,49.895-22.338,49.895-49.895S77.557,0.104,50,0.104V99.896z"/>
	<g>
		
			<line fill="none" stroke="#FFFFFF" stroke-width="5" stroke-linecap="round" stroke-linejoin="round" stroke-miterlimit="10" x1="43.479" y1="44.447" x2="43.479" y2="76.323"/>
		
			<line fill="none" stroke="#FFFFFF" stroke-width="5" stroke-linecap="round" stroke-linejoin="round" stroke-miterlimit="10" x1="56.341" y1="44.447" x2="56.341" y2="76.323"/>
		<path fill="none" stroke="#FFFFFF" stroke-width="5" stroke-linecap="round" stroke-linejoin="round" stroke-miterlimit="10" d="
			M74.924,72.772c0,1.96-1.332,3.551-2.974,3.551h-43.9c-1.644,0-2.976-1.591-2.976-3.551V47.501c0-1.96,1.332-3.549,2.976-3.549
			h43.9c1.642,0,2.974,1.589,2.974,3.549V72.772z"/>
		<path fill="none" stroke="#FFFFFF" stroke-width="5" stroke-linecap="round" stroke-linejoin="round" stroke-miterlimit="10" d="
			M49.777,42.688c0,0-2.199-16.699-12.171-16.515C27.634,26.357,25.693,41.312,49.777,42.688z"/>
		<path fill="none" stroke="#FFFFFF" stroke-width="5" stroke-linecap="round" stroke-linejoin="round" stroke-miterlimit="10" d="
			M50.096,42.688c0,0,2.197-16.699,12.17-16.515C72.238,26.357,74.178,41.312,50.096,42.688z"/>
	</g>
</g>
</svg>
