<?xml version="1.0" encoding="utf-8"?>
<!-- Generator: Adobe Illustrator 16.0.0, SVG Export Plug-In . SVG Version: 6.00 Build 0)  -->
<!DOCTYPE svg PUBLIC "-//W3C//DTD SVG 1.1//EN" "http://www.w3.org/Graphics/SVG/1.1/DTD/svg11.dtd">
<svg version="1.1" id="Layer_1" xmlns="http://www.w3.org/2000/svg" xmlns:xlink="http://www.w3.org/1999/xlink" x="0px" y="0px"
	 width="100px" height="100px" viewBox="0 0 100 100" enable-background="new 0 0 100 100" xml:space="preserve">
<g>
	<circle fill="#ED5EA1" cx="50" cy="50.001" r="49.81"/>
	<path fill="#E34C9A" d="M50,99.811c27.509,0,49.809-22.3,49.809-49.81S77.51,0.189,50,0.189V99.811z"/>
	<g>
		<g id="XMLID_1_">
			<path fill="#FFFFFF" d="M49.946,27.905c7.02,0,12.71,0.923,12.71,2.063c0,1.14-5.69,2.064-12.71,2.064
				c-7.02,0-12.712-0.925-12.712-2.064C37.234,28.828,42.926,27.905,49.946,27.905 M49.946,22.905c-3.656,0-7.132,0.237-9.79,0.669
				c-1.959,0.317-7.923,1.285-7.923,6.395c0,5.108,5.963,6.077,7.922,6.395c2.659,0.433,6.135,0.67,9.791,0.67
				s7.131-0.237,9.789-0.67c1.959-0.318,7.921-1.286,7.921-6.395c0-5.109-5.962-6.077-7.922-6.395
				C57.078,23.143,53.602,22.905,49.946,22.905L49.946,22.905z"/>
		</g>
		<path fill="none" stroke="#FFFFFF" stroke-width="5" stroke-linecap="round" stroke-linejoin="round" stroke-miterlimit="10" d="
			M57.024,57.054c1.584-2.002,9.638-14.891,18.154-14.545c11.253,0.459,2.159,14.692,2.159,14.692s2.944,0.818,3.214,5.277
			c0.27,4.461-6.278,3.706-6.278,3.706s2.253,8.21-4.271,6.722c0,0-3.164,7.84-8.543,3.649c-5.377-4.189-8.199-12.569-8.199-12.569
			S55.438,59.056,57.024,57.054z"/>
		<path fill="none" stroke="#FFFFFF" stroke-width="5" stroke-linecap="round" stroke-linejoin="round" stroke-miterlimit="10" d="
			M42.974,57.054c-1.584-2.002-9.638-14.891-18.155-14.545c-11.253,0.459-2.159,14.692-2.159,14.692s-2.944,0.818-3.214,5.277
			c-0.27,4.461,6.278,3.706,6.278,3.706s-2.252,8.21,4.271,6.722c0,0,3.164,7.84,8.543,3.649c5.377-4.189,8.199-12.569,8.199-12.569
			S44.561,59.056,42.974,57.054z"/>
	</g>
</g>
</svg>
