<?xml version="1.0" encoding="utf-8"?>
<!-- Generator: Adobe Illustrator 16.0.0, SVG Export Plug-In . SVG Version: 6.00 Build 0)  -->
<!DOCTYPE svg PUBLIC "-//W3C//DTD SVG 1.1//EN" "http://www.w3.org/Graphics/SVG/1.1/DTD/svg11.dtd">
<svg version="1.1" id="Layer_1" xmlns="http://www.w3.org/2000/svg" xmlns:xlink="http://www.w3.org/1999/xlink" x="0px" y="0px"
	 width="100px" height="100px" viewBox="0 0 100 100" enable-background="new 0 0 100 100" xml:space="preserve">
<g>
	<circle fill="#ED5EA1" cx="49.999" cy="50.001" r="49.708"/>
	<path fill="#E34C9A" d="M50,99.708c27.453,0,49.707-22.254,49.707-49.707S77.453,0.292,50,0.292V99.708z"/>
	<g>
		<g>
			<path fill="#FFFFFF" stroke="#FFFFFF" stroke-miterlimit="10" d="M63.907,86.331c-0.14,0-0.28-0.02-0.42-0.059l-13.931-3.98
				c-0.545-0.156-0.959-0.602-1.072-1.159l-2.03-9.898l-6.27,7.271c-0.406,0.472-1.056,0.649-1.646,0.447l-14.594-4.978
				c-0.486-0.165-0.855-0.564-0.983-1.062s0.005-1.024,0.35-1.405l15.888-17.446l-8.574,3.312c-0.41,0.157-0.87,0.133-1.259-0.073
				c-0.389-0.204-0.671-0.569-0.773-0.997l-2.985-12.604c-0.096-0.406-0.022-0.832,0.206-1.182c0.228-0.35,0.586-0.59,0.997-0.666
				l18.304-3.432c-1.679-2.057-3.483-5.557-2.608-10.591c1.398-8.052,10.378-10.657,14.506-10.657c0.578,0,1.102,0.045,1.555,0.137
				c4.268,0.854,11.627,5.659,10.154,13.39c-0.99,5.196-4.44,8.829-6.575,10.639L77.744,52.73c0.354,0.261,0.579,0.662,0.619,1.099
				c0.036,0.441-0.118,0.873-0.424,1.192l-9.288,9.616c-0.577,0.599-1.528,0.623-2.137,0.054l-6.729-6.293l5.565,25.881
				c0.062,0.165,0.096,0.343,0.096,0.529c0,0.841-0.684,1.522-1.524,1.522C63.918,86.331,63.911,86.331,63.907,86.331z
				 M51.283,79.617l10.6,3.029l-6.098-28.363c-0.142-0.651,0.158-1.318,0.738-1.646c0.578-0.33,1.305-0.243,1.792,0.21l9.186,8.596
				l7.033-7.281L58.697,42.59c-0.408-0.298-0.641-0.777-0.625-1.281c0.017-0.504,0.282-0.969,0.71-1.238
				c0.054-0.034,5.763-3.737,6.944-9.943c1.159-6.085-5.279-9.336-7.757-9.831c-0.176-0.034-0.486-0.078-0.958-0.078
				c-3.161,0-10.447,2.051-11.505,8.135c-1.14,6.559,3.592,9.707,3.64,9.737c0.523,0.339,0.788,0.962,0.667,1.574
				c-0.119,0.61-0.602,1.088-1.214,1.201L28.94,44.551l2.215,9.351l12.967-5.008c0.657-0.254,1.407-0.023,1.804,0.561
				c0.4,0.582,0.346,1.363-0.13,1.885L27.129,71.843l11.421,3.894l7.62-8.838c0.38-0.443,0.977-0.626,1.537-0.48
				c0.562,0.146,0.992,0.598,1.109,1.168L51.283,79.617z"/>
		</g>
		<g>
			<path fill="#FFFFFF" d="M55.707,36.047c-0.3,0-0.605-0.021-0.921-0.067c-3.716-0.554-5.166-4.69-5.227-4.866
				c-0.204-0.598,0.115-1.247,0.712-1.451c0.598-0.202,1.244,0.115,1.448,0.708c0.016,0.039,1.077,3.001,3.401,3.349
				c2.41,0.36,4.321-1.674,4.338-1.696c0.428-0.462,1.149-0.49,1.614-0.067c0.462,0.426,0.497,1.143,0.073,1.609
				C61.047,33.676,58.852,36.047,55.707,36.047z"/>
		</g>
		<g>
			<circle fill="#FFFFFF" cx="53.958" cy="26.392" r="0.933"/>
			<path fill="#FFFFFF" d="M53.959,27.703c-0.726,0-1.313-0.588-1.313-1.312c0-0.725,0.588-1.315,1.313-1.315
				c0.723,0,1.313,0.591,1.313,1.315C55.272,27.115,54.682,27.703,53.959,27.703z M53.959,25.838c-0.304,0-0.552,0.248-0.552,0.554
				c0,0.305,0.248,0.55,0.552,0.55s0.552-0.245,0.552-0.55C54.511,26.086,54.263,25.838,53.959,25.838z"/>
		</g>
		<g>
			<circle fill="#FFFFFF" cx="58.851" cy="27.323" r="0.933"/>
			<path fill="#FFFFFF" d="M58.852,28.638c-0.726,0-1.314-0.591-1.314-1.314c0-0.725,0.589-1.313,1.314-1.313
				c0.723,0,1.313,0.589,1.313,1.313C60.165,28.047,59.574,28.638,58.852,28.638z M58.852,26.771c-0.305,0-0.552,0.248-0.552,0.552
				c0,0.305,0.247,0.552,0.552,0.552c0.304,0,0.552-0.247,0.552-0.552C59.403,27.02,59.155,26.771,58.852,26.771z"/>
		</g>
	</g>
</g>
</svg>
