<?xml version="1.0" encoding="utf-8"?>
<!-- Generator: Adobe Illustrator 16.0.0, SVG Export Plug-In . SVG Version: 6.00 Build 0)  -->
<!DOCTYPE svg PUBLIC "-//W3C//DTD SVG 1.1//EN" "http://www.w3.org/Graphics/SVG/1.1/DTD/svg11.dtd">
<svg version="1.1" id="Layer_1" xmlns="http://www.w3.org/2000/svg" xmlns:xlink="http://www.w3.org/1999/xlink" x="0px" y="0px"
	 width="501.653px" height="161.512px" viewBox="0 0 501.653 161.512" enable-background="new 0 0 501.653 161.512"
	 xml:space="preserve">
<g>
	<g>
		<path fill="#F1F1F2" d="M51.262,77.477c-0.081,11.998-10.2,17.466-21.613,17.385c-11.495,0-21.938-4.979-21.694-17.304
			c0-11.264,10.767-12.978,15.461-16.16c2.267-1.47,3.076-3.755,3.157-7.591l-0.081-0.408l10.686,0.082v0.408
			c-0.081,11.182-4.614,13.712-8.904,15.997c-4.291,2.285-9.229,2.938-9.229,7.835c0,6.203,5.666,7.754,10.686,7.754
			c5.181,0,10.523-2.938,10.685-8.08L51.262,77.477z M38.391,43.605c0.081-8.652-12.871-8.652-12.871-0.082
			C25.44,52.174,38.472,52.174,38.391,43.605z"/>
		<path fill="#F1F1F2" d="M108.976,72.171c-5.828,5.795-13.356,8.488-21.532,8.488c-21.046,0-29.95-14.609-30.031-29.464
			c-0.081-14.937,9.552-30.118,30.031-30.118c7.69,0,14.976,2.938,20.804,8.733l-7.123,6.938c-3.724-3.673-8.742-5.387-13.681-5.387
			c-13.68,0-19.589,10.284-19.508,19.834c0.081,9.468,5.504,19.344,19.508,19.344c4.938,0,10.523-2.041,14.247-5.795L108.976,72.171
			z"/>
		<path fill="#F1F1F2" d="M132.206,38.299c12.709,0,20.885,9.468,20.885,20.977c0,11.59-7.852,20.976-20.804,20.976
			c-12.951,0-20.723-9.386-20.723-20.976C111.564,47.767,119.497,38.299,132.206,38.299z M132.287,47.359
			c-7.123,0-10.847,5.877-10.847,11.917c0,6.121,3.643,11.835,10.847,11.835s10.847-5.714,10.847-11.835
			C143.133,53.236,138.924,47.359,132.287,47.359z M144.996,21.894h-11.656l-5.99,11.101v0.489h8.742l8.904-11.182V21.894z"/>
		<path fill="#F1F1F2" d="M186.439,79.354V57.806c0-5.305-2.753-10.12-8.176-10.12c-5.343,0-8.5,4.815-8.5,10.12v21.548h-9.875
			v-40.32h9.146l0.729,4.897c2.104-4.081,6.719-5.55,10.523-5.55c4.776,0,9.552,1.959,11.818,7.509
			c3.562-5.713,8.176-7.346,13.356-7.346c11.333,0,16.918,7.02,16.918,19.099v21.711h-9.875V57.643c0-5.305-2.187-9.794-7.528-9.794
			c-5.343,0-8.662,4.652-8.662,9.957v21.548H186.439z"/>
		<path fill="#F1F1F2" d="M272.08,59.276c0,11.59-7.852,20.976-20.804,20.976c-12.951,0-20.723-9.386-20.723-20.976
			c0-11.509,7.933-20.977,20.642-20.977S272.08,47.767,272.08,59.276z M240.429,59.276c0,6.121,3.643,11.835,10.847,11.835
			s10.847-5.714,10.847-11.835c0-6.04-4.209-11.917-10.847-11.917C244.153,47.359,240.429,53.236,240.429,59.276z"/>
		<path fill="#F1F1F2" d="M116.666,82.158v57.052h-9.229l-0.647-5.55c-3.076,4.815-8.014,6.447-12.871,6.447
			c-11.737,0-20.561-7.835-20.561-21.058c0-13.875,8.661-21.058,20.318-21.058c4.209,0,10.766,2.285,13.113,6.448V82.158H116.666z
			 M83.234,119.049c0,7.02,5.019,11.835,11.332,11.835c6.233,0,11.576-4.57,11.576-11.835c0-7.02-5.343-11.753-11.576-11.753
			C88.252,107.296,83.234,111.786,83.234,119.049z"/>
		<path fill="#F1F1F2" d="M164.908,119.131c0,11.59-7.852,20.976-20.804,20.976c-12.951,0-20.723-9.386-20.723-20.976
			c0-11.509,7.933-20.977,20.642-20.977S164.908,107.623,164.908,119.131z M133.257,119.131c0,6.121,3.643,11.835,10.847,11.835
			s10.847-5.714,10.847-11.835c0-6.04-4.209-11.917-10.847-11.917C136.981,107.214,133.257,113.091,133.257,119.131z"/>
		<path fill="#F1F1F2" d="M201.09,139.209v-21.058c0-6.122-3.319-10.773-9.633-10.773c-6.071,0-10.199,5.142-10.199,11.263v20.568
			h-9.795v-40.32h8.823l0.647,5.469c4.048-3.999,8.095-6.04,13.113-6.04c9.391,0,16.919,7.102,16.919,19.752v21.14H201.09z"/>
		<path fill="#F1F1F2" d="M251.115,98.971h9.471v40.238h-9.309l-0.486-5.877c-2.267,4.734-8.499,7.02-12.951,7.102
			c-11.818,0.081-20.561-7.265-20.561-21.385c0-13.875,9.146-21.14,20.803-21.058c5.343,0,10.442,2.53,12.709,6.529L251.115,98.971z
			 M227.154,119.049c0,7.673,5.262,12.243,11.818,12.243c15.542,0,15.542-24.404,0-24.404
			C232.416,106.888,227.154,111.377,227.154,119.049z"/>
		<path fill="#F1F1F2" d="M278.068,98.971l0.729,4.652c3.076-4.979,7.205-5.714,11.252-5.714c4.129,0,8.095,1.633,10.28,3.837
			l-4.452,8.651c-2.023-1.714-3.886-2.612-7.123-2.612c-5.181,0-9.957,2.775-9.957,10.203v21.221h-9.875V98.971H278.068z"/>
		<path fill="#F1F1F2" d="M302.917,99.216c0.081-12.08,10.199-17.467,21.613-17.467s21.937,4.979,21.694,17.222
			c0,11.835-10.767,13.059-15.461,16.242c-2.187,1.469-3.076,3.755-3.076,7.591v0.408h-10.686v-0.49
			c0.081-11.182,4.614-13.712,8.904-15.997s9.229-2.938,9.229-7.836c0-6.284-5.748-7.754-10.767-7.754
			c-5.181,0-10.523,2.938-10.604,8.081H302.917z M328.74,133.088c0,8.569-12.951,8.569-12.951,0
			C315.789,124.436,328.74,124.436,328.74,133.088z"/>
	</g>
	<g>
		<g>
			<g>
				<path fill="#F1F1F2" d="M377.585,54.898c-0.313,0.308-0.658,0.601-1.035,0.873c-4.449,3.226-10.179,0.347-10.418,0.223
					c-0.822-0.421-1.15-1.435-0.731-2.261c0.421-0.826,1.419-1.156,2.237-0.739c0.057,0.027,4.179,2.064,6.966,0.047
					c2.888-2.089,2.819-6.197,2.817-6.238c-0.023-0.926,0.702-1.697,1.619-1.727c0.918-0.025,1.683,0.696,1.715,1.623
					C380.762,46.919,380.876,51.674,377.585,54.898z"/>
			</g>
		</g>
		<g>
			<g>
				<path fill="#F1F1F2" d="M364.958,47.455c-0.523-0.543-0.512-1.412,0.028-1.942c0.538-0.527,1.4-0.514,1.924,0.03
					c0.523,0.543,0.511,1.41-0.029,1.938C366.343,48.009,365.481,47.998,364.958,47.455z"/>
			</g>
			<g>
				<path fill="#F1F1F2" d="M367.27,47.885c-0.759,0.742-1.975,0.726-2.711-0.04c-0.737-0.765-0.722-1.992,0.038-2.735
					c0.759-0.743,1.975-0.724,2.713,0.042C368.046,45.917,368.029,47.142,367.27,47.885z M365.373,45.915
					c-0.318,0.312-0.326,0.827-0.016,1.15c0.309,0.319,0.818,0.325,1.137,0.015c0.318-0.312,0.328-0.827,0.019-1.148
					C366.203,45.611,365.691,45.602,365.373,45.915z"/>
			</g>
		</g>
		<g>
			<g>
				<path fill="#F1F1F2" d="M371.028,43.42c-0.524-0.544-0.511-1.41,0.028-1.939c0.54-0.528,1.4-0.517,1.924,0.026
					c0.524,0.544,0.512,1.412-0.027,1.941C372.413,43.977,371.551,43.963,371.028,43.42z"/>
			</g>
			<g>
				<path fill="#F1F1F2" d="M373.339,43.85c-0.758,0.745-1.975,0.728-2.711-0.039c-0.736-0.765-0.72-1.99,0.041-2.732
					c0.757-0.741,1.972-0.725,2.708,0.039C374.115,41.883,374.097,43.109,373.339,43.85z M371.443,41.882
					c-0.319,0.312-0.326,0.828-0.018,1.148c0.309,0.321,0.821,0.328,1.14,0.016c0.319-0.311,0.324-0.826,0.015-1.146
					C372.271,41.58,371.761,41.57,371.443,41.882z"/>
			</g>
		</g>
		<g>
			<polygon fill="#F1F1F2" points="430.909,92.007 430.453,91.702 427.087,94.828 429.289,96.307 			"/>
		</g>
		<g>
			<path fill="#F1F1F2" d="M418.177,110.021l7.469-4.042l2.406-6.391l-10.789,5.839l-14.816-10.171
				c-0.702-0.481-1.611-0.518-2.351-0.095c-0.733,0.423-1.173,1.228-1.12,2.083l1.008,17.146l-15.914,7.6l-1.309-40.787
				c-0.031-1.04-0.77-1.919-1.781-2.125c-1.01-0.206-2.028,0.319-2.458,1.263l-8.481,18.58l-11.828-7.598l16.833-24.05
				c0.525-0.748,0.544-1.745,0.048-2.515c-0.494-0.768-1.406-1.156-2.298-0.978c-0.081,0.019-8.237,1.545-13.716-6.548
				c-5.078-7.506,0.464-17.141,3.773-20.382c0.494-0.484,0.862-0.756,1.083-0.901c3.097-2.017,13.144-5.19,18.118,2.423
				c5.074,7.764,2.863,17.526,2.842,17.619c-0.175,0.72,0.021,1.484,0.516,2.032c0.494,0.549,1.228,0.82,1.957,0.714l28.348-4.026
				l0.044,14.899l-18.359,0.35c-0.972,0.016-1.82,0.671-2.09,1.612c-0.274,0.941,0.092,1.952,0.901,2.495l11.09,7.456
				c0.173-0.265,0.396-0.491,0.666-0.665l3.276-2.074l-6.659-4.477l13.446-0.257c1.214-0.021,2.185-1.023,2.182-2.25l-0.057-19.674
				c-0.003-0.649-0.284-1.265-0.77-1.69c-0.483-0.422-1.128-0.614-1.767-0.526l-27.917,3.966c0.396-4.098,0.314-11.471-3.935-17.971
				c-6.32-9.672-18.91-7.197-24.246-3.723c-0.568,0.37-1.164,0.86-1.77,1.452c-4.321,4.232-11.07,16.19-4.347,26.127
				c4.203,6.21,9.652,8.054,13.501,8.502l-15.674,22.392c-0.35,0.501-0.482,1.128-0.363,1.729c0.118,0.603,0.474,1.128,0.986,1.457
				l15.944,10.244c0.542,0.348,1.205,0.442,1.823,0.26c0.614-0.182,1.121-0.628,1.391-1.215l5.607-12.287l1.111,34.71
				c0.025,0.755,0.424,1.447,1.064,1.84c0.64,0.395,1.433,0.438,2.109,0.113l20.338-9.713c0.823-0.392,1.322-1.246,1.27-2.159
				l-0.832-14.104l12.191,8.368C416.56,110.37,417.448,110.417,418.177,110.021z"/>
		</g>
		<g>
			<g>
				<path fill="#F1F1F2" d="M444.095,57.312c-0.404,0.162-0.836,0.298-1.287,0.403c-5.339,1.249-9.525-3.632-9.7-3.84
					c-0.599-0.708-0.513-1.77,0.188-2.37c0.704-0.6,1.752-0.515,2.348,0.187c0.039,0.046,3.068,3.528,6.41,2.748
					c3.464-0.809,4.968-4.626,4.982-4.664c0.331-0.863,1.295-1.292,2.152-0.965c0.857,0.332,1.289,1.295,0.963,2.166
					C450.076,51.181,448.366,55.615,444.095,57.312z"/>
			</g>
		</g>
		<g>
			<g>
				<path fill="#F1F1F2" d="M435.285,45.541c-0.275-0.704,0.068-1.504,0.767-1.782c0.7-0.278,1.49,0.069,1.765,0.773
					c0.277,0.706-0.067,1.502-0.766,1.778C436.351,46.588,435.559,46.245,435.285,45.541z"/>
			</g>
			<g>
				<path fill="#F1F1F2" d="M437.255,46.833c-0.984,0.391-2.101-0.096-2.487-1.088c-0.39-0.993,0.095-2.12,1.079-2.511
					c0.982-0.392,2.1,0.099,2.488,1.092C438.722,45.319,438.24,46.442,437.255,46.833z M436.256,44.279
					c-0.415,0.165-0.618,0.638-0.455,1.056c0.163,0.414,0.63,0.618,1.046,0.455c0.412-0.165,0.617-0.636,0.453-1.052
					C437.137,44.321,436.667,44.116,436.256,44.279z"/>
			</g>
		</g>
		<g>
			<g>
				<path fill="#F1F1F2" d="M442.426,44.173c-0.275-0.705,0.067-1.501,0.769-1.779c0.7-0.278,1.488,0.067,1.765,0.771
					c0.276,0.705-0.067,1.502-0.768,1.78C443.492,45.225,442.703,44.878,442.426,44.173z"/>
			</g>
			<g>
				<path fill="#F1F1F2" d="M444.397,45.467c-0.984,0.393-2.101-0.097-2.488-1.09c-0.387-0.992,0.097-2.113,1.081-2.506
					c0.983-0.391,2.097,0.097,2.485,1.088C445.863,43.952,445.378,45.078,444.397,45.467z M443.398,42.914
					c-0.414,0.166-0.618,0.638-0.455,1.053c0.162,0.418,0.632,0.624,1.046,0.458c0.413-0.164,0.614-0.637,0.452-1.054
					C444.278,42.956,443.811,42.749,443.398,42.914z"/>
			</g>
		</g>
		<g>
			<g>
				<path fill="#F1F1F2" d="M482.158,121.727c-0.188,0.075-0.393,0.123-0.6,0.145l-21.045,2.072
					c-0.825,0.081-1.625-0.305-2.079-1.006l-8.057-12.457l-4.618,13.343c-0.3,0.861-1.086,1.456-1.996,1.497l-22.477,1.068
					c-0.75,0.035-1.466-0.31-1.905-0.923c-0.44-0.612-0.545-1.403-0.279-2.11l12.227-32.468l-9.865,9.163
					c-0.474,0.438-1.111,0.653-1.749,0.582c-0.639-0.073-1.215-0.417-1.583-0.948l-10.804-15.644
					c-0.348-0.503-0.474-1.126-0.354-1.728c0.12-0.603,0.482-1.126,0.994-1.454l23.018-14.581
					c-3.383-1.909-7.707-5.725-9.216-13.088c-2.411-11.779,8.383-20.196,13.988-22.426c0.784-0.312,1.521-0.531,2.188-0.652
					c6.249-1.137,18.813,1.467,20.955,12.849c1.438,7.647-1.301,14.484-3.23,18.112l27.277,7.179
					c0.624,0.165,1.146,0.595,1.431,1.171c0.286,0.581,0.31,1.258,0.065,1.859l-7.461,18.18c-0.465,1.134-1.743,1.681-2.872,1.229
					l-12.507-4.983l21.416,32.428c0.17,0.193,0.311,0.419,0.41,0.674c0.45,1.15-0.11,2.454-1.252,2.908
					C482.171,121.721,482.164,121.725,482.158,121.727z M461.422,119.35l16.015-1.578l-23.469-35.536
					c-0.54-0.815-0.491-1.891,0.119-2.652c0.61-0.765,1.643-1.039,2.547-0.678l17.076,6.804l5.649-13.766l-27.7-7.289
					c-0.713-0.187-1.287-0.72-1.534-1.42c-0.247-0.697-0.136-1.479,0.3-2.075c0.056-0.078,5.824-8.229,4.105-17.364
					c-1.686-8.956-12.168-9.929-15.796-9.27c-0.26,0.048-0.706,0.156-1.345,0.411c-4.292,1.707-13.086,8.446-11.264,17.347
					c1.966,9.597,10.074,11.351,10.157,11.367c0.891,0.182,1.584,0.893,1.747,1.793c0.164,0.904-0.232,1.816-1.004,2.303
					l-24.719,15.661l8.017,11.605l14.921-13.856c0.758-0.703,1.898-0.794,2.752-0.211c0.854,0.584,1.199,1.682,0.833,2.652
					l-14.368,38.151l17.592-0.836l5.615-16.216c0.277-0.81,0.991-1.381,1.829-1.487c0.843-0.104,1.668,0.283,2.133,1L461.422,119.35
					z"/>
			</g>
		</g>
	</g>
</g>
</svg>
