<?xml version="1.0" encoding="utf-8"?>
<!-- Generator: Adobe Illustrator 16.0.0, SVG Export Plug-In . SVG Version: 6.00 Build 0)  -->
<!DOCTYPE svg PUBLIC "-//W3C//DTD SVG 1.1//EN" "http://www.w3.org/Graphics/SVG/1.1/DTD/svg11.dtd">
<svg version="1.1" id="Layer_1" xmlns="http://www.w3.org/2000/svg" xmlns:xlink="http://www.w3.org/1999/xlink" x="0px" y="0px"
	 width="354.545px" height="161.512px" viewBox="0 0 354.545 161.512" enable-background="new 0 0 354.545 161.512"
	 xml:space="preserve">
<g>
	<g>
		<path fill="#F1F1F2" d="M51.445,77.477c-0.081,11.998-10.2,17.466-21.613,17.385c-11.495,0-21.938-4.979-21.694-17.304
			c0-11.264,10.767-12.978,15.461-16.16c2.267-1.47,3.076-3.755,3.157-7.591l-0.081-0.408l10.686,0.082v0.408
			c-0.081,11.182-4.614,13.712-8.904,15.997c-4.291,2.285-9.229,2.938-9.229,7.835c0,6.203,5.666,7.754,10.686,7.754
			c5.181,0,10.523-2.938,10.685-8.08L51.445,77.477z M38.574,43.605c0.081-8.652-12.871-8.652-12.871-0.082
			C25.623,52.174,38.655,52.174,38.574,43.605z"/>
		<path fill="#F1F1F2" d="M109.159,72.171c-5.828,5.795-13.356,8.488-21.532,8.488c-21.046,0-29.95-14.609-30.031-29.464
			c-0.081-14.937,9.552-30.118,30.031-30.118c7.69,0,14.976,2.938,20.804,8.733l-7.123,6.938c-3.724-3.673-8.742-5.387-13.681-5.387
			c-13.68,0-19.589,10.284-19.508,19.834C68.2,60.664,73.623,70.54,87.627,70.54c4.938,0,10.523-2.041,14.247-5.795L109.159,72.171z
			"/>
		<path fill="#F1F1F2" d="M132.389,38.299c12.709,0,20.885,9.468,20.885,20.977c0,11.59-7.852,20.976-20.804,20.976
			c-12.951,0-20.723-9.386-20.723-20.976C111.747,47.767,119.68,38.299,132.389,38.299z M132.47,47.359
			c-7.123,0-10.847,5.877-10.847,11.917c0,6.121,3.643,11.835,10.847,11.835s10.847-5.714,10.847-11.835
			C143.316,53.236,139.107,47.359,132.47,47.359z M145.179,21.894h-11.656l-5.99,11.101v0.489h8.742l8.904-11.182V21.894z"/>
		<path fill="#F1F1F2" d="M186.622,79.354V57.806c0-5.305-2.753-10.12-8.176-10.12c-5.343,0-8.5,4.815-8.5,10.12v21.548h-9.875
			v-40.32h9.146l0.729,4.897c2.104-4.081,6.719-5.55,10.523-5.55c4.776,0,9.552,1.959,11.818,7.509
			c3.562-5.713,8.176-7.346,13.356-7.346c11.333,0,16.918,7.02,16.918,19.099v21.711h-9.875V57.643c0-5.305-2.187-9.794-7.528-9.794
			c-5.343,0-8.662,4.652-8.662,9.957v21.548H186.622z"/>
		<path fill="#F1F1F2" d="M272.263,59.276c0,11.59-7.852,20.976-20.804,20.976c-12.951,0-20.723-9.386-20.723-20.976
			c0-11.509,7.933-20.977,20.642-20.977S272.263,47.767,272.263,59.276z M240.612,59.276c0,6.121,3.643,11.835,10.847,11.835
			s10.847-5.714,10.847-11.835c0-6.04-4.209-11.917-10.847-11.917C244.336,47.359,240.612,53.236,240.612,59.276z"/>
		<path fill="#F1F1F2" d="M116.849,82.158v57.052h-9.229l-0.647-5.55c-3.076,4.815-8.014,6.447-12.871,6.447
			c-11.737,0-20.561-7.835-20.561-21.058c0-13.875,8.661-21.058,20.318-21.058c4.209,0,10.766,2.285,13.113,6.448V82.158H116.849z
			 M83.417,119.049c0,7.02,5.019,11.835,11.332,11.835c6.233,0,11.576-4.57,11.576-11.835c0-7.02-5.343-11.753-11.576-11.753
			C88.436,107.296,83.417,111.786,83.417,119.049z"/>
		<path fill="#F1F1F2" d="M165.091,119.131c0,11.59-7.852,20.976-20.804,20.976c-12.951,0-20.723-9.386-20.723-20.976
			c0-11.509,7.933-20.977,20.642-20.977S165.091,107.623,165.091,119.131z M133.44,119.131c0,6.121,3.643,11.835,10.847,11.835
			s10.847-5.714,10.847-11.835c0-6.04-4.209-11.917-10.847-11.917C137.164,107.214,133.44,113.091,133.44,119.131z"/>
		<path fill="#F1F1F2" d="M201.273,139.209v-21.058c0-6.122-3.319-10.773-9.633-10.773c-6.071,0-10.199,5.142-10.199,11.263v20.568
			h-9.795v-40.32h8.823l0.647,5.469c4.048-3.999,8.095-6.04,13.113-6.04c9.391,0,16.919,7.102,16.919,19.752v21.14H201.273z"/>
		<path fill="#F1F1F2" d="M251.298,98.971h9.471v40.238h-9.309l-0.486-5.877c-2.267,4.734-8.499,7.02-12.951,7.102
			c-11.818,0.081-20.561-7.265-20.561-21.385c0-13.875,9.146-21.14,20.803-21.058c5.343,0,10.442,2.53,12.709,6.529L251.298,98.971z
			 M227.337,119.049c0,7.673,5.262,12.243,11.818,12.243c15.542,0,15.542-24.404,0-24.404
			C232.599,106.888,227.337,111.377,227.337,119.049z"/>
		<path fill="#F1F1F2" d="M278.251,98.971l0.729,4.652c3.076-4.979,7.205-5.714,11.252-5.714c4.129,0,8.095,1.633,10.28,3.837
			l-4.452,8.651c-2.023-1.714-3.886-2.612-7.123-2.612c-5.181,0-9.957,2.775-9.957,10.203v21.221h-9.875V98.971H278.251z"/>
		<path fill="#F1F1F2" d="M303.101,99.216c0.081-12.08,10.199-17.467,21.613-17.467c11.414,0,21.937,4.979,21.694,17.222
			c0,11.835-10.767,13.059-15.461,16.242c-2.187,1.469-3.076,3.755-3.076,7.591v0.408h-10.685v-0.49
			c0.081-11.182,4.614-13.712,8.904-15.997s9.229-2.938,9.229-7.836c0-6.284-5.748-7.754-10.767-7.754
			c-5.18,0-10.523,2.938-10.603,8.081H303.101z M328.922,133.088c0,8.569-12.951,8.569-12.951,0
			C315.972,124.436,328.922,124.436,328.922,133.088z"/>
	</g>
</g>
</svg>
