<?xml version="1.0" encoding="utf-8"?>
<!-- Generator: Adobe Illustrator 16.0.0, SVG Export Plug-In . SVG Version: 6.00 Build 0)  -->
<!DOCTYPE svg PUBLIC "-//W3C//DTD SVG 1.1//EN" "http://www.w3.org/Graphics/SVG/1.1/DTD/svg11.dtd">
<svg version="1.1" id="Layer_1" xmlns="http://www.w3.org/2000/svg" xmlns:xlink="http://www.w3.org/1999/xlink" x="0px" y="0px"
	 width="88.707px" height="88.709px" viewBox="0 0 88.707 88.709" enable-background="new 0 0 88.707 88.709" xml:space="preserve">
<g>
	<g>
		<g>
			<g>
				<path fill="#FFFFFF" d="M44.353,88.479c-24.33,0-44.124-19.795-44.124-44.124c0-24.332,19.794-44.125,44.124-44.125
					s44.126,19.793,44.126,44.125C88.479,68.684,68.683,88.479,44.353,88.479z M44.353,6.637c-20.797,0-37.717,16.919-37.717,37.719
					c0,20.796,16.92,37.716,37.717,37.716s37.72-16.92,37.72-37.716C82.072,23.556,65.149,6.637,44.353,6.637z"/>
			</g>
		</g>
	</g>
	<g>
		<path fill="#FFFFFF" d="M29.865,37.602c0.05-7.457,7.104-10.682,13.604-10.682c7.054,0,14.712,2.872,14.712,11.236
			c0,8.968-6.751,10.682-14.157,10.682c-2.923,0-7.659,0.755-7.659,4.585v3.023h21.918v6.197H29.714c0-3.073,0-6.147,0-9.271
			c0-8.112,7.356-10.531,14.31-10.531c2.67,0,7.558-0.453,7.558-4.535c0-3.829-3.477-5.643-8.012-5.643
			c-3.477,0-7.054,1.764-7.104,4.938H29.865z"/>
	</g>
</g>
</svg>
