<?xml version="1.0" encoding="utf-8"?>
<!-- Generator: Adobe Illustrator 16.0.0, SVG Export Plug-In . SVG Version: 6.00 Build 0)  -->
<!DOCTYPE svg PUBLIC "-//W3C//DTD SVG 1.1//EN" "http://www.w3.org/Graphics/SVG/1.1/DTD/svg11.dtd">
<svg version="1.1" id="Layer_1" xmlns="http://www.w3.org/2000/svg" xmlns:xlink="http://www.w3.org/1999/xlink" x="0px" y="0px"
	 width="95.909px" height="15.75px" viewBox="0 0 95.909 15.75" enable-background="new 0 0 95.909 15.75" xml:space="preserve">
<g>
	<g>
		<path fill-rule="evenodd" clip-rule="evenodd" fill="#FFFFFF" d="M8.002,14.112c0.232-1.27,0.459-2.54,0.701-3.809
			c0.322-1.695,0.656-3.39,0.902-5.131C9.277,5.666,8.951,6.157,8.623,6.646c-0.76,1.134-0.771,1.173-2.09,0.79
			C5.703,7.192,4.91,6.819,4.107,6.484C3.914,6.401,3.74,6.249,3.578,6.105C2.594,5.24,2.6,4.298,3.615,3.467
			c0.928-0.759,2.043-1.121,3.191-1.365c3.148-0.674,6.291-0.659,9.369,0.347c0.779,0.253,1.543,0.688,2.18,1.207
			c0.883,0.713,0.791,1.688-0.092,2.427c-0.988,0.826-2.174,1.22-3.402,1.45c-1.219,0.227-2.459,0.342-3.525,0.482
			c0.633,0.167,1.449,0.352,2.246,0.601c0.805,0.253,1.574,0.599,2.188,1.21c0.76,0.758,0.762,1.581-0.023,2.32
			c-0.895,0.844-2.023,1.212-3.18,1.483c-0.756,0.177-1.533,0.263-2.301,0.392c-0.102,0.018-0.199,0.061-0.299,0.092
			C9.312,14.112,8.656,14.112,8.002,14.112z"/>
		<path fill-rule="evenodd" clip-rule="evenodd" fill="#FFFFFF" d="M95.701,12.241c-0.188-0.017-0.371-0.045-0.555-0.045
			c-2.605-0.002-5.207-0.002-7.809-0.002c-0.188,0-0.371,0-0.586,0c0-2.962,0-5.881,0-8.845c3.004,0,5.975,0,8.949,0
			c0,0.561,0,1.122,0,1.684c-2.189,0-4.379,0-6.566,0c0,0.665,0,1.265,0,1.933c1.703,0,3.371,0,5.029,0c0,0.559,0,1.048,0,1.59
			c-1.689,0-3.348,0-5.027,0c0,0.557,0,1.06,0,1.625c2.211,0,4.387,0,6.564,0C95.701,10.867,95.701,11.554,95.701,12.241z"/>
		<path fill-rule="evenodd" clip-rule="evenodd" fill="#FFFFFF" d="M21.398,12.234c0-2.971,0-5.895,0-8.881c0.176,0,0.34,0,0.504,0
			c2.4,0,4.801-0.001,7.201,0c1.355,0.002,2.352,0.996,2.373,2.347c0.01,0.665-0.057,1.3-0.406,1.894
			c-0.072,0.123-0.012,0.374,0.062,0.529c0.508,1.069,0.625,2.13-0.131,3.122c-0.494,0.648-1.16,1.001-2.014,0.995
			c-2.354-0.016-4.709-0.006-7.062-0.006C21.758,12.234,21.592,12.234,21.398,12.234z M23.281,6.884
			c0.15,0.012,0.254,0.026,0.359,0.026c1.588,0.001,3.174,0.004,4.762,0c0.674-0.001,1.027-0.307,1.033-0.872
			c0.008-0.598-0.35-0.916-1.035-0.916c-1.557-0.003-3.111-0.001-4.668,0c-0.146,0-0.293,0.017-0.451,0.024
			C23.281,5.745,23.281,6.287,23.281,6.884z M23.297,10.376c0.133,0.016,0.223,0.036,0.314,0.036
			c1.619,0.001,3.238,0.008,4.857-0.002c0.641-0.004,0.975-0.324,0.967-0.885c-0.006-0.559-0.342-0.857-0.988-0.859
			c-1.588-0.003-3.176-0.002-4.762,0c-0.121,0-0.242,0.019-0.389,0.03C23.297,9.257,23.297,9.793,23.297,10.376z"/>
		<path fill-rule="evenodd" clip-rule="evenodd" fill="#FFFFFF" d="M59.953,3.288c0.977,0.052,1.975-0.008,2.926,0.178
			c1.781,0.346,2.975,1.921,2.973,3.741c0,0.621,0.043,1.258-0.074,1.861c-0.354,1.827-1.809,3.032-3.799,3.11
			c-1.461,0.056-2.93,0.044-4.391-0.037c-1.971-0.107-3.523-1.82-3.527-3.793c0-0.638-0.027-1.288,0.088-1.907
			c0.324-1.803,1.91-3.088,3.744-3.104c0.686-0.006,1.371-0.001,2.059-0.001C59.951,3.32,59.953,3.306,59.953,3.288z M59.965,10.319
			v-0.002c0.467,0,0.934,0.022,1.402-0.005c1.328-0.077,2.391-1.192,2.42-2.517c0.031-1.306-1.006-2.496-2.334-2.583
			c-0.961-0.064-1.934-0.064-2.895-0.012c-1.447,0.081-2.453,1.248-2.4,2.695c0.049,1.348,1.176,2.403,2.59,2.423
			C59.154,10.325,59.559,10.319,59.965,10.319z"/>
		<path fill-rule="evenodd" clip-rule="evenodd" fill="#FFFFFF" d="M68.203,12.165c-0.639,0-1.223,0-1.84,0c0-2.928,0-5.834,0-8.799
			c0.135-0.008,0.283-0.028,0.43-0.028c2.293-0.001,4.584-0.005,6.875,0c1.576,0.003,2.641,1.196,2.49,2.777
			c-0.002,0.016-0.004,0.03-0.006,0.046c-0.156,1.717-0.65,2.196-2.363,2.289c-0.09,0.005-0.182,0.014-0.383,0.026
			c0.963,1.251,1.877,2.437,2.857,3.711c-0.846,0-1.598,0.01-2.354-0.012c-0.105-0.004-0.225-0.149-0.305-0.253
			c-0.816-1.045-1.637-2.084-2.43-3.145c-0.211-0.286-0.438-0.383-0.781-0.37c-0.711,0.022-1.426,0.006-2.191,0.006
			C68.203,9.691,68.203,10.914,68.203,12.165z M68.199,6.76c1.779,0,3.508,0.019,5.234-0.021c0.242-0.005,0.562-0.23,0.695-0.445
			c0.371-0.597-0.062-1.27-0.801-1.275c-1.635-0.012-3.271-0.003-4.908-0.002c-0.07,0-0.145,0.024-0.221,0.039
			C68.199,5.621,68.199,6.16,68.199,6.76z"/>
		<path fill-rule="evenodd" clip-rule="evenodd" fill="#FFFFFF" d="M51.906,8.897c0-1.894,0-3.684,0-5.509c0.555,0,1.09,0,1.656,0
			c0,2.926,0,5.847,0,8.8c-0.547,0-1.082,0-1.654,0c0.121-0.474-0.213-0.665-0.512-0.894c-1.867-1.405-3.727-2.819-5.592-4.229
			c-0.131-0.101-0.27-0.189-0.475-0.333c0,1.862,0,3.644,0,5.457c-0.602,0-1.152,0-1.73,0c0-2.939,0-5.86,0-8.819
			c0.555,0,1.107,0,1.506,0c0.293,0.343,0.48,0.649,0.744,0.859c1.863,1.462,3.74,2.905,5.613,4.354
			C51.58,8.677,51.709,8.758,51.906,8.897z"/>
		<path fill-rule="evenodd" clip-rule="evenodd" fill="#FFFFFF" d="M42.973,12.221c-0.725,0-1.348,0.016-1.971-0.013
			c-0.143-0.006-0.338-0.141-0.412-0.271c-0.266-0.475-0.504-0.966-0.729-1.462c-0.111-0.244-0.25-0.348-0.527-0.347
			c-1.312,0.015-2.621,0.017-3.93,0c-0.283-0.003-0.424,0.11-0.549,0.337c-0.264,0.477-0.529,0.955-0.834,1.405
			c-0.104,0.151-0.32,0.298-0.492,0.309c-0.59,0.039-1.184,0.015-1.826,0.015c0.072-0.15,0.129-0.288,0.199-0.419
			c1.492-2.681,2.994-5.356,4.477-8.044c0.166-0.299,0.357-0.367,0.684-0.413c0.805-0.113,1.197,0.226,1.562,0.925
			c1.316,2.512,2.715,4.978,4.082,7.462C42.787,11.85,42.861,12.002,42.973,12.221z M37.258,5.791
			c-0.447,0.875-0.852,1.67-1.27,2.485c0.906,0,1.752,0,2.686,0C38.191,7.43,37.752,6.654,37.258,5.791z"/>
		<path fill-rule="evenodd" clip-rule="evenodd" fill="#FFFFFF" d="M76.686,5.274c0-0.661,0-1.263,0-1.9c2.955,0,5.877,0,8.83,0
			c0,0.605,0,1.206,0,1.874c-1.111,0-2.225,0-3.377,0c0,2.336,0,4.608,0,6.912c-0.674,0-1.303,0-1.986,0c0-2.286,0-4.556,0-6.886
			C78.971,5.274,77.844,5.274,76.686,5.274z"/>
	</g>
	<path fill-rule="evenodd" clip-rule="evenodd" fill="#FFFFFF" d="M7.75,7.938c-0.873,1.303-1.748,2.605-2.621,3.91
		c-0.268,0.398-0.539,0.8-0.807,1.201c-0.398,0.6-0.42,0.651-1.096,0.365c-0.793-0.336-1.613-0.684-2.297-1.189
		c-0.992-0.729-0.936-1.771,0.018-2.553C2.057,8.764,3.395,8.399,4.76,8.15c0.973-0.177,1.961-0.249,2.943-0.367
		C7.721,7.835,7.734,7.886,7.75,7.938z"/>
</g>
</svg>
