<?xml version="1.0" encoding="utf-8"?>
<!-- Generator: Adobe Illustrator 16.0.0, SVG Export Plug-In . SVG Version: 6.00 Build 0)  -->
<!DOCTYPE svg PUBLIC "-//W3C//DTD SVG 1.1//EN" "http://www.w3.org/Graphics/SVG/1.1/DTD/svg11.dtd">
<svg version="1.1" id="Layer_1" xmlns="http://www.w3.org/2000/svg" xmlns:xlink="http://www.w3.org/1999/xlink" x="0px" y="0px"
	 width="93.793px" height="21.135px" viewBox="0 0 93.793 21.135" enable-background="new 0 0 93.793 21.135" xml:space="preserve">
<g>
	<path fill-rule="evenodd" clip-rule="evenodd" fill="#FFFFFF" d="M1.049,1.311c7.687,0,15.357,0,23.046,0
		c0,6.169,0,12.333,0,18.514c-7.678,0-15.355,0-23.046,0C1.049,13.658,1.049,7.499,1.049,1.311z M11.418,9.895
		c0.141-0.22,0.271-0.413,0.393-0.614c0.165-0.276,0.267-0.581,0.229-0.904c-0.069-0.598-0.521-1.033-1.146-1.055
		C9.904,7.29,8.913,7.299,7.923,7.289c-0.139-0.002-0.18,0.06-0.18,0.191c0.002,2.057,0.003,4.114,0,6.169
		c-0.001,0.146,0.048,0.202,0.195,0.2c0.854-0.004,1.709,0.003,2.562-0.006c0.218-0.002,0.438-0.027,0.65-0.076
		c1.374-0.304,2.034-1.79,1.313-2.96C12.217,10.405,11.855,10.121,11.418,9.895z M2.271,7.317c-0.007,0.026-0.02,0.049-0.02,0.069
		c-0.003,2.101-0.003,4.201-0.008,6.303c0,0.14,0.073,0.159,0.184,0.159c0.863-0.001,1.723,0.003,2.584-0.006
		c0.203-0.001,0.409-0.024,0.605-0.07c0.788-0.187,1.349-0.648,1.57-1.439c0.213-0.768-0.027-1.431-0.602-1.968
		c-0.194-0.183-0.428-0.327-0.653-0.495c0.135-0.212,0.282-0.422,0.404-0.645C6.849,8.284,6.368,7.371,5.301,7.32
		C4.335,7.275,3.366,7.296,2.399,7.291C2.357,7.291,2.312,7.307,2.271,7.317z M23.273,13.845c-0.021-0.079-0.026-0.114-0.038-0.147
		c-0.632-1.893-1.261-3.788-1.896-5.68c-0.05-0.148-0.133-0.288-0.212-0.424c-0.1-0.173-0.25-0.279-0.459-0.285
		c-0.407-0.007-0.815-0.008-1.223-0.022c-0.156-0.007-0.227,0.055-0.271,0.199c-0.64,2.056-1.285,4.11-1.927,6.164
		c-0.018,0.054-0.021,0.112-0.036,0.195c0.327,0,0.628,0.009,0.927-0.007c0.056-0.003,0.129-0.093,0.152-0.157
		c0.131-0.361,0.251-0.726,0.369-1.092c0.037-0.116,0.09-0.169,0.223-0.168c0.665,0.007,1.329,0.006,1.993,0.001
		c0.13-0.001,0.187,0.042,0.219,0.167c0.093,0.365,0.194,0.728,0.305,1.086c0.02,0.066,0.095,0.162,0.146,0.163
		C22.109,13.849,22.675,13.845,23.273,13.845z M18.019,7.29c-0.312,0-0.576,0.007-0.84-0.003c-0.162-0.008-0.236,0.049-0.285,0.21
		c-0.295,1.005-0.6,2.005-0.903,3.009c-0.164,0.543-0.331,1.084-0.508,1.664c-0.031-0.084-0.049-0.124-0.062-0.166
		c-0.275-0.956-0.547-1.914-0.826-2.867c-0.136-0.463-0.281-0.922-0.431-1.381c-0.103-0.318-0.326-0.474-0.668-0.466
		c-0.338,0.006-0.68-0.001-1.019,0.001c-0.05,0.001-0.098,0.021-0.144,0.031c0.003,0.032,0,0.049,0.005,0.062
		c0.686,2.105,1.375,4.212,2.057,6.318c0.044,0.139,0.127,0.146,0.238,0.146c0.394,0,0.786-0.007,1.18,0.004
		c0.174,0.004,0.245-0.057,0.296-0.227c0.445-1.502,0.899-3.001,1.354-4.502C17.645,8.528,17.823,7.932,18.019,7.29z"/>
	<path fill-rule="evenodd" clip-rule="evenodd" fill="#FFFFFF" d="M79.009,15.2c-0.58,0-1.129,0-1.705,0c0-0.1,0-0.187,0-0.275
		c0-1.475,0.002-2.948,0-4.424c-0.001-0.142-0.016-0.286-0.043-0.426c-0.167-0.866-1.017-1.192-1.733-0.665
		c-0.479,0.354-0.698,0.871-0.814,1.421c-0.104,0.498-0.169,1.011-0.188,1.519c-0.028,0.861-0.007,1.724-0.007,2.585
		c0,0.082,0,0.164,0,0.262c-0.558,0-1.099,0-1.662,0c-0.006-0.098-0.016-0.192-0.016-0.288c0-1.291,0.004-2.584-0.004-3.878
		c-0.002-0.324-0.032-0.648-0.066-0.969c-0.085-0.848-0.822-1.022-1.438-0.808c-0.401,0.141-0.662,0.438-0.856,0.801
		c-0.321,0.593-0.472,1.238-0.491,1.906c-0.03,0.997-0.025,1.993-0.035,2.991c0,0.075,0,0.149,0,0.242c-0.53,0-1.04,0-1.569,0
		c0-2.289,0-4.583,0-6.893c0.508,0,1.018,0,1.583,0c0,0.537,0,1.075,0,1.613c0.029,0.005,0.059,0.008,0.086,0.014
		c0.029-0.062,0.062-0.124,0.089-0.188c0.446-1.026,1.224-1.604,2.347-1.62c0.899-0.014,1.685,0.354,1.922,1.37
		c0.006,0.021,0.012,0.043,0.016,0.065c0.021,0.09,0.043,0.18,0.062,0.269c0.062-0.074,0.14-0.141,0.185-0.226
		c0.382-0.73,0.929-1.269,1.765-1.424c0.637-0.116,1.27-0.094,1.826,0.293c0.478,0.331,0.674,0.836,0.696,1.386
		c0.042,1.04,0.04,2.083,0.051,3.127C79.015,13.713,79.009,14.446,79.009,15.2z"/>
	<path fill-rule="evenodd" clip-rule="evenodd" fill="#FFFFFF" d="M28.812,15.21c0-3.082,0-6.125,0-9.186
		c0.084-0.006,0.157-0.015,0.23-0.015c1.036,0.002,2.072-0.014,3.107,0.016c0.661,0.021,1.312,0.134,1.931,0.404
		c1.457,0.637,1.395,2.556,0.372,3.292c-0.297,0.215-0.665,0.337-1.002,0.497c-0.068,0.033-0.147,0.051-0.222,0.076
		c0,0.021,0,0.043-0.001,0.063c0.062,0.021,0.123,0.049,0.186,0.061c0.57,0.104,1.113,0.269,1.562,0.657
		c0.548,0.476,0.722,1.101,0.686,1.792c-0.076,1.396-1,1.92-2.049,2.146c-0.586,0.125-1.193,0.167-1.794,0.187
		c-0.915,0.03-1.83,0.009-2.744,0.009C28.993,15.21,28.91,15.21,28.812,15.21z M30.555,12.607c0,0.528,0.007,1.058-0.003,1.587
		c-0.003,0.17,0.052,0.224,0.22,0.218c0.474-0.022,0.951-0.011,1.423-0.054c0.476-0.043,0.944-0.149,1.303-0.5
		c0.505-0.492,0.565-1.116,0.424-1.76c-0.137-0.618-0.598-0.937-1.173-1.104c-0.644-0.187-1.309-0.179-1.973-0.187
		c-0.187-0.003-0.227,0.063-0.224,0.235C30.561,11.565,30.555,12.085,30.555,12.607z M30.57,6.776c0,1.093,0,2.107,0,3.19
		c0.603-0.052,1.191-0.062,1.765-0.162c0.511-0.088,0.896-0.399,1.023-0.935c0.055-0.238,0.076-0.492,0.066-0.737
		c-0.031-0.655-0.376-1.096-1.017-1.202C31.812,6.83,31.2,6.824,30.57,6.776z"/>
	<path fill-rule="evenodd" clip-rule="evenodd" fill="#FFFFFF" d="M46.298,15.2c-0.09,0.005-0.148,0.011-0.208,0.011
		c-0.513,0-1.026,0-1.558,0c0-2.337,0-4.663,0-7c0.586,0,1.163,0,1.765,0c0,0.556,0,1.101,0,1.698
		c0.207-0.284,0.368-0.538,0.56-0.763c0.756-0.891,1.723-1.248,2.869-1.04c0.778,0.143,1.365,0.801,1.47,1.585
		c0.029,0.224,0.045,0.45,0.045,0.676c0.005,1.512,0.002,3.023,0.002,4.535c0,0.089,0,0.181,0,0.289c-0.562,0-1.116,0-1.697,0
		c0-0.092,0-0.181,0-0.269c-0.002-1.458,0-2.917-0.011-4.376c-0.002-0.23-0.037-0.468-0.095-0.69c-0.172-0.65-0.691-0.9-1.402-0.694
		c-0.543,0.155-0.907,0.528-1.172,1.001c-0.368,0.655-0.563,1.361-0.566,2.113C46.293,13.245,46.298,14.209,46.298,15.2z"/>
	<path fill-rule="evenodd" clip-rule="evenodd" fill="#FFFFFF" d="M38.886,10.171c-0.613,0-1.208,0-1.82,0
		c0.1-0.814,0.393-1.504,1.192-1.812c1.157-0.442,2.344-0.449,3.512-0.039c0.743,0.26,1.135,0.862,1.158,1.61
		c0.054,1.735,0.041,3.475,0.053,5.212c0,0.014-0.01,0.026-0.021,0.055c-0.543,0-1.091,0-1.671,0c0-0.29,0-0.577,0-0.866
		c-0.022-0.013-0.045-0.023-0.066-0.034c-0.055,0.067-0.103,0.14-0.164,0.201c-0.821,0.844-2.162,1.12-3.212,0.659
		c-0.498-0.217-0.9-0.551-1.045-1.09c-0.184-0.672,0.012-1.256,0.54-1.711c0.554-0.479,1.236-0.679,1.938-0.799
		c0.547-0.091,1.104-0.128,1.657-0.19c0.11-0.014,0.22-0.031,0.391-0.056c-0.047-0.613-0.035-1.223-0.15-1.806
		c-0.188-0.943-1.068-1.016-1.662-0.768c-0.402,0.169-0.494,0.562-0.563,0.945C38.923,9.838,38.909,9.996,38.886,10.171z
		 M41.312,11.889c-0.5,0.09-0.933,0.146-1.353,0.251c-0.383,0.098-0.732,0.282-0.958,0.633c-0.426,0.659-0.104,1.589,0.584,1.683
		c0.748,0.104,1.493-0.383,1.638-1.134C41.308,12.877,41.282,12.413,41.312,11.889z"/>
	<path fill-rule="evenodd" clip-rule="evenodd" fill="#FFFFFF" d="M59.837,11.702c0.028-0.594,0.096-1.172,0.309-1.73
		c0.438-1.131,1.307-1.692,2.46-1.862c0.713-0.104,1.429-0.098,2.131,0.087c1.224,0.317,1.976,1.098,2.257,2.329
		c0.203,0.892,0.188,1.781-0.066,2.656c-0.326,1.122-1.096,1.802-2.222,2.054c-0.899,0.2-1.808,0.202-2.703-0.061
		c-1.155-0.336-1.794-1.138-2.023-2.285C59.9,12.498,59.883,12.098,59.837,11.702z M65.296,11.714
		c-0.02-0.284-0.037-0.569-0.061-0.856c-0.039-0.482-0.145-0.951-0.375-1.38c-0.369-0.687-1.038-0.983-1.791-0.802
		c-0.571,0.137-0.896,0.545-1.072,1.066c-0.406,1.212-0.383,2.444-0.093,3.675c0.122,0.519,0.363,0.988,0.88,1.22
		c0.778,0.347,1.811,0.14,2.221-0.988C65.233,13.024,65.28,12.373,65.296,11.714z"/>
	<path fill-rule="evenodd" clip-rule="evenodd" fill="#FFFFFF" d="M87.193,10.902c-1.675,0-3.304,0-4.933,0
		c-0.078,2.169,1.424,4.485,4.697,3.515c0.068,0.158,0.137,0.319,0.214,0.496c-1.448,0.468-2.883,0.676-4.335,0.161
		c-1.15-0.404-1.855-1.225-2.14-2.408c-0.192-0.795-0.208-1.595-0.034-2.394c0.234-1.081,0.891-1.788,1.959-2.061
		c0.964-0.245,1.942-0.256,2.896,0.071c0.959,0.329,1.47,1.032,1.613,2.021C87.158,10.487,87.171,10.675,87.193,10.902z
		 M85.479,10.226c0.005-1.093-0.653-1.686-1.743-1.593c-0.833,0.07-1.515,0.846-1.388,1.593
		C83.385,10.226,84.425,10.226,85.479,10.226z"/>
	<path fill-rule="evenodd" clip-rule="evenodd" fill="#FFFFFF" d="M58.962,10.422c-0.624,0-1.225,0-1.831,0
		c-0.025-0.283-0.032-0.554-0.076-0.819c-0.08-0.494-0.326-0.863-0.855-0.952c-0.54-0.091-1.003,0.049-1.345,0.5
		c-0.252,0.334-0.372,0.725-0.426,1.129c-0.126,0.948-0.001,1.864,0.421,2.728c0.591,1.208,1.691,1.784,3.031,1.589
		c0.303-0.042,0.604-0.106,0.93-0.164c0.057,0.11,0.125,0.242,0.201,0.394c-0.489,0.239-0.984,0.449-1.513,0.511
		c-1.103,0.124-2.184-0.002-3.191-0.496c-1.061-0.521-1.616-1.411-1.776-2.563c-0.096-0.699-0.098-1.399,0.099-2.085
		c0.29-1.005,0.934-1.675,1.947-1.954c1.004-0.278,2.014-0.287,3.003,0.053c0.815,0.279,1.25,0.882,1.335,1.736
		C58.927,10.154,58.944,10.279,58.962,10.422z"/>
	<path fill-rule="evenodd" clip-rule="evenodd" fill="#FFFFFF" d="M90.083,15.2c-0.08,0.005-0.133,0.011-0.184,0.011
		c-0.482,0-0.965,0-1.466,0c0-2.307,0-4.601,0-6.909c0.54,0,1.079,0,1.65,0c0,0.549,0,1.093,0,1.636
		c0.021,0.013,0.04,0.025,0.059,0.04c0.58-1.021,1.32-1.812,2.602-1.837c0,0.478,0,0.941,0,1.401
		c-0.374,0.061-0.748,0.098-1.108,0.188c-0.927,0.229-1.473,0.874-1.506,1.821c-0.038,1.109-0.033,2.221-0.047,3.331
		C90.082,14.979,90.083,15.076,90.083,15.2z"/>
	<path fill-rule="evenodd" clip-rule="evenodd" fill="#FFFFFF" d="M10.205,10.196c0.826,0.428,1.102,1.033,0.863,1.863
		c-0.19,0.66-0.747,0.953-1.686,0.868c-0.005-0.081-0.019-0.167-0.019-0.253C9.36,11.27,9.365,9.865,9.357,8.46
		c0-0.196,0.039-0.295,0.263-0.271c0.178,0.021,0.361,0,0.542,0.007c0.565,0.024,0.873,0.528,0.63,1.034
		c-0.081,0.17-0.19,0.326-0.287,0.486C10.406,9.877,10.305,10.035,10.205,10.196z"/>
	<path fill-rule="evenodd" clip-rule="evenodd" fill="#FFFFFF" d="M4.703,10.201c0.825,0.409,1.104,1.029,0.852,1.885
		c-0.188,0.645-0.795,0.948-1.688,0.837c0-1.564,0-3.132,0-4.723c0.296,0,0.592-0.029,0.879,0.009
		c0.525,0.065,0.779,0.55,0.538,1.023C5.114,9.565,4.898,9.878,4.703,10.201z"/>
	<path fill-rule="evenodd" clip-rule="evenodd" fill="#FFFFFF" d="M19.903,8.594c0.273,0.943,0.547,1.886,0.825,2.85
		c-0.606,0-1.177,0-1.773,0c0.304-0.96,0.603-1.904,0.9-2.849C19.872,8.594,19.888,8.594,19.903,8.594z"/>
</g>
</svg>
