<?xml version="1.0" encoding="utf-8"?>
<!-- Generator: Adobe Illustrator 16.0.0, SVG Export Plug-In . SVG Version: 6.00 Build 0)  -->
<!DOCTYPE svg PUBLIC "-//W3C//DTD SVG 1.1//EN" "http://www.w3.org/Graphics/SVG/1.1/DTD/svg11.dtd">
<svg version="1.1" id="Layer_1" xmlns="http://www.w3.org/2000/svg" xmlns:xlink="http://www.w3.org/1999/xlink" x="0px" y="0px"
	 width="88.707px" height="88.709px" viewBox="0 0 88.707 88.709" enable-background="new 0 0 88.707 88.709" xml:space="preserve">
<g>
	<g>
		<g>
			<path fill="#FFFFFF" d="M44.353,88.479c-24.33,0-44.124-19.795-44.124-44.124c0-24.332,19.794-44.125,44.124-44.125
				s44.126,19.793,44.126,44.125C88.479,68.684,68.683,88.479,44.353,88.479z M44.353,6.637c-20.797,0-37.717,16.919-37.717,37.719
				c0,20.796,16.92,37.716,37.717,37.716s37.72-16.92,37.72-37.716C82.072,23.556,65.149,6.637,44.353,6.637z"/>
		</g>
	</g>
	<g>
		<path fill="#FFFFFF" d="M38.763,46.852v-5.441h5.09c3.578,0,7.355-0.958,7.406-4.232c0-2.016-1.611-4.687-7.256-4.687
			c-3.123,0-7.355,1.109-7.355,4.334h-6.65c0-7.608,7.557-10.38,14.057-10.38c6.65,0,13.805,3.225,13.855,10.732
			c0,2.771-1.812,5.995-4.887,6.953c3.375,1.108,5.744,4.434,5.744,7.406c0,8.615-8.111,11.186-14.914,11.186
			c-6.701,0-14.359-2.822-14.41-10.833h6.701c0,3.628,4.887,4.888,7.76,4.888c3.375,0,7.859-1.411,7.859-5.19
			c0-2.115-1.158-4.735-7.508-4.735H38.763z"/>
	</g>
</g>
</svg>
