<?xml version="1.0" encoding="utf-8"?>
<!-- Generator: Adobe Illustrator 16.0.0, SVG Export Plug-In . SVG Version: 6.00 Build 0)  -->
<!DOCTYPE svg PUBLIC "-//W3C//DTD SVG 1.1//EN" "http://www.w3.org/Graphics/SVG/1.1/DTD/svg11.dtd">
<svg version="1.1" id="Layer_1" xmlns="http://www.w3.org/2000/svg" xmlns:xlink="http://www.w3.org/1999/xlink" x="0px" y="0px"
	 width="88.707px" height="88.709px" viewBox="0 0 88.707 88.709" enable-background="new 0 0 88.707 88.709" xml:space="preserve">
<g>
	<g>
		<g>
			<g>
				<path fill="#FFFFFF" d="M44.353,88.479c-24.33,0-44.124-19.795-44.124-44.124c0-24.332,19.794-44.125,44.124-44.125
					s44.126,19.793,44.126,44.125C88.479,68.684,68.683,88.479,44.353,88.479z M44.353,6.637c-20.797,0-37.717,16.919-37.717,37.719
					c0,20.796,16.92,37.716,37.717,37.716s37.72-16.92,37.72-37.716C82.072,23.556,65.149,6.637,44.353,6.637z"/>
			</g>
		</g>
	</g>
	<g>
		<path fill="#FFFFFF" d="M36.064,56.116h5.291v-23.58h-5.492V26.49h12.092v29.626h4.889v5.644H36.064V56.116z"/>
	</g>
</g>
</svg>
