<?xml version="1.0" encoding="utf-8"?>
<!-- Generator: Adobe Illustrator 16.0.0, SVG Export Plug-In . SVG Version: 6.00 Build 0)  -->
<!DOCTYPE svg PUBLIC "-//W3C//DTD SVG 1.1//EN" "http://www.w3.org/Graphics/SVG/1.1/DTD/svg11.dtd">
<svg version="1.1" id="Layer_1" xmlns="http://www.w3.org/2000/svg" xmlns:xlink="http://www.w3.org/1999/xlink" x="0px" y="0px"
	 width="161.641px" height="282px" viewBox="0 0 161.641 282" enable-background="new 0 0 161.641 282" xml:space="preserve">
<g>
	
		<path fill="#26A9E0" stroke="#231F20" stroke-width="5" stroke-linecap="round" stroke-linejoin="round" stroke-miterlimit="10" d="
		M24.392,195.288l1.753,50.858l50.371,24.092l-5.349-121.477l32.875,43.164l41.487-30.566L88.1,102.367
		c0,0,26.51-11.067,36.034-36.68c9.523-25.611-14.376-45.226-26.556-49.879C85.4,11.155,47.355,13.788,37.406,41.918
		c-9.95,28.131,9.127,45.628,9.127,45.628l-21.689,0.382L24.392,195.288z"/>
	<path fill="none" stroke="#231F20" stroke-width="6" stroke-linecap="round" stroke-linejoin="round" stroke-miterlimit="10" d="
		M60.909,56.27c0,0,2.382,14.662,13.744,18.372c11.362,3.709,21.644-4.356,21.644-4.356"/>
	<g>
		<path fill="#231F20" d="M77.084,37.332c-2.498-0.423-4.875,1.265-5.299,3.763c-0.423,2.498,1.266,4.876,3.764,5.299
			c2.498,0.424,4.875-1.265,5.299-3.764C81.27,40.131,79.582,37.756,77.084,37.332z"/>
		<path fill="#231F20" d="M95.074,44.026c-2.498-0.423-4.875,1.266-5.298,3.764c-0.424,2.498,1.264,4.874,3.764,5.298
			c2.498,0.423,4.873-1.265,5.297-3.764C99.259,46.826,97.571,44.449,95.074,44.026z"/>
	</g>
</g>
</svg>
