<?xml version="1.0" encoding="utf-8"?>
<!-- Generator: Adobe Illustrator 16.0.0, SVG Export Plug-In . SVG Version: 6.00 Build 0)  -->
<!DOCTYPE svg PUBLIC "-//W3C//DTD SVG 1.1//EN" "http://www.w3.org/Graphics/SVG/1.1/DTD/svg11.dtd">
<svg version="1.1" id="Layer_1" xmlns="http://www.w3.org/2000/svg" xmlns:xlink="http://www.w3.org/1999/xlink" x="0px" y="0px"
	 width="612px" height="231.191px" viewBox="0 0 612 231.191" enable-background="new 0 0 612 231.191" xml:space="preserve">
<g>
	<defs>
		<rect id="SVGID_1_" x="-658.854" y="-249.42" width="612" height="303.436"/>
	</defs>
	<clipPath id="SVGID_2_">
		<use xlink:href="#SVGID_1_"  overflow="visible"/>
	</clipPath>
	<g clip-path="url(#SVGID_2_)">
	</g>
</g>
<g>
	<defs>
		<rect id="SVGID_3_" x="0.265" y="-251.319" width="612" height="223.604"/>
	</defs>
	<clipPath id="SVGID_4_">
		<use xlink:href="#SVGID_3_"  overflow="visible"/>
	</clipPath>
	<g opacity="0.7" clip-path="url(#SVGID_4_)">
		<g opacity="0.2">
			<g>
				<g>
					<g>
						<path fill="#327599" d="M-11.116,94.234c-0.135-0.015-0.27-0.048-0.398-0.1l-22.066-8.879
							c-0.511-0.205-0.864-0.678-0.918-1.229l-1.829-18.573l-12.987,12.224c-0.439,0.412-1.088,0.517-1.637,0.268l-22.979-10.618
							c-0.453-0.208-0.769-0.631-0.844-1.128c-0.071-0.49,0.107-0.99,0.481-1.321l32.144-28.651L-60.884,41.3
							c-0.414,0.113-0.855,0.04-1.209-0.198c-0.357-0.237-0.592-0.617-0.648-1.041l-2.721-21.087
							c-0.053-0.402,0.062-0.808,0.318-1.122c0.255-0.316,0.629-0.513,1.029-0.543l32.268-2.626
							c-2.508-3.173-5.869-9.435-3.348-18.325c3.485-12.287,17.955-14.864,24.417-14.188c0.877,0.091,1.659,0.242,2.322,0.448
							C-1.97-15.367,8.681-6.749,5.161,4.942C2.48,13.847-4.663,19.22-8.076,21.354L16.421,43.51
							c0.317,0.286,0.496,0.697,0.488,1.124c-0.008,0.429-0.199,0.832-0.527,1.107l-16.81,14.118
							c-0.619,0.521-1.541,0.447-2.069-0.163l-12.047-13.889l5.036,46.625c0.035,0.155,0.046,0.317,0.028,0.484
							c-0.085,0.813-0.812,1.403-1.626,1.319C-11.108,94.236-11.112,94.234-11.116,94.234z M-31.64,82.846l18.939,7.62
							l-5.296-49.042c-0.071-0.645,0.288-1.259,0.88-1.515c0.594-0.259,1.287-0.101,1.709,0.388l14.19,16.358l14.393-12.089
							l-24.75-22.386c-0.366-0.326-0.54-0.814-0.474-1.302c0.067-0.483,0.37-0.906,0.811-1.122
							c0.102-0.05,10.439-5.295,13.563-15.668C5.481-6.39-5.118-13.246-9.335-14.556c-0.471-0.145-1.076-0.259-1.75-0.33
							c-5.428-0.568-18.316,1.678-21.259,12.049c-3.165,11.158,4.541,17.53,4.62,17.594c0.471,0.38,0.663,1.011,0.486,1.589
							c-0.179,0.579-0.691,0.991-1.297,1.039l-33.791,2.749l2.305,17.863l23.154-6.27c0.662-0.178,1.361,0.12,1.688,0.727
							c0.328,0.601,0.197,1.351-0.316,1.809l-35.141,31.321l20.019,9.251l14.454-13.604c0.41-0.385,1.006-0.506,1.533-0.306
							c0.529,0.197,0.898,0.678,0.954,1.24L-31.64,82.846z"/>
					</g>
				</g>
			</g>
		</g>
		<g opacity="0.2">
			<g>
				<g>
					<g>
						<path fill="#327599" d="M90.874,54.852c-0.109-0.071-0.208-0.159-0.293-0.262L75.935,37.279
							c-0.34-0.402-0.428-0.959-0.228-1.447l6.731-16.473l-16.393,4.518c-0.555,0.154-1.147-0.048-1.498-0.504L49.904,4.189
							c-0.287-0.378-0.365-0.877-0.21-1.326c0.16-0.446,0.533-0.787,0.996-0.902l39.86-9.833l-18.056-4.069
							c-0.398-0.089-0.736-0.347-0.93-0.705c-0.194-0.359-0.225-0.785-0.083-1.167l7.1-18.988c0.135-0.361,0.413-0.653,0.769-0.803
							c0.355-0.153,0.757-0.152,1.11,0l28.37,12.16c-0.699-3.795-0.746-10.569,5.341-16.941c8.411-8.804,21.757-4.533,26.903-1.085
							c0.699,0.469,1.291,0.943,1.758,1.413c4.569,4.587,9.709,16.595,1.535,24.887c-6.226,6.31-14.641,7.658-18.469,7.938
							l10.782,29.588c0.141,0.383,0.108,0.809-0.09,1.166s-0.538,0.611-0.937,0.698l-20.46,4.413
							c-0.754,0.164-1.499-0.308-1.673-1.059l-3.969-17.073L93.032,54.049c-0.039,0.146-0.104,0.289-0.191,0.423
							c-0.436,0.646-1.312,0.82-1.957,0.386C90.878,54.856,90.876,54.854,90.874,54.852z M78.645,36.109l12.573,14.861
							l17.379-43.702c0.227-0.575,0.803-0.934,1.416-0.885c0.616,0.045,1.131,0.486,1.269,1.086l4.677,20.108l17.517-3.777
							L122.581-6.095c-0.161-0.438-0.093-0.928,0.181-1.309c0.272-0.378,0.716-0.597,1.184-0.584c0.108,0,11.161,0.186,18.413-7.168
							c7.326-7.429,1.445-17.929-1.525-20.911c-0.332-0.333-0.792-0.698-1.328-1.06c-4.323-2.895-16.189-6.744-23.289,0.69
							c-7.639,7.995-3.98,16.8-3.941,16.89c0.227,0.529,0.108,1.146-0.299,1.555c-0.409,0.41-1.024,0.527-1.555,0.3L80.71-30.428
							l-6.014,16.087l22.311,5.03c0.637,0.145,1.095,0.708,1.1,1.361c0.009,0.653-0.436,1.227-1.072,1.385L53.458,4.188
							l12.756,16.713l18.244-5.028c0.518-0.141,1.074,0.021,1.43,0.425c0.358,0.402,0.455,0.973,0.252,1.47L78.645,36.109z"/>
					</g>
				</g>
			</g>
		</g>
		<g opacity="0.2">
			<g>
				<g>
					<g>
						<path fill="#327599" d="M239.808,94.234c-0.135-0.015-0.27-0.048-0.398-0.1l-22.065-8.879
							c-0.512-0.205-0.866-0.678-0.92-1.229l-1.828-18.573l-12.988,12.224c-0.438,0.412-1.087,0.517-1.636,0.268l-22.979-10.618
							c-0.453-0.208-0.768-0.631-0.844-1.128c-0.071-0.49,0.107-0.99,0.481-1.321l32.144-28.651L190.04,41.3
							c-0.414,0.113-0.855,0.04-1.21-0.198c-0.356-0.237-0.591-0.617-0.647-1.041l-2.721-21.087
							c-0.053-0.402,0.063-0.808,0.319-1.122c0.255-0.316,0.628-0.513,1.028-0.543l32.268-2.626
							c-2.508-3.173-5.869-9.435-3.348-18.325c3.485-12.287,17.955-14.864,24.417-14.188c0.877,0.091,1.659,0.242,2.321,0.448
							c6.486,2.015,17.137,10.633,13.617,22.324c-2.68,8.904-9.824,14.277-13.237,16.412l24.496,22.155
							c0.318,0.286,0.497,0.697,0.49,1.124c-0.01,0.429-0.201,0.832-0.527,1.107l-16.811,14.118
							c-0.619,0.521-1.541,0.447-2.069-0.163L236.38,45.808l5.035,46.625c0.036,0.155,0.047,0.317,0.03,0.484
							c-0.086,0.813-0.813,1.403-1.627,1.319C239.815,94.236,239.812,94.234,239.808,94.234z M219.283,82.846l18.941,7.62
							l-5.297-49.042c-0.07-0.645,0.288-1.259,0.88-1.515c0.594-0.259,1.287-0.101,1.709,0.388l14.19,16.358L264.1,44.566
							l-24.75-22.386c-0.366-0.326-0.54-0.814-0.474-1.302c0.067-0.483,0.371-0.906,0.811-1.122
							c0.102-0.05,10.439-5.295,13.563-15.668c3.155-10.479-7.444-17.335-11.661-18.645c-0.471-0.145-1.076-0.259-1.75-0.33
							c-5.428-0.568-18.316,1.678-21.259,12.049c-3.165,11.158,4.541,17.53,4.62,17.594c0.471,0.38,0.663,1.011,0.486,1.589
							c-0.179,0.579-0.691,0.991-1.296,1.039l-33.792,2.749l2.305,17.863l23.154-6.27c0.662-0.178,1.361,0.12,1.687,0.727
							c0.329,0.601,0.198,1.351-0.315,1.809l-35.141,31.321l20.019,9.251l14.454-13.604c0.41-0.385,1.006-0.506,1.533-0.306
							c0.529,0.197,0.898,0.678,0.954,1.24L219.283,82.846z"/>
					</g>
					<g>
						<path fill="#327599" d="M234.455,11.304c-0.472-0.049-0.952-0.134-1.44-0.259c-5.738-1.479-7.349-8.254-7.415-8.54
							c-0.181-0.801,0.317-1.592,1.114-1.774c0.797-0.186,1.59,0.315,1.773,1.108c0.016,0.069,1.292,5.317,5.266,6.339
							c4.082,1.052,7.695-2.081,7.731-2.112c0.613-0.537,1.549-0.484,2.089,0.129c0.54,0.609,0.489,1.541-0.12,2.082
							C243.276,8.436,239.413,11.823,234.455,11.304z"/>
					</g>
					<g>
						<path fill="#327599" d="M240.822,0.003c-1.11-0.114-1.919-1.114-1.804-2.223c0.117-1.11,1.115-1.92,2.225-1.803
							c1.11,0.116,1.92,1.115,1.804,2.224C242.929-0.688,241.933,0.119,240.822,0.003z M241.14-3.041
							c-0.568-0.062-1.079,0.356-1.139,0.923c-0.059,0.569,0.354,1.08,0.924,1.14c0.568,0.061,1.08-0.354,1.14-0.923
							S241.71-2.981,241.14-3.041z"/>
					</g>
				</g>
			</g>
		</g>
		<g opacity="0.2">
			<g>
				<g>
					<g>
						<path fill="#327599" d="M341.798,54.852c-0.109-0.071-0.208-0.159-0.292-0.262l-14.648-17.311
							c-0.338-0.402-0.426-0.959-0.227-1.447l6.731-16.473l-16.392,4.518c-0.557,0.154-1.148-0.048-1.498-0.504L300.828,4.189
							c-0.287-0.378-0.365-0.877-0.209-1.326c0.159-0.446,0.532-0.787,0.994-0.902l39.861-9.833l-18.055-4.069
							c-0.398-0.089-0.737-0.347-0.932-0.705c-0.193-0.359-0.223-0.785-0.082-1.167l7.1-18.988c0.135-0.361,0.414-0.653,0.768-0.803
							c0.356-0.153,0.758-0.152,1.111,0l28.369,12.16c-0.699-3.795-0.744-10.569,5.342-16.941
							c8.411-8.804,21.757-4.533,26.903-1.085c0.698,0.469,1.29,0.943,1.759,1.413c4.568,4.587,9.708,16.595,1.534,24.887
							c-6.226,6.31-14.642,7.658-18.47,7.938l10.783,29.588c0.141,0.383,0.107,0.809-0.09,1.166s-0.538,0.611-0.938,0.698
							l-20.459,4.413c-0.754,0.164-1.498-0.308-1.672-1.059l-3.97-17.073l-16.521,41.548c-0.04,0.146-0.104,0.289-0.19,0.423
							c-0.436,0.646-1.312,0.82-1.959,0.386C341.803,54.856,341.8,54.854,341.798,54.852z M329.568,36.109l12.572,14.861
							l17.38-43.702c0.228-0.575,0.804-0.934,1.416-0.885c0.616,0.045,1.131,0.486,1.269,1.086l4.678,20.108l17.516-3.777
							L373.505-6.095c-0.161-0.438-0.093-0.928,0.181-1.309c0.273-0.378,0.717-0.597,1.184-0.584c0.108,0,11.16,0.186,18.414-7.168
							c7.324-7.429,1.443-17.929-1.526-20.911c-0.332-0.333-0.792-0.698-1.328-1.06c-4.323-2.895-16.189-6.744-23.29,0.69
							c-7.637,7.995-3.979,16.8-3.94,16.89c0.227,0.529,0.108,1.146-0.298,1.555c-0.41,0.41-1.025,0.527-1.556,0.3l-29.711-12.736
							l-6.013,16.087l22.311,5.03c0.637,0.145,1.094,0.708,1.099,1.361c0.009,0.653-0.436,1.227-1.071,1.385L304.382,4.188
							l12.757,16.713l18.242-5.028c0.519-0.141,1.075,0.021,1.432,0.425c0.357,0.402,0.455,0.973,0.252,1.47L329.568,36.109z"/>
					</g>
				</g>
			</g>
		</g>
		<g opacity="0.2">
			<g>
				<g>
					<g>
						<path fill="#327599" d="M497.99,94.234c-0.135-0.015-0.269-0.048-0.398-0.1l-22.065-8.879
							c-0.511-0.205-0.865-0.678-0.919-1.229l-1.829-18.573l-12.987,12.224c-0.439,0.412-1.088,0.517-1.637,0.268l-22.978-10.618
							c-0.454-0.208-0.769-0.631-0.845-1.128c-0.071-0.49,0.107-0.99,0.481-1.321l32.145-28.651L448.223,41.3
							c-0.414,0.113-0.854,0.04-1.209-0.198c-0.356-0.237-0.592-0.617-0.648-1.041l-2.721-21.087
							c-0.053-0.402,0.063-0.808,0.319-1.122c0.255-0.316,0.628-0.513,1.029-0.543l32.267-2.626
							c-2.508-3.173-5.869-9.435-3.346-18.325c3.484-12.287,17.953-14.864,24.416-14.188c0.877,0.091,1.658,0.242,2.321,0.448
							c6.485,2.015,17.136,10.633,13.616,22.324c-2.68,8.904-9.823,14.277-13.236,16.412l24.496,22.155
							c0.318,0.286,0.497,0.697,0.489,1.124c-0.009,0.429-0.2,0.832-0.526,1.107l-16.812,14.118
							c-0.618,0.521-1.541,0.447-2.069-0.163l-12.047-13.889l5.037,46.625c0.035,0.155,0.045,0.317,0.029,0.484
							c-0.086,0.813-0.814,1.403-1.628,1.319C497.998,94.236,497.994,94.234,497.99,94.234z M477.467,82.846l18.941,7.62
							l-5.297-49.042c-0.071-0.645,0.287-1.259,0.879-1.515c0.594-0.259,1.287-0.101,1.71,0.388l14.189,16.358l14.394-12.089
							l-24.75-22.386c-0.366-0.326-0.541-0.814-0.475-1.302c0.067-0.483,0.371-0.906,0.812-1.122
							c0.101-0.05,10.44-5.295,13.563-15.668c3.154-10.479-7.444-17.335-11.662-18.645c-0.471-0.145-1.076-0.259-1.75-0.33
							c-5.428-0.568-18.316,1.678-21.259,12.049c-3.165,11.158,4.542,17.53,4.62,17.594c0.471,0.38,0.664,1.011,0.486,1.589
							c-0.179,0.579-0.691,0.991-1.296,1.039l-33.792,2.749l2.307,17.863l23.153-6.27c0.661-0.178,1.36,0.12,1.687,0.727
							c0.329,0.601,0.197,1.351-0.316,1.809l-35.141,31.321l20.019,9.251l14.454-13.604c0.41-0.385,1.007-0.506,1.534-0.306
							c0.528,0.197,0.899,0.678,0.954,1.24L477.467,82.846z"/>
					</g>
					<g>
						<path fill="#327599" d="M492.638,11.304c-0.472-0.049-0.952-0.134-1.44-0.259c-5.737-1.479-7.349-8.254-7.414-8.54
							c-0.182-0.801,0.316-1.592,1.114-1.774c0.796-0.186,1.589,0.315,1.772,1.108c0.016,0.069,1.292,5.317,5.266,6.339
							c4.083,1.052,7.695-2.081,7.732-2.112c0.612-0.537,1.548-0.484,2.088,0.129c0.541,0.609,0.49,1.541-0.119,2.082
							C501.459,8.436,497.596,11.823,492.638,11.304z"/>
					</g>
					<g>
						<path fill="#327599" d="M499.006,0.003c-1.111-0.114-1.92-1.114-1.805-2.223c0.117-1.11,1.115-1.92,2.227-1.803
							c1.108,0.116,1.918,1.115,1.802,2.224C501.111-0.688,500.115,0.119,499.006,0.003z M499.322-3.041
							c-0.568-0.062-1.078,0.356-1.139,0.923c-0.059,0.569,0.354,1.08,0.925,1.14c0.568,0.061,1.079-0.354,1.14-0.923
							C500.308-2.471,499.893-2.981,499.322-3.041z"/>
					</g>
				</g>
			</g>
		</g>
		<g opacity="0.2">
			<g>
				<g>
					<g>
						<path fill="#327599" d="M599.98,54.852c-0.109-0.071-0.207-0.159-0.291-0.262l-14.648-17.311
							c-0.339-0.402-0.427-0.959-0.228-1.447l6.731-16.473l-16.393,4.518c-0.555,0.154-1.146-0.048-1.497-0.504L559.012,4.189
							c-0.288-0.378-0.366-0.877-0.209-1.326c0.158-0.446,0.532-0.787,0.994-0.902l39.861-9.833l-18.055-4.069
							c-0.399-0.089-0.738-0.347-0.932-0.705c-0.194-0.359-0.224-0.785-0.083-1.167l7.101-18.988
							c0.134-0.361,0.412-0.653,0.768-0.803c0.355-0.153,0.757-0.152,1.111,0l28.369,12.16c-0.699-3.795-0.744-10.569,5.342-16.941
							c8.41-8.804,21.756-4.533,26.902-1.085c0.699,0.469,1.291,0.943,1.758,1.413c4.569,4.587,9.709,16.595,1.535,24.887
							c-6.226,6.31-14.641,7.658-18.469,7.938l10.783,29.588c0.14,0.383,0.107,0.809-0.09,1.166
							c-0.199,0.357-0.539,0.611-0.938,0.698l-20.459,4.413c-0.754,0.164-1.5-0.308-1.673-1.059l-3.97-17.073l-16.521,41.548
							c-0.039,0.146-0.104,0.289-0.19,0.423c-0.436,0.646-1.312,0.82-1.958,0.386C599.985,54.856,599.982,54.854,599.98,54.852z
							 M587.751,36.109l12.573,14.861l17.379-43.702c0.228-0.575,0.804-0.934,1.416-0.885c0.616,0.045,1.131,0.486,1.27,1.086
							l4.677,20.108l17.517-3.777L631.688-6.095c-0.16-0.438-0.093-0.928,0.182-1.309c0.271-0.378,0.716-0.597,1.184-0.584
							c0.107,0,11.16,0.186,18.414-7.168c7.324-7.429,1.443-17.929-1.527-20.911c-0.332-0.333-0.791-0.698-1.328-1.06
							c-4.322-2.895-16.189-6.744-23.289,0.69c-7.639,7.995-3.979,16.8-3.941,16.89c0.227,0.529,0.109,1.146-0.298,1.555
							c-0.41,0.41-1.024,0.527-1.556,0.3l-29.711-12.736l-6.014,16.087l22.311,5.03c0.637,0.145,1.096,0.708,1.1,1.361
							c0.01,0.653-0.436,1.227-1.071,1.385L562.564,4.188l12.757,16.713l18.243-5.028c0.518-0.141,1.074,0.021,1.431,0.425
							c0.358,0.402,0.455,0.973,0.252,1.47L587.751,36.109z"/>
					</g>
				</g>
			</g>
		</g>
	</g>
</g>
<rect fill="#F181B3" width="612" height="231.191"/>
<g>
	<defs>
		<rect id="SVGID_5_" x="0.528" width="612" height="231.191"/>
	</defs>
	<clipPath id="SVGID_6_">
		<use xlink:href="#SVGID_5_"  overflow="visible"/>
	</clipPath>
	<g opacity="0.7" clip-path="url(#SVGID_6_)">
		<g opacity="0.2">
			<g>
				<g>
					<circle fill="#9F2663" cx="46.162" cy="3.565" r="1.824"/>
					<path fill="#9F2663" d="M45.42,5.859c-1.266-0.408-1.962-1.771-1.554-3.034c0.409-1.267,1.771-1.965,3.037-1.554
						c1.266,0.407,1.963,1.771,1.554,3.035C48.048,5.572,46.687,6.269,45.42,5.859z M46.542,2.389
						c-0.648-0.209-1.348,0.147-1.557,0.796c-0.209,0.647,0.148,1.347,0.797,1.557s1.346-0.147,1.555-0.795
						C47.548,3.297,47.19,2.599,46.542,2.389z"/>
				</g>
				<g>
					<g>
						<path fill="#9F2663" d="M29.562,120.102c-0.155-0.05-0.304-0.12-0.441-0.213L5.595,104.104
							c-0.545-0.365-0.842-1.004-0.771-1.658L7.272,80.35l-18.148,11.044c-0.614,0.372-1.395,0.334-1.973-0.093l-24.162-18.034
							c-0.475-0.354-0.741-0.926-0.705-1.521c0.037-0.592,0.369-1.129,0.886-1.424L7.69,44.854l-23.084,1.297
							c-0.51,0.028-1.006-0.165-1.361-0.528c-0.355-0.364-0.537-0.865-0.496-1.374l2.023-25.246
							c0.039-0.479,0.273-0.925,0.647-1.227c0.374-0.306,0.857-0.441,1.335-0.382l38.249,4.893
							c-2.14-4.315-4.515-12.441,0.616-22.183c7.088-13.458,24.586-12.896,31.951-10.518c0.998,0.323,1.871,0.692,2.594,1.095
							c7.06,3.947,17.35,16.615,10.369,29.375c-5.318,9.715-14.969,14.216-19.471,15.862l23.089,31.855
							c0.3,0.414,0.405,0.935,0.291,1.432c-0.114,0.496-0.438,0.919-0.888,1.16L50.489,82.676c-0.851,0.454-1.907,0.142-2.374-0.699
							L37.499,62.822l-5.619,55.577c0.002,0.188-0.024,0.381-0.086,0.571c-0.299,0.926-1.295,1.434-2.221,1.135
							C29.569,120.104,29.565,120.103,29.562,120.102z M8.448,101.772l20.197,13.549l5.911-58.458
							c0.076-0.769,0.645-1.396,1.399-1.55c0.756-0.156,1.525,0.2,1.897,0.874l12.505,22.558l19.751-10.539L46.781,36.02
							c-0.344-0.471-0.43-1.082-0.232-1.633c0.199-0.55,0.657-0.963,1.223-1.108c0.132-0.035,13.472-3.599,19.667-14.917
							C73.696,6.927,63.035-3.673,58.443-6.24c-0.513-0.287-1.189-0.567-1.958-0.818C50.3-9.057,34.726-9.614,28.741,1.748
							c-6.436,12.222,0.974,21.547,1.049,21.641c0.457,0.56,0.525,1.34,0.176,1.971c-0.352,0.633-1.051,0.984-1.766,0.894
							l-40.059-5.124l-1.715,21.385l28.527-1.601c0.816-0.043,1.557,0.477,1.789,1.261c0.232,0.783-0.104,1.625-0.814,2.031
							l-48.672,27.844l21.051,15.712L8.503,75.47c0.574-0.349,1.299-0.341,1.865,0.02c0.566,0.361,0.879,1.014,0.805,1.682
							L8.448,101.772z"/>
					</g>
					<g>
						<path fill="#9F2663" d="M43.757,22.138c-0.537-0.172-1.075-0.389-1.613-0.656c-6.323-3.136-6.53-11.43-6.536-11.781
							c-0.016-0.977,0.761-1.776,1.735-1.793c0.974-0.021,1.773,0.759,1.792,1.731c0.002,0.083,0.197,6.511,4.576,8.682
							c4.497,2.232,9.479-0.527,9.529-0.556c0.847-0.477,1.923-0.182,2.403,0.664c0.48,0.844,0.189,1.917-0.654,2.398
							C54.745,20.969,49.407,23.965,43.757,22.138z"/>
					</g>
					<g>
						<path fill="#9F2663" d="M52.968,7.683c0.311-0.96,1.338-1.486,2.297-1.176c0.957,0.31,1.484,1.339,1.174,2.298
							c-0.309,0.956-1.338,1.483-2.295,1.174C53.185,9.668,52.659,8.639,52.968,7.683z"/>
						<path fill="#9F2663" d="M53.962,10.539c-1.266-0.41-1.962-1.772-1.554-3.037c0.409-1.266,1.772-1.963,3.037-1.554
							c1.267,0.408,1.963,1.771,1.554,3.037C56.591,10.25,55.228,10.947,53.962,10.539z M55.083,7.067
							c-0.647-0.211-1.346,0.147-1.556,0.796c-0.208,0.648,0.147,1.345,0.796,1.556c0.648,0.209,1.348-0.147,1.557-0.796
							C56.09,7.975,55.733,7.276,55.083,7.067z"/>
					</g>
				</g>
			</g>
		</g>
		<g opacity="0.2">
			<g>
				<g>
					<g>
						<path fill="#9F2663" d="M50.179,188.161c-0.066,0.087-0.145,0.166-0.235,0.231l-15.382,11.376
							c-0.356,0.265-0.83,0.308-1.229,0.112l-13.498-6.574l2.9,14.049c0.098,0.477-0.104,0.963-0.506,1.232L5.272,219.859
							c-0.334,0.222-0.758,0.259-1.128,0.102c-0.368-0.158-0.634-0.491-0.704-0.887l-6.083-34.099l-4.42,14.976
							c-0.098,0.33-0.333,0.602-0.645,0.745c-0.313,0.145-0.673,0.146-0.986,0.005l-15.595-7.023
							c-0.297-0.133-0.527-0.383-0.634-0.689c-0.109-0.31-0.087-0.646,0.06-0.936l11.801-23.214
							c-3.23,0.38-8.938,0.045-13.967-5.429c-6.948-7.566-2.617-18.566,0.569-22.71c0.433-0.562,0.866-1.033,1.286-1.401
							c4.114-3.594,14.507-7.259,21.035,0.079c4.971,5.589,5.642,12.749,5.666,15.986l25.503-7.447
							c0.33-0.096,0.687-0.045,0.976,0.14c0.29,0.187,0.486,0.488,0.537,0.828l2.588,17.466c0.096,0.645-0.343,1.245-0.984,1.351
							l-14.592,2.4L49.623,186.3c0.121,0.042,0.236,0.103,0.345,0.184c0.521,0.402,0.617,1.149,0.217,1.672
							C50.183,188.158,50.181,188.159,50.179,188.161z M33.728,197.425l13.203-9.767l-35.833-17.039
							c-0.472-0.223-0.741-0.728-0.667-1.241c0.072-0.516,0.473-0.925,0.985-1.009l17.187-2.828l-2.215-14.954L0.62,158.109
							c-0.379,0.112-0.787,0.027-1.092-0.224s-0.465-0.636-0.428-1.029c0.008-0.091,0.771-9.384-5.019-15.896
							c-5.85-6.576-15.013-2.204-17.688,0.132c-0.299,0.262-0.631,0.629-0.965,1.06c-2.676,3.479-6.568,13.259-0.702,19.645
							c6.31,6.869,13.924,4.275,14.001,4.249c0.459-0.162,0.971-0.028,1.292,0.336c0.322,0.367,0.388,0.891,0.167,1.326
							l-12.357,24.31l13.21,5.949l5.462-18.505c0.158-0.528,0.657-0.882,1.209-0.851c0.551,0.028,1.009,0.435,1.106,0.979
							l6.649,37.277l14.774-9.818l-3.229-15.635c-0.091-0.443,0.078-0.903,0.437-1.18c0.359-0.278,0.844-0.329,1.252-0.132
							L33.728,197.425z"/>
					</g>
				</g>
			</g>
		</g>
		<g opacity="0.2">
			<g>
				<g>
					<circle fill="#9F2663" cx="122.459" cy="17.732" r="1.462"/>
					<path fill="#9F2663" d="M123.992,18.911c-0.649,0.845-1.866,1.003-2.711,0.354c-0.847-0.65-1.005-1.865-0.354-2.712
						c0.65-0.845,1.867-1.003,2.711-0.354C124.484,16.85,124.642,18.064,123.992,18.911z M121.675,17.13
						c-0.335,0.432-0.253,1.057,0.18,1.388c0.434,0.333,1.057,0.254,1.391-0.18c0.334-0.435,0.251-1.058-0.181-1.39
						C122.632,16.615,122.007,16.695,121.675,17.13z"/>
				</g>
				<g>
					<g>
						<path fill="#9F2663" d="M205.98,61.701c-0.079,0.104-0.173,0.197-0.28,0.275l-18.265,13.51
							c-0.423,0.311-0.985,0.363-1.458,0.132l-16.027-7.807l3.443,16.681c0.117,0.565-0.123,1.146-0.602,1.465L152.657,99.34
							c-0.396,0.263-0.898,0.308-1.338,0.121c-0.438-0.188-0.754-0.583-0.836-1.053L143.26,57.92l-5.248,17.781
							c-0.115,0.392-0.396,0.715-0.766,0.885s-0.798,0.172-1.171,0.006l-18.517-8.339c-0.354-0.159-0.626-0.456-0.753-0.82
							c-0.13-0.366-0.102-0.768,0.071-1.111L130.89,38.76c-3.837,0.45-10.613,0.054-16.584-6.448
							c-8.251-8.983-3.107-22.045,0.676-26.963c0.514-0.668,1.027-1.229,1.526-1.664c4.886-4.268,17.226-8.62,24.977,0.092
							c5.901,6.637,6.7,15.138,6.728,18.981l30.283-8.842c0.391-0.114,0.815-0.054,1.159,0.166c0.344,0.222,0.575,0.579,0.637,0.983
							l3.073,20.739c0.113,0.764-0.406,1.479-1.169,1.603l-17.326,2.851l40.451,19.233c0.144,0.05,0.28,0.123,0.408,0.219
							c0.619,0.478,0.733,1.365,0.259,1.983C205.985,61.697,205.982,61.699,205.98,61.701z M186.445,72.7l15.678-11.596
							l-42.548-20.232c-0.559-0.266-0.88-0.864-0.793-1.475c0.088-0.612,0.562-1.097,1.172-1.196l20.406-3.358l-2.63-17.757
							l-30.597,8.934c-0.449,0.133-0.934,0.031-1.297-0.267c-0.36-0.298-0.551-0.755-0.507-1.223
							c0.01-0.108,0.917-11.143-5.959-18.874c-6.946-7.809-17.826-2.617-21.003,0.157c-0.354,0.311-0.75,0.746-1.145,1.259
							c-3.178,4.132-7.801,15.741-0.836,23.324c7.492,8.158,16.533,5.077,16.625,5.045c0.545-0.191,1.153-0.033,1.535,0.4
							c0.383,0.436,0.461,1.058,0.198,1.575l-14.674,28.864l15.686,7.064l6.485-21.975c0.188-0.626,0.781-1.047,1.436-1.009
							c0.654,0.034,1.198,0.516,1.313,1.163l7.896,44.262l17.542-11.656l-3.832-18.566c-0.108-0.527,0.092-1.072,0.518-1.401
							c0.426-0.331,1.002-0.392,1.486-0.156L186.445,72.7z"/>
					</g>
					<g>
						<path fill="#9F2663" d="M135.836,24.557c-0.276,0.36-0.585,0.709-0.932,1.043c-4.073,3.929-10.393,1.848-10.659,1.759
							c-0.74-0.253-1.137-1.056-0.886-1.796c0.247-0.74,1.052-1.133,1.791-0.886c0.063,0.021,4.97,1.609,7.79-1.114
							c2.898-2.794,2.159-7.301,2.15-7.345c-0.131-0.769,0.381-1.501,1.15-1.635c0.768-0.135,1.498,0.373,1.635,1.14
							C137.916,15.946,138.739,20.784,135.836,24.557z"/>
					</g>
					<g>
						<circle fill="#9F2663" cx="128.296" cy="12.544" r="1.462"/>
						<path fill="#9F2663" d="M129.829,13.724c-0.65,0.846-1.867,1.004-2.713,0.354c-0.844-0.65-1.004-1.868-0.353-2.713
							c0.649-0.845,1.868-1.003,2.712-0.354C130.321,11.661,130.479,12.878,129.829,13.724z M127.51,11.94
							c-0.334,0.432-0.251,1.057,0.183,1.39c0.432,0.333,1.055,0.252,1.39-0.182c0.333-0.434,0.251-1.057-0.182-1.39
							C128.467,11.425,127.843,11.507,127.51,11.94z"/>
					</g>
				</g>
			</g>
		</g>
		<g opacity="0.2">
			<g>
				<g>
					<circle fill="#9F2663" cx="129.489" cy="220.106" r="1.46"/>
					<path fill="#9F2663" d="M128.416,221.71c-0.885-0.595-1.122-1.793-0.53-2.679c0.593-0.885,1.793-1.122,2.678-0.53
						s1.122,1.796,0.529,2.679C130.501,222.064,129.301,222.301,128.416,221.71z M130.04,219.284
						c-0.451-0.306-1.069-0.183-1.372,0.27s-0.183,1.069,0.271,1.375c0.453,0.303,1.069,0.179,1.373-0.273
						C130.614,220.203,130.493,219.586,130.04,219.284z"/>
				</g>
				<g>
					<g>
						<path fill="#9F2663" d="M91.138,306.171c-0.109-0.071-0.208-0.159-0.293-0.262l-14.646-17.311
							c-0.34-0.402-0.428-0.959-0.228-1.447l6.731-16.473l-16.393,4.518c-0.555,0.154-1.147-0.048-1.498-0.504l-14.644-19.184
							c-0.287-0.378-0.365-0.877-0.21-1.326c0.16-0.446,0.533-0.787,0.996-0.902l39.86-9.833l-18.056-4.069
							c-0.398-0.089-0.736-0.347-0.93-0.705c-0.194-0.359-0.225-0.785-0.083-1.167l7.1-18.988c0.135-0.361,0.413-0.653,0.769-0.803
							c0.355-0.153,0.757-0.152,1.11,0l28.37,12.16c-0.699-3.795-0.746-10.569,5.341-16.941c8.411-8.804,21.757-4.533,26.903-1.085
							c0.699,0.469,1.291,0.943,1.758,1.413c4.569,4.587,9.709,16.595,1.535,24.887c-6.226,6.31-14.641,7.658-18.469,7.938
							l10.782,29.588c0.141,0.383,0.108,0.809-0.09,1.166s-0.538,0.611-0.937,0.698l-20.46,4.413
							c-0.754,0.164-1.499-0.308-1.673-1.059l-3.969-17.073l-16.521,41.548c-0.039,0.146-0.104,0.289-0.191,0.423
							c-0.436,0.646-1.312,0.82-1.957,0.386C91.142,306.176,91.14,306.173,91.138,306.171z M78.908,287.429l12.573,14.861
							l17.379-43.702c0.227-0.575,0.803-0.934,1.416-0.885c0.616,0.045,1.131,0.486,1.269,1.086l4.677,20.108l17.517-3.777
							l-10.894-29.896c-0.161-0.438-0.093-0.928,0.181-1.309c0.272-0.378,0.716-0.597,1.184-0.584
							c0.108,0,11.161,0.186,18.413-7.168c7.326-7.429,1.445-17.929-1.525-20.911c-0.332-0.333-0.792-0.698-1.328-1.06
							c-4.323-2.895-16.189-6.744-23.289,0.69c-7.639,7.995-3.98,16.8-3.941,16.89c0.227,0.529,0.108,1.146-0.299,1.555
							c-0.409,0.41-1.024,0.527-1.555,0.3l-29.711-12.736l-6.014,16.087l22.311,5.03c0.637,0.145,1.095,0.708,1.1,1.361
							c0.009,0.653-0.436,1.227-1.072,1.385l-43.576,10.753l12.756,16.713l18.244-5.028c0.518-0.141,1.074,0.021,1.43,0.425
							c0.358,0.402,0.455,0.973,0.252,1.47L78.908,287.429z"/>
					</g>
					<g>
						<path fill="#9F2663" d="M123.563,233.877c-0.375-0.254-0.744-0.539-1.098-0.862c-4.181-3.8-2.519-10.23-2.447-10.502
							c0.202-0.754,0.977-1.2,1.73-1c0.753,0.199,1.198,0.974,0.998,1.727c-0.017,0.063-1.277,5.055,1.617,7.688
							c2.973,2.705,7.414,1.673,7.459,1.661c0.756-0.18,1.521,0.284,1.703,1.04c0.185,0.755-0.273,1.517-1.028,1.704
							C132.278,235.386,127.511,236.52,123.563,233.877z"/>
					</g>
					<g>
						<circle fill="#9F2663" cx="135.039" cy="225.582" r="1.46"/>
						<path fill="#9F2663" d="M133.965,227.185c-0.885-0.591-1.122-1.794-0.53-2.677c0.594-0.885,1.795-1.123,2.68-0.53
							c0.883,0.593,1.12,1.794,0.529,2.678C136.05,227.54,134.849,227.779,133.965,227.185z M135.589,224.759
							c-0.452-0.304-1.068-0.182-1.371,0.272c-0.305,0.452-0.183,1.066,0.271,1.371c0.452,0.305,1.068,0.183,1.371-0.271
							C136.165,225.679,136.044,225.062,135.589,224.759z"/>
					</g>
				</g>
			</g>
		</g>
		<g opacity="0.2">
			<g>
				<g>
					<circle fill="#9F2663" cx="168.214" cy="128.407" r="1.54"/>
					<path fill="#9F2663" d="M166.419,129.37c-0.531-0.988-0.157-2.228,0.832-2.758c0.99-0.53,2.227-0.158,2.759,0.832
						c0.531,0.987,0.157,2.228-0.832,2.757C168.188,130.732,166.951,130.36,166.419,129.37z M169.134,127.914
						c-0.271-0.508-0.906-0.7-1.414-0.429c-0.506,0.274-0.698,0.907-0.426,1.416c0.271,0.508,0.907,0.697,1.414,0.425
						C169.215,129.055,169.407,128.419,169.134,127.914z"/>
				</g>
				<g>
					<g>
						<path fill="#9F2663" d="M89.881,189.662c-0.065-0.122-0.114-0.251-0.143-0.388l-5.089-23.387
							c-0.117-0.541,0.076-1.104,0.502-1.459l14.427-12.025l-17.517-3.899c-0.594-0.133-1.047-0.612-1.147-1.211l-4.159-25.128
							c-0.082-0.494,0.092-0.997,0.462-1.339c0.369-0.339,0.886-0.473,1.372-0.348l42.024,10.552l-14.817-12.726
							c-0.328-0.279-0.516-0.69-0.52-1.118c-0.004-0.429,0.18-0.841,0.5-1.127l16.014-14.188c0.305-0.271,0.707-0.405,1.113-0.37
							c0.407,0.034,0.781,0.234,1.036,0.551l20.43,25.371c1.224-3.881,4.534-10.222,13.36-13.149
							c12.197-4.047,22.524,6.538,25.617,12.299c0.418,0.781,0.734,1.521,0.939,2.187c1.988,6.537,0.838,20.274-10.883,23.959
							c-8.926,2.804-17.438-0.104-21.145-1.738l-4.588,32.918c-0.059,0.427-0.299,0.808-0.66,1.043
							c-0.361,0.234-0.805,0.303-1.219,0.188l-21.257-6.009c-0.782-0.222-1.243-1.029-1.034-1.815l4.746-17.881L92.29,189.982
							c-0.109,0.117-0.239,0.218-0.387,0.298c-0.726,0.387-1.629,0.115-2.018-0.608C89.883,189.67,89.882,189.665,89.881,189.662z
							 M87.753,166.14l4.369,20.073l37.822-32.141c0.496-0.423,1.211-0.472,1.76-0.125c0.551,0.35,0.812,1.015,0.645,1.643
							l-5.592,21.061l18.199,5.144l4.637-33.258c0.064-0.49,0.372-0.91,0.814-1.131c0.442-0.219,0.964-0.204,1.394,0.04
							c0.1,0.057,10.311,5.694,20.711,2.43c10.504-3.301,10.218-15.999,8.923-20.248c-0.145-0.477-0.393-1.045-0.713-1.644
							c-2.598-4.841-11.757-14.298-22.052-10.883c-11.076,3.676-12.022,13.694-12.03,13.795c-0.051,0.607-0.467,1.122-1.047,1.303
							c-0.585,0.179-1.217-0.015-1.6-0.49l-21.395-26.57l-13.565,12.02l18.311,15.727c0.521,0.451,0.67,1.201,0.351,1.814
							c-0.314,0.614-1.014,0.927-1.685,0.759l-45.942-11.536l3.623,21.894l19.494,4.337c0.554,0.124,0.99,0.552,1.123,1.104
							c0.135,0.552-0.057,1.132-0.492,1.497L87.753,166.14z"/>
					</g>
					<g>
						<path fill="#9F2663" d="M155.878,138.311c-0.227-0.42-0.429-0.868-0.599-1.346c-2.017-5.61,2.714-10.782,2.915-11
							c0.563-0.603,1.504-0.637,2.107-0.075c0.605,0.556,0.636,1.499,0.077,2.103c-0.047,0.053-3.692,4.081-2.296,7.966
							c1.433,3.993,6.084,5.229,6.13,5.241c0.795,0.206,1.278,1.015,1.074,1.811c-0.202,0.795-1.006,1.278-1.802,1.079
							C163.254,144.031,158.248,142.73,155.878,138.311z"/>
					</g>
					<g>
						<circle fill="#9F2663" cx="170.678" cy="136.257" r="1.54"/>
						<path fill="#9F2663" d="M168.883,137.221c-0.53-0.989-0.157-2.229,0.831-2.759c0.99-0.53,2.229-0.158,2.76,0.832
							c0.531,0.989,0.157,2.229-0.832,2.759C170.651,138.584,169.415,138.211,168.883,137.221z M171.597,135.762
							c-0.27-0.506-0.904-0.698-1.412-0.424c-0.508,0.272-0.698,0.904-0.427,1.413c0.272,0.507,0.907,0.697,1.413,0.425
							C171.68,136.904,171.871,136.271,171.597,135.762z"/>
					</g>
				</g>
			</g>
		</g>
		<g opacity="0.2">
			<g>
				<g>
					<circle fill="#9F2663" cx="297.085" cy="3.565" r="1.824"/>
					<path fill="#9F2663" d="M296.344,5.859c-1.266-0.408-1.963-1.771-1.554-3.034c0.409-1.267,1.771-1.965,3.037-1.554
						c1.265,0.407,1.962,1.771,1.554,3.035C298.972,5.572,297.609,6.269,296.344,5.859z M297.465,2.389
						c-0.648-0.209-1.346,0.147-1.556,0.796c-0.209,0.647,0.147,1.347,0.797,1.557c0.647,0.21,1.347-0.147,1.556-0.795
						C298.471,3.297,298.113,2.599,297.465,2.389z"/>
				</g>
				<g>
					<g>
						<path fill="#9F2663" d="M280.486,120.102c-0.155-0.05-0.304-0.12-0.441-0.213l-23.526-15.784
							c-0.545-0.365-0.843-1.004-0.77-1.658l2.447-22.097l-18.148,11.044c-0.614,0.372-1.395,0.334-1.972-0.093l-24.163-18.034
							c-0.475-0.354-0.741-0.926-0.705-1.521c0.037-0.592,0.369-1.129,0.886-1.424l44.521-25.469L235.53,46.15
							c-0.51,0.028-1.006-0.165-1.36-0.528c-0.357-0.364-0.538-0.865-0.497-1.374l2.024-25.246c0.038-0.479,0.272-0.925,0.647-1.227
							c0.374-0.306,0.857-0.441,1.334-0.382l38.249,4.893c-2.139-4.315-4.514-12.441,0.616-22.183
							c7.087-13.458,24.587-12.896,31.95-10.518c1,0.323,1.872,0.692,2.595,1.095c7.06,3.947,17.351,16.615,10.368,29.375
							c-5.317,9.715-14.967,14.216-19.471,15.862l23.09,31.855c0.3,0.414,0.406,0.935,0.291,1.432
							c-0.114,0.496-0.438,0.919-0.888,1.16l-23.067,12.311c-0.85,0.454-1.906,0.142-2.373-0.699l-10.615-19.154l-5.62,55.577
							c0.003,0.188-0.024,0.381-0.086,0.571c-0.299,0.926-1.294,1.434-2.22,1.135C280.492,120.104,280.488,120.103,280.486,120.102z
							 M259.372,101.772l20.197,13.549l5.911-58.458c0.076-0.769,0.645-1.396,1.398-1.55c0.758-0.156,1.525,0.2,1.898,0.874
							l12.505,22.558l19.751-10.539L297.705,36.02c-0.344-0.471-0.43-1.082-0.232-1.633c0.199-0.55,0.657-0.963,1.223-1.108
							c0.133-0.035,13.473-3.599,19.667-14.917c6.258-11.435-4.403-22.034-8.995-24.602c-0.513-0.287-1.189-0.567-1.958-0.818
							c-6.185-1.998-21.76-2.556-27.743,8.807c-6.438,12.222,0.973,21.547,1.049,21.641c0.455,0.56,0.524,1.34,0.174,1.971
							c-0.351,0.633-1.049,0.984-1.766,0.894l-40.057-5.124l-1.715,21.385l28.526-1.601c0.815-0.043,1.558,0.477,1.79,1.261
							c0.232,0.783-0.105,1.625-0.816,2.031l-48.671,27.844l21.051,15.712l20.195-12.291c0.574-0.349,1.299-0.341,1.865,0.02
							c0.566,0.361,0.879,1.014,0.805,1.682L259.372,101.772z"/>
					</g>
					<g>
						<path fill="#9F2663" d="M294.682,22.138c-0.537-0.172-1.076-0.389-1.615-0.656c-6.322-3.136-6.529-11.43-6.535-11.781
							c-0.016-0.977,0.761-1.776,1.735-1.793c0.974-0.021,1.773,0.759,1.792,1.731c0.002,0.083,0.197,6.511,4.576,8.682
							c4.497,2.232,9.48-0.527,9.529-0.556c0.847-0.477,1.924-0.182,2.403,0.664c0.479,0.844,0.19,1.917-0.653,2.398
							C305.669,20.969,300.332,23.965,294.682,22.138z"/>
					</g>
					<g>
						<path fill="#9F2663" d="M303.893,7.683c0.309-0.96,1.338-1.486,2.297-1.176c0.957,0.31,1.484,1.339,1.174,2.298
							c-0.309,0.956-1.338,1.483-2.295,1.174C304.109,9.668,303.582,8.639,303.893,7.683z"/>
						<path fill="#9F2663" d="M304.887,10.539c-1.266-0.41-1.963-1.772-1.555-3.037c0.409-1.266,1.771-1.963,3.037-1.554
							c1.266,0.408,1.963,1.771,1.554,3.037C307.514,10.25,306.151,10.947,304.887,10.539z M306.008,7.067
							c-0.648-0.211-1.347,0.147-1.557,0.796c-0.209,0.648,0.147,1.345,0.797,1.556c0.648,0.209,1.346-0.147,1.556-0.796
							S306.656,7.276,306.008,7.067z"/>
					</g>
				</g>
			</g>
		</g>
		<g opacity="0.2">
			<g>
				<g>
					<circle fill="#9F2663" cx="230.764" cy="151.131" r="1.231"/>
					<path fill="#9F2663" d="M232.054,152.124c-0.547,0.712-1.571,0.846-2.283,0.299c-0.712-0.548-0.846-1.572-0.298-2.284
						s1.571-0.845,2.283-0.297C232.468,150.387,232.602,151.412,232.054,152.124z M230.103,150.623
						c-0.281,0.363-0.213,0.89,0.151,1.17s0.89,0.214,1.171-0.152c0.281-0.364,0.211-0.891-0.152-1.171
						C230.907,150.189,230.382,150.259,230.103,150.623z"/>
				</g>
				<g>
					<g>
						<path fill="#9F2663" d="M301.104,188.161c-0.067,0.087-0.146,0.166-0.236,0.231l-15.383,11.376
							c-0.355,0.265-0.828,0.308-1.228,0.112l-13.497-6.574l2.9,14.049c0.098,0.477-0.104,0.963-0.507,1.232l-16.957,11.271
							c-0.334,0.222-0.758,0.259-1.128,0.102c-0.368-0.158-0.634-0.491-0.704-0.887l-6.083-34.099l-4.42,14.976
							c-0.097,0.33-0.333,0.602-0.645,0.745c-0.312,0.145-0.673,0.146-0.987,0.005l-15.594-7.023
							c-0.297-0.133-0.527-0.383-0.634-0.689c-0.109-0.31-0.086-0.646,0.061-0.936l11.8-23.214c-3.23,0.38-8.938,0.045-13.967-5.429
							c-6.948-7.566-2.617-18.566,0.57-22.71c0.432-0.562,0.865-1.033,1.285-1.401c4.114-3.594,14.507-7.259,21.035,0.079
							c4.971,5.589,5.642,12.749,5.666,15.986l25.503-7.447c0.33-0.096,0.688-0.045,0.977,0.14c0.289,0.187,0.484,0.488,0.536,0.828
							l2.588,17.466c0.096,0.645-0.343,1.245-0.984,1.351l-14.592,2.4l34.067,16.198c0.121,0.042,0.236,0.103,0.344,0.184
							c0.521,0.402,0.618,1.149,0.219,1.672C301.107,188.158,301.104,188.159,301.104,188.161z M284.65,197.425l13.204-9.767
							l-35.833-17.039c-0.472-0.223-0.741-0.728-0.667-1.241c0.073-0.516,0.473-0.925,0.986-1.009l17.186-2.828l-2.216-14.954
							l-25.767,7.522c-0.379,0.112-0.787,0.027-1.092-0.224s-0.465-0.636-0.428-1.029c0.008-0.091,0.772-9.384-5.019-15.896
							c-5.85-6.576-15.013-2.204-17.688,0.132c-0.299,0.262-0.631,0.629-0.965,1.06c-2.676,3.479-6.568,13.259-0.703,19.645
							c6.311,6.869,13.925,4.275,14.002,4.249c0.459-0.162,0.971-0.028,1.293,0.336c0.321,0.367,0.387,0.891,0.166,1.326
							l-12.357,24.31l13.21,5.949l5.463-18.505c0.157-0.528,0.656-0.882,1.208-0.851c0.551,0.028,1.01,0.435,1.106,0.979
							l6.65,37.277l14.773-9.818l-3.229-15.635c-0.091-0.443,0.078-0.903,0.437-1.18c0.359-0.278,0.844-0.329,1.253-0.132
							L284.65,197.425z"/>
					</g>
					<g>
						<path fill="#9F2663" d="M242.028,156.88c-0.232,0.301-0.492,0.596-0.784,0.877c-3.431,3.308-8.753,1.556-8.978,1.48
							c-0.623-0.212-0.956-0.888-0.746-1.511c0.209-0.623,0.887-0.956,1.51-0.747c0.053,0.018,4.185,1.354,6.56-0.938
							c2.442-2.354,1.818-6.149,1.812-6.187c-0.111-0.646,0.321-1.264,0.969-1.377c0.646-0.113,1.262,0.313,1.376,0.96
							C243.78,149.626,244.474,153.701,242.028,156.88z"/>
					</g>
					<g>
						<path fill="#9F2663" d="M234.929,147.738c-0.541-0.415-0.642-1.188-0.227-1.729c0.414-0.538,1.188-0.64,1.728-0.224
							c0.538,0.412,0.64,1.188,0.226,1.727C236.24,148.051,235.466,148.152,234.929,147.738z"/>
						<path fill="#9F2663" d="M236.97,147.754c-0.547,0.713-1.572,0.846-2.284,0.299c-0.711-0.548-0.846-1.572-0.298-2.285
							c0.548-0.71,1.572-0.844,2.284-0.297C237.384,146.02,237.518,147.042,236.97,147.754z M235.017,146.253
							c-0.281,0.365-0.211,0.889,0.153,1.17c0.365,0.28,0.89,0.213,1.171-0.152c0.279-0.365,0.211-0.89-0.153-1.17
							C235.823,145.818,235.298,145.888,235.017,146.253z"/>
					</g>
				</g>
			</g>
		</g>
		<g opacity="0.2">
			<g>
				<g>
					<circle fill="#9F2663" cx="373.383" cy="17.732" r="1.462"/>
					<path fill="#9F2663" d="M374.916,18.911c-0.65,0.845-1.867,1.003-2.711,0.354c-0.846-0.65-1.005-1.865-0.354-2.712
						c0.648-0.845,1.865-1.003,2.71-0.354C375.408,16.85,375.566,18.064,374.916,18.911z M372.6,17.13
						c-0.336,0.432-0.254,1.057,0.18,1.388c0.432,0.333,1.057,0.254,1.391-0.18c0.333-0.435,0.25-1.058-0.182-1.39
						C373.555,16.615,372.931,16.695,372.6,17.13z"/>
				</g>
				<g>
					<g>
						<path fill="#9F2663" d="M456.904,61.701c-0.078,0.104-0.172,0.197-0.279,0.275l-18.266,13.51
							c-0.423,0.311-0.984,0.363-1.459,0.132l-16.025-7.807l3.443,16.681c0.116,0.565-0.123,1.146-0.602,1.465L403.582,99.34
							c-0.396,0.263-0.9,0.308-1.338,0.121c-0.438-0.188-0.755-0.583-0.837-1.053l-7.224-40.488l-5.248,17.781
							c-0.115,0.392-0.396,0.715-0.766,0.885c-0.371,0.17-0.798,0.172-1.17,0.006l-18.518-8.339
							c-0.354-0.159-0.626-0.456-0.753-0.82c-0.13-0.366-0.103-0.768,0.071-1.111l14.012-27.562
							c-3.836,0.45-10.612,0.054-16.584-6.448c-8.25-8.983-3.106-22.045,0.676-26.963c0.514-0.668,1.028-1.229,1.527-1.664
							c4.886-4.268,17.226-8.62,24.977,0.092c5.902,6.637,6.699,15.138,6.728,18.981l30.282-8.842
							c0.393-0.114,0.816-0.054,1.16,0.166c0.344,0.222,0.576,0.579,0.637,0.983l3.073,20.739c0.113,0.764-0.407,1.479-1.169,1.603
							l-17.326,2.851l40.451,19.233c0.144,0.05,0.28,0.123,0.408,0.219c0.619,0.478,0.734,1.365,0.26,1.983
							C456.909,61.697,456.906,61.699,456.904,61.701z M437.369,72.7l15.678-11.596l-42.548-20.232
							c-0.56-0.266-0.88-0.864-0.792-1.475c0.087-0.612,0.561-1.097,1.171-1.196l20.407-3.358l-2.631-17.757l-30.596,8.934
							c-0.449,0.133-0.935,0.031-1.298-0.267c-0.36-0.298-0.551-0.755-0.507-1.223c0.01-0.108,0.917-11.143-5.959-18.874
							c-6.945-7.809-17.826-2.617-21.002,0.157c-0.355,0.311-0.751,0.746-1.146,1.259c-3.178,4.132-7.799,15.741-0.834,23.324
							c7.492,8.158,16.533,5.077,16.624,5.045c0.545-0.191,1.153-0.033,1.534,0.4c0.383,0.436,0.461,1.058,0.199,1.575
							l-14.674,28.864l15.686,7.064l6.486-21.975c0.188-0.626,0.779-1.047,1.435-1.009c0.654,0.034,1.198,0.516,1.313,1.163
							l7.896,44.262l17.543-11.656l-3.834-18.566c-0.107-0.527,0.093-1.072,0.519-1.401c0.426-0.331,1.001-0.392,1.485-0.156
							L437.369,72.7z"/>
					</g>
					<g>
						<path fill="#9F2663" d="M386.76,24.557c-0.275,0.36-0.586,0.709-0.932,1.043c-4.073,3.929-10.393,1.848-10.659,1.759
							c-0.74-0.253-1.136-1.056-0.886-1.796c0.248-0.74,1.052-1.133,1.791-0.886c0.062,0.021,4.97,1.609,7.789-1.114
							c2.9-2.794,2.16-7.301,2.151-7.345c-0.13-0.769,0.382-1.501,1.149-1.635c0.768-0.135,1.499,0.373,1.636,1.14
							C388.84,15.946,389.663,20.784,386.76,24.557z"/>
					</g>
					<g>
						<circle fill="#9F2663" cx="379.22" cy="12.544" r="1.462"/>
						<path fill="#9F2663" d="M380.754,13.724c-0.65,0.846-1.868,1.004-2.714,0.354c-0.844-0.65-1.003-1.868-0.353-2.713
							c0.649-0.845,1.867-1.003,2.712-0.354S381.403,12.878,380.754,13.724z M378.434,11.94c-0.334,0.432-0.25,1.057,0.183,1.39
							s1.056,0.252,1.39-0.182c0.333-0.434,0.252-1.057-0.182-1.39C379.391,11.425,378.768,11.507,378.434,11.94z"/>
					</g>
				</g>
			</g>
		</g>
		<g opacity="0.2">
			<g>
				<g>
					<circle fill="#9F2663" cx="380.414" cy="220.106" r="1.46"/>
					<path fill="#9F2663" d="M379.34,221.71c-0.885-0.595-1.121-1.793-0.53-2.679c0.593-0.885,1.794-1.122,2.679-0.53
						s1.121,1.796,0.528,2.679C381.424,222.064,380.225,222.301,379.34,221.71z M380.965,219.284
						c-0.453-0.306-1.07-0.183-1.373,0.27s-0.183,1.069,0.271,1.375c0.454,0.303,1.069,0.179,1.372-0.273
						C381.539,220.203,381.418,219.586,380.965,219.284z"/>
				</g>
				<g>
					<g>
						<path fill="#9F2663" d="M342.062,306.171c-0.109-0.071-0.208-0.159-0.292-0.262l-14.648-17.311
							c-0.338-0.402-0.426-0.959-0.227-1.447l6.731-16.473l-16.392,4.518c-0.557,0.154-1.148-0.048-1.498-0.504l-14.645-19.184
							c-0.287-0.378-0.365-0.877-0.209-1.326c0.159-0.446,0.532-0.787,0.994-0.902l39.861-9.833l-18.055-4.069
							c-0.398-0.089-0.737-0.347-0.932-0.705c-0.193-0.359-0.223-0.785-0.082-1.167l7.1-18.988c0.135-0.361,0.414-0.653,0.768-0.803
							c0.356-0.153,0.758-0.152,1.111,0l28.369,12.16c-0.699-3.795-0.744-10.569,5.342-16.941
							c8.411-8.804,21.757-4.533,26.903-1.085c0.698,0.469,1.29,0.943,1.759,1.413c4.568,4.587,9.708,16.595,1.534,24.887
							c-6.226,6.31-14.642,7.658-18.47,7.938l10.783,29.588c0.141,0.383,0.107,0.809-0.09,1.166s-0.538,0.611-0.938,0.698
							l-20.459,4.413c-0.754,0.164-1.498-0.308-1.672-1.059l-3.97-17.073l-16.521,41.548c-0.04,0.146-0.104,0.289-0.19,0.423
							c-0.436,0.646-1.312,0.82-1.959,0.386C342.066,306.176,342.063,306.173,342.062,306.171z M329.832,287.429l12.572,14.861
							l17.38-43.702c0.228-0.575,0.804-0.934,1.416-0.885c0.616,0.045,1.131,0.486,1.269,1.086l4.678,20.108l17.516-3.777
							l-10.894-29.896c-0.161-0.438-0.093-0.928,0.181-1.309c0.273-0.378,0.717-0.597,1.184-0.584c0.108,0,11.16,0.186,18.414-7.168
							c7.324-7.429,1.443-17.929-1.526-20.911c-0.332-0.333-0.792-0.698-1.328-1.06c-4.323-2.895-16.189-6.744-23.29,0.69
							c-7.637,7.995-3.979,16.8-3.94,16.89c0.227,0.529,0.108,1.146-0.298,1.555c-0.41,0.41-1.025,0.527-1.556,0.3l-29.711-12.736
							l-6.013,16.087l22.311,5.03c0.637,0.145,1.094,0.708,1.099,1.361c0.009,0.653-0.436,1.227-1.071,1.385l-43.577,10.753
							l12.757,16.713l18.242-5.028c0.519-0.141,1.075,0.021,1.432,0.425c0.357,0.402,0.455,0.973,0.252,1.47L329.832,287.429z"/>
					</g>
					<g>
						<path fill="#9F2663" d="M374.487,233.877c-0.376-0.254-0.743-0.539-1.098-0.862c-4.181-3.8-2.519-10.23-2.448-10.502
							c0.203-0.754,0.977-1.2,1.73-1c0.754,0.199,1.199,0.974,1,1.727c-0.018,0.063-1.279,5.055,1.617,7.688
							c2.973,2.705,7.413,1.673,7.458,1.661c0.757-0.18,1.521,0.284,1.703,1.04c0.185,0.755-0.273,1.517-1.028,1.704
							C383.202,235.386,378.436,236.52,374.487,233.877z"/>
					</g>
					<g>
						<circle fill="#9F2663" cx="385.962" cy="225.582" r="1.46"/>
						<path fill="#9F2663" d="M384.889,227.185c-0.885-0.591-1.122-1.794-0.53-2.677c0.593-0.885,1.795-1.123,2.679-0.53
							c0.883,0.593,1.121,1.794,0.53,2.678C386.975,227.54,385.772,227.779,384.889,227.185z M386.512,224.759
							c-0.451-0.304-1.068-0.182-1.37,0.272c-0.305,0.452-0.183,1.066,0.271,1.371s1.068,0.183,1.373-0.271
							C387.088,225.679,386.967,225.062,386.512,224.759z"/>
					</g>
				</g>
			</g>
		</g>
		<g opacity="0.2">
			<g>
				<g>
					<circle fill="#9F2663" cx="419.139" cy="128.407" r="1.54"/>
					<path fill="#9F2663" d="M417.344,129.37c-0.531-0.988-0.158-2.228,0.831-2.758s2.227-0.158,2.759,0.832
						c0.531,0.987,0.158,2.228-0.832,2.757C419.112,130.732,417.875,130.36,417.344,129.37z M420.058,127.914
						c-0.271-0.508-0.907-0.7-1.413-0.429c-0.506,0.274-0.699,0.907-0.427,1.416c0.272,0.508,0.907,0.697,1.413,0.425
						C420.139,129.055,420.33,128.419,420.058,127.914z"/>
				</g>
				<g>
					<g>
						<path fill="#9F2663" d="M340.805,189.662c-0.065-0.122-0.113-0.251-0.143-0.388l-5.089-23.387
							c-0.118-0.541,0.075-1.104,0.502-1.459l14.427-12.025l-17.517-3.899c-0.593-0.133-1.046-0.612-1.147-1.211l-4.159-25.128
							c-0.082-0.494,0.093-0.997,0.462-1.339c0.369-0.339,0.886-0.473,1.372-0.348l42.024,10.552l-14.817-12.726
							c-0.327-0.279-0.517-0.69-0.519-1.118c-0.005-0.429,0.179-0.841,0.5-1.127l16.014-14.188c0.303-0.271,0.707-0.405,1.111-0.37
							c0.408,0.034,0.782,0.234,1.037,0.551l20.43,25.371c1.224-3.881,4.534-10.222,13.359-13.149
							c12.197-4.047,22.525,6.538,25.617,12.299c0.42,0.781,0.736,1.521,0.939,2.187c1.989,6.537,0.839,20.274-10.882,23.959
							c-8.926,2.804-17.438-0.104-21.144-1.738l-4.589,32.918c-0.059,0.427-0.3,0.808-0.659,1.043
							c-0.361,0.234-0.807,0.303-1.22,0.188l-21.257-6.009c-0.783-0.222-1.243-1.029-1.034-1.815l4.747-17.881l-35.959,30.559
							c-0.109,0.117-0.238,0.218-0.387,0.298c-0.725,0.387-1.627,0.115-2.016-0.608C340.807,189.67,340.807,189.665,340.805,189.662
							z M338.677,166.14l4.369,20.073l37.822-32.141c0.497-0.423,1.211-0.472,1.759-0.125c0.551,0.35,0.812,1.015,0.645,1.643
							l-5.59,21.061l18.198,5.144l4.636-33.258c0.066-0.49,0.373-0.91,0.816-1.131c0.441-0.219,0.963-0.204,1.393,0.04
							c0.1,0.057,10.311,5.694,20.711,2.43c10.504-3.301,10.217-15.999,8.924-20.248c-0.145-0.477-0.394-1.045-0.715-1.644
							c-2.597-4.841-11.756-14.298-22.051-10.883c-11.076,3.676-12.022,13.694-12.03,13.795c-0.052,0.607-0.466,1.122-1.048,1.303
							c-0.584,0.179-1.215-0.015-1.598-0.49l-21.396-26.57l-13.564,12.02l18.311,15.727c0.521,0.451,0.67,1.201,0.352,1.814
							c-0.314,0.614-1.014,0.927-1.686,0.759l-45.941-11.536l3.621,21.894l19.495,4.337c0.554,0.124,0.991,0.552,1.123,1.104
							c0.135,0.552-0.057,1.132-0.492,1.497L338.677,166.14z"/>
					</g>
					<g>
						<path fill="#9F2663" d="M406.801,138.311c-0.226-0.42-0.428-0.868-0.598-1.346c-2.016-5.61,2.715-10.782,2.916-11
							c0.562-0.603,1.503-0.637,2.106-0.075c0.604,0.556,0.636,1.499,0.077,2.103c-0.047,0.053-3.691,4.081-2.295,7.966
							c1.432,3.993,6.082,5.229,6.129,5.241c0.795,0.206,1.277,1.015,1.074,1.811c-0.202,0.795-1.006,1.278-1.802,1.079
							C414.178,144.031,409.172,142.73,406.801,138.311z"/>
					</g>
					<g>
						<circle fill="#9F2663" cx="421.602" cy="136.257" r="1.54"/>
						<path fill="#9F2663" d="M419.807,137.221c-0.53-0.989-0.157-2.229,0.831-2.759c0.991-0.53,2.229-0.158,2.761,0.832
							c0.529,0.989,0.156,2.229-0.833,2.759C421.575,138.584,420.339,138.211,419.807,137.221z M422.521,135.762
							c-0.271-0.506-0.906-0.698-1.412-0.424c-0.508,0.272-0.699,0.904-0.428,1.413c0.273,0.507,0.906,0.697,1.414,0.425
							C422.604,136.904,422.795,136.271,422.521,135.762z"/>
					</g>
				</g>
			</g>
		</g>
		<g opacity="0.2">
			<g>
				<g>
					<circle fill="#9F2663" cx="555.269" cy="3.565" r="1.824"/>
					<path fill="#9F2663" d="M554.527,5.859c-1.266-0.408-1.963-1.771-1.555-3.034c0.409-1.267,1.771-1.965,3.037-1.554
						c1.266,0.407,1.963,1.771,1.554,3.035C557.155,5.572,555.793,6.269,554.527,5.859z M555.648,2.389
						c-0.648-0.209-1.347,0.147-1.557,0.796c-0.209,0.647,0.148,1.347,0.797,1.557s1.346-0.147,1.557-0.795
						C556.654,3.297,556.297,2.599,555.648,2.389z"/>
				</g>
				<g>
					<g>
						<path fill="#9F2663" d="M538.669,120.102c-0.154-0.05-0.303-0.12-0.441-0.213l-23.526-15.784
							c-0.545-0.365-0.842-1.004-0.77-1.658l2.447-22.097L498.23,91.394c-0.614,0.372-1.395,0.334-1.972-0.093l-24.162-18.034
							c-0.476-0.354-0.741-0.926-0.705-1.521c0.036-0.592,0.368-1.129,0.885-1.424l44.521-25.469l-23.084,1.297
							c-0.51,0.028-1.006-0.165-1.36-0.528c-0.356-0.364-0.537-0.865-0.497-1.374l2.025-25.246c0.038-0.479,0.271-0.925,0.646-1.227
							c0.375-0.306,0.857-0.441,1.335-0.382l38.249,4.893c-2.141-4.315-4.516-12.441,0.615-22.183
							c7.088-13.458,24.586-12.896,31.951-10.518c0.999,0.323,1.872,0.692,2.594,1.095c7.061,3.947,17.351,16.615,10.369,29.375
							c-5.318,9.715-14.968,14.216-19.471,15.862l23.09,31.855c0.299,0.414,0.405,0.935,0.291,1.432
							c-0.115,0.496-0.439,0.919-0.889,1.16l-23.066,12.311c-0.851,0.454-1.906,0.142-2.373-0.699l-10.615-19.154l-5.621,55.577
							c0.002,0.188-0.023,0.381-0.086,0.571c-0.299,0.926-1.294,1.434-2.221,1.135C538.676,120.104,538.672,120.103,538.669,120.102
							z M517.556,101.772l20.196,13.549l5.911-58.458c0.077-0.769,0.645-1.396,1.399-1.55c0.756-0.156,1.525,0.2,1.897,0.874
							l12.505,22.558l19.751-10.539L555.889,36.02c-0.344-0.471-0.43-1.082-0.232-1.633c0.199-0.55,0.656-0.963,1.222-1.108
							c0.133-0.035,13.473-3.599,19.667-14.917c6.258-11.435-4.403-22.034-8.995-24.602c-0.513-0.287-1.189-0.567-1.958-0.818
							c-6.186-1.998-21.76-2.556-27.744,8.807c-6.436,12.222,0.974,21.547,1.05,21.641c0.456,0.56,0.524,1.34,0.175,1.971
							c-0.352,0.633-1.05,0.984-1.766,0.894l-40.058-5.124l-1.715,21.385l28.526-1.601c0.816-0.043,1.559,0.477,1.79,1.261
							c0.232,0.783-0.104,1.625-0.815,2.031l-48.672,27.844l21.051,15.712L517.61,75.47c0.574-0.349,1.298-0.341,1.864,0.02
							c0.566,0.361,0.879,1.014,0.806,1.682L517.556,101.772z"/>
					</g>
					<g>
						<path fill="#9F2663" d="M552.864,22.138c-0.537-0.172-1.075-0.389-1.614-0.656c-6.323-3.136-6.529-11.43-6.535-11.781
							c-0.017-0.977,0.76-1.776,1.734-1.793c0.974-0.021,1.773,0.759,1.793,1.731c0.002,0.083,0.196,6.511,4.575,8.682
							c4.497,2.232,9.48-0.527,9.53-0.556c0.847-0.477,1.923-0.182,2.402,0.664c0.48,0.844,0.189,1.917-0.653,2.398
							C563.853,20.969,558.515,23.965,552.864,22.138z"/>
					</g>
					<g>
						<path fill="#9F2663" d="M562.074,7.683c0.311-0.96,1.34-1.486,2.297-1.176c0.959,0.31,1.485,1.339,1.175,2.298
							c-0.308,0.956-1.338,1.483-2.296,1.174C562.292,9.668,561.766,8.639,562.074,7.683z"/>
						<path fill="#9F2663" d="M563.069,10.539c-1.266-0.41-1.963-1.772-1.554-3.037c0.408-1.266,1.771-1.963,3.037-1.554
							c1.266,0.408,1.962,1.771,1.553,3.037C565.697,10.25,564.334,10.947,563.069,10.539z M564.191,7.067
							c-0.649-0.211-1.347,0.147-1.557,0.796c-0.209,0.648,0.146,1.345,0.796,1.556c0.648,0.209,1.347-0.147,1.556-0.796
							C565.197,7.975,564.84,7.276,564.191,7.067z"/>
					</g>
				</g>
			</g>
		</g>
		<g opacity="0.2">
			<g>
				<g>
					<circle fill="#9F2663" cx="488.946" cy="151.131" r="1.231"/>
					<path fill="#9F2663" d="M490.237,152.124c-0.548,0.712-1.572,0.846-2.284,0.299c-0.711-0.548-0.845-1.572-0.298-2.284
						c0.548-0.712,1.572-0.845,2.283-0.297C490.65,150.387,490.784,151.412,490.237,152.124z M488.285,150.623
						c-0.281,0.363-0.213,0.89,0.152,1.17c0.363,0.28,0.889,0.214,1.17-0.152c0.281-0.364,0.212-0.891-0.152-1.171
						S488.565,150.259,488.285,150.623z"/>
				</g>
				<g>
					<g>
						<path fill="#9F2663" d="M559.286,188.161c-0.067,0.087-0.146,0.166-0.235,0.231l-15.383,11.376
							c-0.355,0.265-0.83,0.308-1.229,0.112l-13.497-6.574l2.899,14.049c0.099,0.477-0.104,0.963-0.506,1.232l-16.957,11.271
							c-0.334,0.222-0.758,0.259-1.127,0.102c-0.368-0.158-0.635-0.491-0.704-0.887l-6.084-34.099l-4.42,14.976
							c-0.097,0.33-0.333,0.602-0.645,0.745c-0.312,0.145-0.673,0.146-0.985,0.005l-15.596-7.023
							c-0.297-0.133-0.527-0.383-0.634-0.689c-0.109-0.31-0.086-0.646,0.061-0.936l11.801-23.214
							c-3.231,0.38-8.938,0.045-13.968-5.429c-6.947-7.566-2.617-18.566,0.57-22.71c0.432-0.562,0.865-1.033,1.285-1.401
							c4.114-3.594,14.508-7.259,21.035,0.079c4.971,5.589,5.642,12.749,5.666,15.986l25.503-7.447
							c0.331-0.096,0.687-0.045,0.976,0.14c0.291,0.187,0.486,0.488,0.537,0.828l2.588,17.466c0.096,0.645-0.342,1.245-0.984,1.351
							l-14.592,2.4L558.73,186.3c0.121,0.042,0.235,0.103,0.344,0.184c0.521,0.402,0.618,1.149,0.218,1.672
							C559.29,188.158,559.287,188.159,559.286,188.161z M542.834,197.425l13.203-9.767l-35.833-17.039
							c-0.472-0.223-0.741-0.728-0.667-1.241c0.073-0.516,0.473-0.925,0.986-1.009l17.187-2.828l-2.216-14.954l-25.768,7.522
							c-0.379,0.112-0.786,0.027-1.092-0.224c-0.304-0.251-0.464-0.636-0.428-1.029c0.008-0.091,0.772-9.384-5.019-15.896
							c-5.849-6.576-15.013-2.204-17.688,0.132c-0.299,0.262-0.631,0.629-0.964,1.06c-2.676,3.479-6.569,13.259-0.703,19.645
							c6.31,6.869,13.925,4.275,14.001,4.249c0.459-0.162,0.971-0.028,1.293,0.336c0.322,0.367,0.388,0.891,0.166,1.326
							l-12.357,24.31l13.211,5.949l5.462-18.505c0.157-0.528,0.657-0.882,1.208-0.851c0.551,0.028,1.01,0.435,1.106,0.979
							l6.651,37.277l14.773-9.818l-3.229-15.635c-0.092-0.443,0.078-0.903,0.436-1.18c0.359-0.278,0.844-0.329,1.252-0.132
							L542.834,197.425z"/>
					</g>
					<g>
						<path fill="#9F2663" d="M500.211,156.88c-0.232,0.301-0.492,0.596-0.783,0.877c-3.432,3.308-8.754,1.556-8.978,1.48
							c-0.624-0.212-0.957-0.888-0.745-1.511c0.207-0.623,0.885-0.956,1.508-0.747c0.053,0.018,4.186,1.354,6.561-0.938
							c2.441-2.354,1.818-6.149,1.811-6.187c-0.111-0.646,0.322-1.264,0.969-1.377s1.262,0.313,1.376,0.96
							C501.963,149.626,502.656,153.701,500.211,156.88z"/>
					</g>
					<g>
						<path fill="#9F2663" d="M493.111,147.738c-0.541-0.415-0.642-1.188-0.227-1.729c0.414-0.538,1.188-0.64,1.728-0.224
							c0.538,0.412,0.64,1.188,0.226,1.727C494.424,148.051,493.649,148.152,493.111,147.738z"/>
						<path fill="#9F2663" d="M495.153,147.754c-0.548,0.713-1.573,0.846-2.284,0.299c-0.712-0.548-0.847-1.572-0.299-2.285
							c0.548-0.71,1.573-0.844,2.284-0.297C495.566,146.02,495.7,147.042,495.153,147.754z M493.199,146.253
							c-0.28,0.365-0.211,0.889,0.154,1.17c0.364,0.28,0.889,0.213,1.17-0.152s0.212-0.89-0.152-1.17
							C494.006,145.818,493.48,145.888,493.199,146.253z"/>
					</g>
				</g>
			</g>
		</g>
		<g opacity="0.2">
			<g>
				<g>
					<g>
						<path fill="#9F2663" d="M600.244,306.171c-0.109-0.071-0.207-0.159-0.291-0.262l-14.648-17.311
							c-0.339-0.402-0.427-0.959-0.228-1.447l6.731-16.473l-16.393,4.518c-0.555,0.154-1.146-0.048-1.497-0.504l-14.644-19.184
							c-0.288-0.378-0.366-0.877-0.209-1.326c0.158-0.446,0.532-0.787,0.994-0.902l39.861-9.833l-18.055-4.069
							c-0.399-0.089-0.738-0.347-0.932-0.705c-0.194-0.359-0.224-0.785-0.083-1.167l7.101-18.988
							c0.134-0.361,0.412-0.653,0.768-0.803c0.355-0.153,0.757-0.152,1.111,0l28.369,12.16c-0.699-3.795-0.744-10.569,5.342-16.941
							c8.41-8.804,21.756-4.533,26.902-1.085c0.699,0.469,1.291,0.943,1.758,1.413c4.569,4.587,9.709,16.595,1.535,24.887
							c-6.226,6.31-14.641,7.658-18.469,7.938l10.783,29.588c0.14,0.383,0.107,0.809-0.09,1.166
							c-0.199,0.357-0.539,0.611-0.938,0.698l-20.459,4.413c-0.754,0.164-1.5-0.308-1.673-1.059l-3.97-17.073l-16.521,41.548
							c-0.039,0.146-0.104,0.289-0.19,0.423c-0.436,0.646-1.312,0.82-1.958,0.386C600.249,306.176,600.246,306.173,600.244,306.171z
							 M588.015,287.429l12.573,14.861l17.379-43.702c0.228-0.575,0.804-0.934,1.416-0.885c0.616,0.045,1.131,0.486,1.27,1.086
							l4.677,20.108l17.517-3.777l-10.895-29.896c-0.16-0.438-0.093-0.928,0.182-1.309c0.271-0.378,0.716-0.597,1.184-0.584
							c0.107,0,11.16,0.186,18.414-7.168c7.324-7.429,1.443-17.929-1.527-20.911c-0.332-0.333-0.791-0.698-1.328-1.06
							c-4.322-2.895-16.189-6.744-23.289,0.69c-7.639,7.995-3.979,16.8-3.941,16.89c0.227,0.529,0.109,1.146-0.298,1.555
							c-0.41,0.41-1.024,0.527-1.556,0.3l-29.711-12.736l-6.014,16.087l22.311,5.03c0.637,0.145,1.096,0.708,1.1,1.361
							c0.01,0.653-0.436,1.227-1.071,1.385l-43.577,10.753l12.757,16.713l18.243-5.028c0.518-0.141,1.074,0.021,1.431,0.425
							c0.358,0.402,0.455,0.973,0.252,1.47L588.015,287.429z"/>
					</g>
				</g>
			</g>
		</g>
		<g opacity="0.2">
			<g>
				<g>
					<g>
						<path fill="#9F2663" d="M598.988,189.662c-0.066-0.122-0.114-0.251-0.144-0.388l-5.089-23.387
							c-0.117-0.541,0.076-1.104,0.502-1.459l14.427-12.025l-17.517-3.899c-0.593-0.133-1.047-0.612-1.146-1.211l-4.16-25.128
							c-0.081-0.494,0.093-0.997,0.463-1.339c0.369-0.339,0.885-0.473,1.371-0.348l42.025,10.552l-14.817-12.726
							c-0.329-0.279-0.517-0.69-0.52-1.118c-0.005-0.429,0.179-0.841,0.5-1.127l16.013-14.188c0.305-0.271,0.708-0.405,1.113-0.37
							c0.408,0.034,0.781,0.234,1.036,0.551l20.431,25.371c1.223-3.881,4.534-10.222,13.359-13.149
							c12.197-4.047,22.525,6.538,25.617,12.299c0.419,0.781,0.734,1.521,0.939,2.187c1.988,6.537,0.839,20.274-10.883,23.959
							c-8.926,2.804-17.438-0.104-21.144-1.738l-4.589,32.918c-0.059,0.427-0.299,0.808-0.66,1.043
							c-0.361,0.234-0.805,0.303-1.219,0.188l-21.256-6.009c-0.783-0.222-1.244-1.029-1.035-1.815l4.747-17.881l-35.958,30.559
							c-0.109,0.117-0.238,0.218-0.387,0.298c-0.726,0.387-1.628,0.115-2.018-0.608C598.99,189.67,598.99,189.665,598.988,189.662z
							 M596.859,166.14l4.369,20.073l37.822-32.141c0.497-0.423,1.211-0.472,1.76-0.125c0.551,0.35,0.812,1.015,0.645,1.643
							l-5.592,21.061l18.2,5.144l4.636-33.258c0.066-0.49,0.373-0.91,0.815-1.131c0.442-0.219,0.964-0.204,1.394,0.04
							c0.1,0.057,10.311,5.694,20.711,2.43c10.503-3.301,10.217-15.999,8.923-20.248c-0.146-0.477-0.394-1.045-0.714-1.644
							c-2.598-4.841-11.757-14.298-22.051-10.883c-11.076,3.676-12.023,13.694-12.031,13.795c-0.051,0.607-0.466,1.122-1.047,1.303
							c-0.585,0.179-1.217-0.015-1.598-0.49l-21.396-26.57l-13.564,12.02l18.31,15.727c0.521,0.451,0.671,1.201,0.351,1.814
							c-0.314,0.614-1.013,0.927-1.684,0.759l-45.943-11.536l3.623,21.894l19.494,4.337c0.555,0.124,0.991,0.552,1.124,1.104
							c0.134,0.552-0.058,1.132-0.493,1.497L596.859,166.14z"/>
					</g>
				</g>
			</g>
		</g>
	</g>
</g>
</svg>
