<?xml version="1.0" encoding="utf-8"?>
<!-- Generator: Adobe Illustrator 16.0.0, SVG Export Plug-In . SVG Version: 6.00 Build 0)  -->
<!DOCTYPE svg PUBLIC "-//W3C//DTD SVG 1.1//EN" "http://www.w3.org/Graphics/SVG/1.1/DTD/svg11.dtd">
<svg version="1.1" id="Layer_1" xmlns="http://www.w3.org/2000/svg" xmlns:xlink="http://www.w3.org/1999/xlink" x="0px" y="0px"
	 width="612px" height="303.436px" viewBox="0 0 612 303.436" enable-background="new 0 0 612 303.436" xml:space="preserve">
<g>
	<defs>
		<rect id="SVGID_3_" x="-689.034" y="-179.074" width="612" height="223.604"/>
	</defs>
	<clipPath id="SVGID_2_">
		<use xlink:href="#SVGID_3_"  overflow="visible"/>
	</clipPath>
	<g opacity="0.7" clip-path="url(#SVGID_2_)">
		<g opacity="0.2">
			<g>
				<g>
					<g>
						<path fill="#327599" d="M-90.574,10.588c-0.066-0.122-0.114-0.251-0.144-0.388l-5.089-23.387
							c-0.117-0.541,0.076-1.104,0.502-1.459l14.427-12.025l-17.517-3.899c-0.593-0.133-1.047-0.612-1.146-1.211l-4.16-25.128
							c-0.081-0.494,0.093-0.997,0.463-1.339c0.369-0.339,0.885-0.473,1.371-0.348l42.025,10.552L-74.659-60.77
							c-0.329-0.279-0.517-0.69-0.52-1.118c-0.005-0.429,0.179-0.841,0.5-1.127l16.013-14.188c0.305-0.271,0.708-0.405,1.113-0.37
							c0.408,0.034,0.781,0.234,1.036,0.551l20.431,25.371c1.223-3.881,4.534-10.222,13.359-13.149
							c12.197-4.047,22.525,6.538,25.617,12.299c0.419,0.781,0.734,1.521,0.939,2.187c1.988,6.537,0.839,20.274-10.883,23.959
							c-8.926,2.804-17.438-0.104-21.144-1.738l-4.589,32.918c-0.059,0.427-0.299,0.808-0.66,1.043
							c-0.361,0.234-0.805,0.303-1.219,0.188L-55.92,0.046c-0.783-0.222-1.244-1.029-1.035-1.815l4.747-17.881l-35.958,30.559
							c-0.109,0.117-0.238,0.218-0.387,0.298c-0.726,0.387-1.628,0.115-2.018-0.608C-90.572,10.596-90.572,10.591-90.574,10.588z
							 M-92.703-12.935l4.369,20.073l37.822-32.141c0.497-0.423,1.211-0.472,1.76-0.125c0.551,0.35,0.812,1.015,0.645,1.643
							l-5.592,21.061l18.2,5.144l4.636-33.258c0.066-0.49,0.373-0.91,0.815-1.131c0.442-0.219,0.964-0.204,1.394,0.04
							c0.1,0.057,10.311,5.694,20.711,2.43C2.56-32.5,2.273-45.198,0.979-49.447c-0.146-0.477-0.394-1.045-0.714-1.644
							c-2.598-4.841-11.757-14.298-22.051-10.883c-11.076,3.676-12.023,13.694-12.031,13.795c-0.051,0.607-0.466,1.122-1.047,1.303
							c-0.585,0.179-1.217-0.015-1.598-0.49l-21.396-26.57l-13.564,12.02l18.31,15.727c0.521,0.451,0.671,1.201,0.351,1.814
							c-0.314,0.614-1.013,0.927-1.684,0.759l-45.943-11.536l3.623,21.894l19.494,4.337c0.555,0.124,0.991,0.552,1.124,1.104
							c0.134,0.552-0.058,1.132-0.493,1.497L-92.703-12.935z"/>
					</g>
				</g>
			</g>
		</g>
	</g>
</g>
<g>
	<defs>
		<rect id="SVGID_5_" x="-688.771" y="72.245" width="612" height="231.191"/>
	</defs>
	<clipPath id="SVGID_4_">
		<use xlink:href="#SVGID_5_"  overflow="visible"/>
	</clipPath>
	<g opacity="0.7" clip-path="url(#SVGID_4_)">
		<g opacity="0.2">
			<g>
				<g>
					<g>
						<path fill="#9F2663" d="M25.789,133.946c-0.08,0.104-0.173,0.197-0.28,0.275l-18.265,13.51
							c-0.424,0.311-0.986,0.363-1.459,0.132l-16.027-7.807l3.445,16.681c0.115,0.565-0.124,1.146-0.603,1.465l-20.135,13.383
							c-0.396,0.263-0.899,0.308-1.339,0.121c-0.437-0.188-0.754-0.583-0.836-1.053l-7.223-40.488l-5.248,17.781
							c-0.115,0.392-0.396,0.715-0.767,0.885s-0.798,0.172-1.171,0.006l-18.517-8.339c-0.353-0.159-0.626-0.456-0.753-0.82
							c-0.129-0.366-0.102-0.768,0.072-1.111l14.012-27.562c-3.836,0.45-10.612,0.054-16.584-6.448
							c-8.25-8.983-3.107-22.045,0.676-26.963c0.514-0.668,1.028-1.229,1.527-1.664c4.885-4.268,17.225-8.62,24.977,0.092
							c5.902,6.637,6.699,15.138,6.727,18.981l30.283-8.842c0.393-0.114,0.815-0.054,1.159,0.166
							c0.345,0.222,0.576,0.579,0.637,0.983l3.073,20.739c0.113,0.764-0.406,1.479-1.169,1.603l-17.326,2.851l40.451,19.233
							c0.144,0.05,0.28,0.123,0.409,0.219c0.618,0.478,0.734,1.365,0.258,1.983C25.793,133.942,25.791,133.944,25.789,133.946z
							 M6.253,144.945l15.678-11.596l-42.548-20.232c-0.559-0.266-0.879-0.864-0.792-1.475c0.087-0.612,0.562-1.097,1.171-1.196
							l20.408-3.358l-2.631-17.757l-30.597,8.934c-0.45,0.133-0.935,0.031-1.298-0.267c-0.359-0.298-0.551-0.755-0.506-1.223
							c0.009-0.108,0.916-11.143-5.959-18.874c-6.946-7.809-17.827-2.617-21.004,0.157c-0.354,0.311-0.749,0.746-1.145,1.259
							c-3.178,4.132-7.8,15.741-0.835,23.324c7.491,8.158,16.533,5.077,16.624,5.045c0.545-0.191,1.153-0.033,1.535,0.4
							c0.383,0.436,0.461,1.058,0.199,1.575l-14.675,28.864l15.686,7.064l6.486-21.975c0.187-0.626,0.78-1.047,1.435-1.009
							c0.654,0.034,1.199,0.516,1.314,1.163l7.896,44.262l17.543-11.656l-3.834-18.566c-0.108-0.527,0.092-1.072,0.518-1.401
							c0.427-0.331,1.002-0.392,1.486-0.156L6.253,144.945z"/>
					</g>
				</g>
			</g>
		</g>
		<g opacity="0.2">
			<g>
				<g>
					<g>
						<path fill="#9F2663" d="M-90.311,261.907c-0.066-0.122-0.114-0.251-0.144-0.388l-5.089-23.387
							c-0.117-0.541,0.076-1.104,0.502-1.459l14.427-12.025l-17.517-3.899c-0.593-0.133-1.047-0.612-1.146-1.211l-4.16-25.128
							c-0.081-0.494,0.093-0.997,0.463-1.339c0.369-0.339,0.885-0.473,1.371-0.348l42.025,10.552l-14.817-12.726
							c-0.329-0.279-0.517-0.69-0.52-1.118c-0.005-0.429,0.179-0.841,0.5-1.127l16.013-14.188c0.305-0.271,0.708-0.405,1.113-0.37
							c0.408,0.034,0.781,0.234,1.036,0.551l20.431,25.371c1.223-3.881,4.534-10.222,13.359-13.149
							c12.197-4.047,22.525,6.538,25.617,12.299c0.419,0.781,0.734,1.521,0.939,2.187c1.988,6.537,0.839,20.274-10.883,23.959
							c-8.926,2.804-17.438-0.104-21.144-1.738l-4.589,32.918c-0.059,0.427-0.299,0.808-0.66,1.043
							c-0.361,0.234-0.805,0.303-1.219,0.188l-21.256-6.009c-0.783-0.222-1.244-1.029-1.035-1.815l4.747-17.881l-35.958,30.559
							c-0.109,0.117-0.238,0.218-0.387,0.298c-0.726,0.387-1.628,0.115-2.018-0.608C-90.309,261.915-90.309,261.91-90.311,261.907z
							 M-92.439,238.385l4.369,20.073l37.822-32.141c0.497-0.423,1.211-0.472,1.76-0.125c0.551,0.35,0.812,1.015,0.645,1.643
							l-5.592,21.061l18.2,5.144l4.636-33.258c0.066-0.49,0.373-0.91,0.815-1.131c0.442-0.219,0.964-0.204,1.394,0.04
							c0.1,0.057,10.311,5.694,20.711,2.43c10.503-3.301,10.217-15.999,8.923-20.248c-0.146-0.477-0.394-1.045-0.714-1.644
							c-2.598-4.841-11.757-14.298-22.051-10.883c-11.076,3.676-12.023,13.694-12.031,13.795c-0.051,0.607-0.466,1.122-1.047,1.303
							c-0.585,0.179-1.217-0.015-1.598-0.49l-21.396-26.57l-13.564,12.02l18.31,15.727c0.521,0.451,0.671,1.201,0.351,1.814
							c-0.314,0.614-1.013,0.927-1.684,0.759l-45.943-11.536l3.623,21.894l19.494,4.337c0.555,0.124,0.991,0.552,1.124,1.104
							c0.134,0.552-0.058,1.132-0.493,1.497L-92.439,238.385z"/>
					</g>
				</g>
			</g>
		</g>
	</g>
</g>
<rect fill="#63B6E6" width="612" height="303.437"/>
<g>
	<defs>
		<rect id="SVGID_7_" width="612" height="303.437"/>
	</defs>
	<clipPath id="SVGID_6_">
		<use xlink:href="#SVGID_7_"  overflow="visible"/>
	</clipPath>
	<g clip-path="url(#SVGID_6_)">
		<g opacity="0.2">
			<g>
				<g>
					<circle fill="#1B75BB" cx="45.634" cy="3.565" r="1.824"/>
					<path fill="#1B75BB" d="M44.893,5.859c-1.266-0.408-1.963-1.77-1.555-3.033c0.41-1.268,1.771-1.965,3.037-1.555
						c1.266,0.408,1.963,1.771,1.555,3.035C47.52,5.572,46.158,6.27,44.893,5.859z M46.014,2.389
						c-0.648-0.209-1.347,0.148-1.557,0.797c-0.209,0.646,0.148,1.346,0.797,1.557c0.648,0.209,1.347-0.148,1.556-0.795
						C47.02,3.297,46.662,2.6,46.014,2.389z"/>
				</g>
				<g>
					<g>
						<path fill="#1B75BB" d="M29.035,120.103c-0.155-0.051-0.305-0.121-0.441-0.213L5.066,104.104
							c-0.545-0.365-0.842-1.004-0.77-1.658L6.744,80.35l-18.148,11.044c-0.613,0.373-1.395,0.334-1.972-0.092l-24.163-18.034
							c-0.475-0.355-0.74-0.926-0.704-1.521c0.036-0.592,0.368-1.129,0.886-1.424l44.52-25.469l-23.084,1.297
							c-0.509,0.029-1.005-0.164-1.36-0.527c-0.356-0.365-0.538-0.865-0.497-1.375l2.024-25.246
							c0.039-0.479,0.272-0.924,0.647-1.227c0.374-0.305,0.857-0.441,1.335-0.381l38.249,4.893
							c-2.14-4.316-4.515-12.441,0.615-22.184c7.088-13.457,24.587-12.896,31.951-10.518c0.999,0.324,1.871,0.693,2.594,1.096
							c7.061,3.947,17.351,16.615,10.369,29.375c-5.318,9.715-14.969,14.215-19.471,15.861l23.09,31.855
							c0.299,0.414,0.405,0.936,0.291,1.432c-0.115,0.496-0.439,0.92-0.889,1.16L49.961,82.677c-0.85,0.453-1.906,0.141-2.373-0.699
							L36.972,62.822l-5.62,55.577c0.003,0.189-0.023,0.381-0.086,0.572c-0.299,0.926-1.294,1.434-2.221,1.135
							C29.041,120.104,29.037,120.103,29.035,120.103z M7.92,101.772l20.197,13.549l5.912-58.458
							c0.076-0.768,0.645-1.395,1.398-1.549c0.756-0.156,1.525,0.199,1.898,0.873L49.83,78.746l19.752-10.539L46.254,36.02
							c-0.344-0.471-0.43-1.082-0.232-1.633c0.199-0.549,0.656-0.963,1.223-1.107c0.132-0.035,13.471-3.6,19.666-14.918
							C73.168,6.928,62.508-3.672,57.916-6.24c-0.514-0.287-1.189-0.566-1.959-0.818c-6.185-1.998-21.76-2.555-27.744,8.807
							c-6.436,12.223,0.975,21.547,1.05,21.641c0.456,0.561,0.524,1.34,0.175,1.971c-0.352,0.633-1.051,0.984-1.766,0.895
							l-40.058-5.125l-1.715,21.385l28.526-1.6c0.816-0.043,1.558,0.477,1.789,1.26c0.233,0.783-0.104,1.625-0.814,2.031
							l-48.672,27.844l21.051,15.712l20.195-12.29c0.574-0.35,1.299-0.342,1.865,0.02s0.879,1.014,0.805,1.682L7.92,101.772z"/>
					</g>
					<g>
						<path fill="#1B75BB" d="M43.229,22.139c-0.536-0.172-1.074-0.389-1.613-0.656c-6.322-3.137-6.529-11.43-6.535-11.781
							c-0.016-0.977,0.761-1.777,1.734-1.793c0.975-0.021,1.773,0.758,1.793,1.73c0.002,0.084,0.197,6.512,4.576,8.682
							c4.496,2.232,9.479-0.527,9.529-0.555c0.847-0.477,1.922-0.182,2.402,0.664c0.48,0.844,0.189,1.916-0.653,2.398
							C54.217,20.969,48.879,23.965,43.229,22.139z"/>
					</g>
					<g>
						<path fill="#1B75BB" d="M52.44,7.684c0.31-0.961,1.338-1.486,2.297-1.176c0.957,0.309,1.483,1.338,1.174,2.297
							c-0.309,0.957-1.338,1.484-2.296,1.174S52.131,8.639,52.44,7.684z"/>
						<path fill="#1B75BB" d="M53.435,10.539c-1.267-0.41-1.962-1.771-1.554-3.037s1.771-1.963,3.037-1.553
							c1.266,0.408,1.963,1.771,1.553,3.037C56.062,10.25,54.699,10.947,53.435,10.539z M54.556,7.068
							C53.908,6.857,53.209,7.215,53,7.863s0.146,1.346,0.796,1.557c0.648,0.209,1.347-0.148,1.556-0.797
							C55.562,7.975,55.205,7.277,54.556,7.068z"/>
					</g>
				</g>
			</g>
		</g>
		<g opacity="0.2">
			<g>
				<g>
					<g>
						<path fill="#1B75BB" d="M49.651,188.161c-0.067,0.088-0.146,0.166-0.235,0.232l-15.383,11.375
							c-0.355,0.266-0.83,0.309-1.229,0.113l-13.497-6.574l2.9,14.049c0.098,0.477-0.104,0.963-0.507,1.232L4.744,219.86
							c-0.334,0.221-0.758,0.258-1.127,0.102c-0.369-0.158-0.635-0.492-0.705-0.887l-6.082-34.1l-4.42,14.977
							c-0.098,0.33-0.334,0.602-0.645,0.744c-0.314,0.145-0.673,0.146-0.986,0.006l-15.596-7.023
							c-0.297-0.133-0.527-0.383-0.633-0.689c-0.109-0.311-0.087-0.646,0.06-0.936l11.801-23.215
							c-3.231,0.381-8.938,0.045-13.967-5.428c-6.948-7.566-2.618-18.566,0.569-22.711c0.433-0.561,0.865-1.033,1.285-1.4
							c4.115-3.594,14.508-7.26,21.036,0.078c4.97,5.59,5.642,12.75,5.665,15.986l25.504-7.447c0.33-0.096,0.686-0.045,0.976,0.141
							s0.485,0.488,0.537,0.828l2.587,17.465c0.096,0.645-0.342,1.246-0.984,1.352l-14.592,2.4L49.096,186.3
							c0.121,0.043,0.236,0.104,0.344,0.184c0.521,0.402,0.618,1.15,0.217,1.672C49.655,188.159,49.653,188.159,49.651,188.161z
							 M33.199,197.425l13.203-9.766L10.57,170.62c-0.472-0.223-0.741-0.729-0.668-1.242c0.073-0.516,0.473-0.924,0.986-1.008
							l17.186-2.828l-2.215-14.955L0.092,158.11c-0.378,0.111-0.787,0.027-1.092-0.225c-0.304-0.25-0.465-0.635-0.427-1.029
							c0.007-0.09,0.771-9.383-5.019-15.895c-5.85-6.576-15.014-2.205-17.688,0.131c-0.299,0.262-0.632,0.629-0.965,1.061
							c-2.676,3.479-6.569,13.258-0.702,19.645c6.309,6.869,13.924,4.275,14,4.248c0.459-0.162,0.971-0.027,1.293,0.336
							c0.322,0.367,0.388,0.891,0.167,1.326l-12.358,24.311l13.211,5.949l5.462-18.506c0.158-0.527,0.657-0.881,1.208-0.85
							c0.551,0.027,1.01,0.434,1.107,0.979l6.649,37.277l14.774-9.818l-3.229-15.635c-0.092-0.443,0.078-0.904,0.436-1.18
							c0.359-0.279,0.844-0.33,1.252-0.133L33.199,197.425z"/>
					</g>
				</g>
			</g>
		</g>
		<g opacity="0.2">
			<g>
				<g>
					<circle fill="#1B75BB" cx="121.932" cy="17.733" r="1.462"/>
					<path fill="#1B75BB" d="M123.465,18.912c-0.65,0.844-1.867,1.002-2.711,0.354c-0.847-0.65-1.006-1.865-0.354-2.711
						c0.649-0.846,1.866-1.004,2.71-0.354C123.957,16.85,124.113,18.064,123.465,18.912z M121.146,17.131
						c-0.334,0.432-0.252,1.057,0.181,1.387c0.433,0.334,1.057,0.254,1.39-0.18c0.334-0.434,0.252-1.057-0.18-1.389
						C122.104,16.615,121.479,16.695,121.146,17.131z"/>
				</g>
				<g>
					<g>
						<path fill="#1B75BB" d="M205.453,61.701c-0.08,0.104-0.174,0.197-0.28,0.275l-18.265,13.51
							c-0.423,0.311-0.985,0.363-1.459,0.133l-16.027-7.807l3.444,16.681c0.116,0.564-0.123,1.145-0.602,1.465L152.13,99.341
							c-0.397,0.262-0.899,0.307-1.339,0.121c-0.437-0.188-0.753-0.584-0.836-1.053l-7.223-40.489l-5.248,17.781
							c-0.115,0.393-0.396,0.715-0.766,0.885c-0.371,0.17-0.799,0.172-1.172,0.006l-18.516-8.338
							c-0.354-0.16-0.627-0.457-0.754-0.82c-0.129-0.367-0.102-0.768,0.072-1.111l14.012-27.562
							c-3.836,0.451-10.613,0.055-16.584-6.447c-8.25-8.984-3.107-22.045,0.676-26.963c0.514-0.668,1.027-1.23,1.527-1.664
							c4.885-4.268,17.225-8.621,24.977,0.092c5.901,6.637,6.699,15.137,6.727,18.98l30.283-8.842
							c0.392-0.113,0.816-0.053,1.16,0.166c0.344,0.223,0.575,0.58,0.637,0.984l3.072,20.738c0.113,0.764-0.406,1.479-1.168,1.604
							l-17.326,2.85l40.451,19.234c0.143,0.049,0.28,0.123,0.408,0.219c0.619,0.477,0.733,1.365,0.259,1.982
							C205.457,61.697,205.455,61.699,205.453,61.701z M185.918,72.701l15.678-11.596l-42.549-20.232
							c-0.559-0.266-0.879-0.865-0.792-1.475c0.087-0.613,0.562-1.098,1.171-1.197l20.407-3.357l-2.63-17.758l-30.598,8.934
							c-0.448,0.133-0.933,0.031-1.297-0.266c-0.359-0.299-0.551-0.756-0.506-1.223c0.01-0.109,0.916-11.143-5.959-18.875
							c-6.946-7.809-17.826-2.617-21.003,0.158c-0.354,0.311-0.751,0.746-1.146,1.258c-3.178,4.133-7.8,15.742-0.836,23.324
							c7.493,8.158,16.534,5.078,16.625,5.045c0.545-0.191,1.154-0.033,1.535,0.4c0.383,0.436,0.461,1.059,0.199,1.576
							l-14.674,28.863l15.686,7.064l6.485-21.975c0.188-0.625,0.78-1.047,1.435-1.008c0.654,0.033,1.199,0.516,1.314,1.162
							l7.896,44.263l17.542-11.656l-3.833-18.567c-0.107-0.527,0.092-1.072,0.518-1.4c0.426-0.332,1.002-0.393,1.486-0.156
							L185.918,72.701z"/>
					</g>
					<g>
						<path fill="#1B75BB" d="M135.309,24.557c-0.276,0.361-0.586,0.709-0.932,1.043c-4.074,3.93-10.393,1.848-10.66,1.76
							c-0.74-0.254-1.136-1.057-0.885-1.797c0.246-0.74,1.051-1.133,1.791-0.885c0.062,0.021,4.969,1.609,7.789-1.115
							c2.899-2.793,2.16-7.301,2.15-7.344c-0.131-0.77,0.381-1.502,1.15-1.635c0.768-0.135,1.498,0.373,1.635,1.139
							C137.389,15.947,138.211,20.785,135.309,24.557z"/>
					</g>
					<g>
						<circle fill="#1B75BB" cx="127.769" cy="12.545" r="1.462"/>
						<path fill="#1B75BB" d="M129.302,13.725c-0.651,0.846-1.868,1.004-2.713,0.354s-1.004-1.867-0.353-2.713
							c0.648-0.844,1.867-1.002,2.711-0.354C129.793,11.662,129.951,12.879,129.302,13.725z M126.982,11.941
							c-0.334,0.432-0.252,1.057,0.182,1.389c0.433,0.334,1.055,0.252,1.391-0.182c0.332-0.434,0.251-1.057-0.182-1.389
							C127.939,11.426,127.315,11.508,126.982,11.941z"/>
					</g>
				</g>
			</g>
		</g>
		<g opacity="0.2">
			<g>
				<g>
					<g>
						<path fill="#1B75BB" d="M-11.381,345.554c-0.135-0.014-0.269-0.047-0.398-0.1l-22.065-8.879
							c-0.511-0.205-0.864-0.678-0.919-1.229l-1.828-18.574l-12.988,12.225c-0.439,0.412-1.088,0.516-1.637,0.268l-22.978-10.619
							c-0.454-0.207-0.769-0.631-0.845-1.127c-0.07-0.49,0.107-0.99,0.482-1.322l32.144-28.65l-18.735,5.074
							c-0.413,0.113-0.854,0.039-1.209-0.199c-0.357-0.236-0.592-0.617-0.647-1.041l-2.722-21.086
							c-0.052-0.402,0.063-0.809,0.318-1.123c0.256-0.316,0.629-0.512,1.03-0.543l32.268-2.625
							c-2.509-3.174-5.87-9.436-3.348-18.326c3.485-12.287,17.954-14.863,24.417-14.188c0.877,0.092,1.658,0.242,2.322,0.449
							c6.484,2.014,17.135,10.633,13.615,22.324c-2.68,8.904-9.823,14.277-13.236,16.412l24.496,22.154
							c0.318,0.287,0.497,0.697,0.488,1.125c-0.008,0.428-0.199,0.832-0.526,1.107l-16.81,14.117
							c-0.619,0.521-1.541,0.447-2.07-0.162l-12.047-13.889l5.037,46.625c0.035,0.154,0.045,0.316,0.028,0.484
							c-0.085,0.812-0.813,1.402-1.626,1.318C-11.373,345.556-11.377,345.554-11.381,345.554z M-31.904,334.165l18.94,7.621
							l-5.296-49.043c-0.071-0.645,0.287-1.258,0.879-1.514c0.594-0.26,1.287-0.102,1.709,0.387l14.191,16.359l14.393-12.09
							l-24.75-22.385c-0.366-0.326-0.541-0.814-0.475-1.303c0.068-0.482,0.371-0.906,0.811-1.121
							c0.103-0.051,10.44-5.295,13.564-15.668c3.154-10.479-7.444-17.336-11.661-18.645c-0.471-0.145-1.077-0.26-1.75-0.33
							c-5.429-0.568-18.317,1.678-21.259,12.049c-3.166,11.158,4.541,17.529,4.619,17.594c0.471,0.379,0.664,1.01,0.486,1.588
							c-0.178,0.58-0.691,0.992-1.296,1.039l-33.791,2.75l2.305,17.863l23.154-6.27c0.661-0.178,1.36,0.119,1.687,0.727
							c0.329,0.6,0.197,1.35-0.316,1.809l-35.141,31.32l20.02,9.252l14.453-13.604c0.41-0.385,1.007-0.506,1.533-0.307
							c0.53,0.197,0.899,0.678,0.955,1.24L-31.904,334.165z"/>
					</g>
				</g>
			</g>
		</g>
		<g opacity="0.2">
			<g>
				<g>
					<circle fill="#1B75BB" cx="128.962" cy="220.106" r="1.46"/>
					<path fill="#1B75BB" d="M127.889,221.71c-0.885-0.594-1.122-1.793-0.531-2.678c0.594-0.885,1.794-1.123,2.679-0.531
						s1.122,1.797,0.528,2.68C129.973,222.065,128.773,222.302,127.889,221.71z M129.513,219.284
						c-0.452-0.305-1.069-0.182-1.372,0.27c-0.303,0.453-0.184,1.07,0.27,1.375c0.454,0.303,1.07,0.18,1.373-0.273
						C130.087,220.204,129.966,219.587,129.513,219.284z"/>
				</g>
				<g>
					<g>
						<path fill="#1B75BB" d="M90.609,306.171c-0.109-0.07-0.207-0.158-0.292-0.262L75.67,288.599
							c-0.339-0.402-0.427-0.959-0.227-1.447l6.73-16.473l-16.392,4.518c-0.556,0.154-1.147-0.047-1.499-0.504l-14.643-19.184
							c-0.287-0.377-0.365-0.877-0.21-1.326c0.159-0.445,0.532-0.787,0.995-0.902l39.861-9.832l-18.056-4.07
							c-0.398-0.088-0.737-0.346-0.931-0.705s-0.224-0.785-0.082-1.166l7.1-18.988c0.135-0.361,0.413-0.654,0.768-0.803
							c0.355-0.154,0.758-0.152,1.111,0l28.369,12.16c-0.699-3.795-0.745-10.57,5.342-16.941c8.41-8.805,21.756-4.533,26.903-1.086
							c0.698,0.469,1.29,0.943,1.757,1.414c4.57,4.586,9.709,16.594,1.535,24.887c-6.225,6.309-14.641,7.658-18.469,7.938
							l10.783,29.588c0.141,0.383,0.107,0.809-0.09,1.166c-0.198,0.357-0.539,0.611-0.938,0.699l-20.459,4.412
							c-0.754,0.164-1.499-0.307-1.674-1.059l-3.969-17.072l-16.521,41.547c-0.039,0.146-0.104,0.289-0.191,0.424
							c-0.435,0.645-1.311,0.82-1.957,0.385C90.614,306.177,90.611,306.173,90.609,306.171z M78.381,287.429l12.572,14.861
							l17.379-43.701c0.228-0.576,0.804-0.934,1.416-0.885c0.617,0.045,1.131,0.486,1.27,1.086l4.677,20.107l17.517-3.777
							l-10.895-29.895c-0.16-0.439-0.092-0.928,0.182-1.309c0.271-0.379,0.715-0.598,1.184-0.584c0.107,0,11.16,0.186,18.413-7.168
							c7.325-7.43,1.444-17.93-1.526-20.912c-0.332-0.332-0.791-0.697-1.328-1.059c-4.322-2.895-16.189-6.744-23.289,0.689
							c-7.638,7.996-3.979,16.801-3.94,16.891c0.226,0.529,0.108,1.146-0.299,1.555c-0.409,0.41-1.024,0.527-1.556,0.299
							l-29.711-12.736l-6.013,16.088l22.311,5.029c0.636,0.145,1.095,0.709,1.099,1.361c0.01,0.654-0.436,1.227-1.071,1.385
							l-43.577,10.754l12.756,16.713l18.244-5.029c0.518-0.141,1.074,0.021,1.431,0.426c0.358,0.402,0.454,0.973,0.252,1.469
							L78.381,287.429z"/>
					</g>
					<g>
						<path fill="#1B75BB" d="M123.035,233.878c-0.375-0.254-0.743-0.539-1.098-0.863c-4.18-3.799-2.518-10.23-2.447-10.502
							c0.203-0.754,0.977-1.199,1.73-1s1.199,0.975,0.999,1.727c-0.017,0.064-1.278,5.055,1.617,7.688
							c2.973,2.705,7.413,1.674,7.458,1.662c0.757-0.18,1.521,0.283,1.703,1.039c0.186,0.756-0.273,1.518-1.027,1.705
							C131.75,235.386,126.983,236.521,123.035,233.878z"/>
					</g>
					<g>
						<path fill="#1B75BB" d="M133.299,224.769c0.448-0.67,1.355-0.848,2.025-0.398c0.668,0.447,0.85,1.354,0.398,2.025
							c-0.446,0.668-1.355,0.85-2.023,0.398C133.03,226.345,132.85,225.44,133.299,224.769z"/>
						<path fill="#1B75BB" d="M133.438,227.185c-0.885-0.59-1.123-1.793-0.53-2.676c0.593-0.885,1.794-1.123,2.679-0.531
							c0.883,0.594,1.121,1.795,0.529,2.678C135.522,227.54,134.321,227.78,133.438,227.185z M135.061,224.759
							c-0.451-0.303-1.068-0.182-1.371,0.273c-0.305,0.451-0.182,1.066,0.271,1.371s1.068,0.182,1.371-0.271
							C135.637,225.679,135.516,225.062,135.061,224.759z"/>
					</g>
				</g>
			</g>
		</g>
		<g opacity="0.2">
			<g>
				<g>
					<path fill="#1B75BB" d="M166.958,127.052c0.751-0.404,1.685-0.123,2.087,0.627c0.402,0.748,0.119,1.684-0.631,2.086
						c-0.748,0.402-1.684,0.123-2.086-0.627S166.208,127.45,166.958,127.052z"/>
					<path fill="#1B75BB" d="M165.892,129.37c-0.531-0.988-0.157-2.227,0.831-2.758c0.99-0.529,2.227-0.158,2.76,0.832
						c0.531,0.988,0.157,2.229-0.832,2.758C167.66,130.733,166.424,130.36,165.892,129.37z M168.605,127.915
						c-0.27-0.508-0.906-0.701-1.414-0.43c-0.505,0.275-0.697,0.908-0.426,1.416c0.272,0.508,0.908,0.697,1.414,0.426
						C168.688,129.056,168.879,128.419,168.605,127.915z"/>
				</g>
				<g>
					<g>
						<path fill="#1B75BB" d="M89.354,189.663c-0.066-0.123-0.114-0.252-0.143-0.389l-5.09-23.387
							c-0.117-0.541,0.076-1.104,0.502-1.459l14.428-12.025l-17.518-3.898c-0.593-0.133-1.046-0.613-1.146-1.211l-4.16-25.129
							c-0.081-0.494,0.093-0.996,0.463-1.338c0.369-0.34,0.885-0.473,1.372-0.348l42.024,10.551l-14.818-12.725
							c-0.327-0.279-0.516-0.691-0.52-1.119s0.18-0.84,0.501-1.127l16.014-14.188c0.304-0.271,0.707-0.406,1.112-0.371
							c0.408,0.035,0.781,0.234,1.037,0.551l20.43,25.371c1.223-3.881,4.533-10.221,13.359-13.148
							c12.197-4.047,22.525,6.537,25.617,12.299c0.419,0.781,0.734,1.52,0.939,2.186c1.988,6.537,0.838,20.275-10.883,23.959
							c-8.926,2.805-17.438-0.104-21.145-1.738l-4.588,32.918c-0.059,0.428-0.299,0.809-0.66,1.043s-0.805,0.303-1.219,0.189
							l-21.256-6.01c-0.783-0.221-1.244-1.029-1.035-1.814l4.747-17.881l-35.958,30.559c-0.109,0.117-0.238,0.217-0.387,0.297
							c-0.725,0.387-1.628,0.115-2.017-0.607C89.355,189.671,89.354,189.665,89.354,189.663z M87.225,166.14l4.369,20.074
							l37.822-32.141c0.497-0.424,1.211-0.473,1.76-0.125c0.551,0.35,0.812,1.014,0.645,1.643l-5.591,21.061l18.198,5.143
							l4.637-33.258c0.065-0.49,0.373-0.91,0.815-1.131c0.442-0.219,0.964-0.203,1.394,0.041c0.1,0.057,10.311,5.693,20.711,2.43
							c10.504-3.301,10.217-16,8.923-20.248c-0.146-0.477-0.394-1.045-0.714-1.645c-2.598-4.84-11.756-14.297-22.051-10.883
							c-11.076,3.676-12.023,13.695-12.031,13.795c-0.051,0.607-0.466,1.123-1.047,1.303c-0.584,0.18-1.216-0.014-1.599-0.49
							l-21.396-26.57l-13.564,12.02l18.311,15.727c0.521,0.451,0.67,1.201,0.351,1.814c-0.314,0.615-1.015,0.928-1.685,0.76
							L79.54,123.921l3.622,21.895l19.494,4.336c0.555,0.125,0.991,0.553,1.123,1.104c0.135,0.553-0.057,1.133-0.492,1.498
							L87.225,166.14z"/>
					</g>
					<g>
						<path fill="#1B75BB" d="M155.35,138.312c-0.227-0.42-0.428-0.869-0.598-1.346c-2.017-5.611,2.714-10.783,2.914-11
							c0.564-0.604,1.504-0.637,2.107-0.076c0.605,0.557,0.637,1.5,0.078,2.104c-0.047,0.053-3.693,4.08-2.297,7.965
							c1.434,3.994,6.084,5.23,6.131,5.242c0.795,0.205,1.277,1.014,1.074,1.811c-0.203,0.795-1.006,1.277-1.803,1.078
							C162.727,144.032,157.721,142.731,155.35,138.312z"/>
					</g>
					<g>
						<path fill="#1B75BB" d="M169.422,134.901c0.749-0.404,1.684-0.123,2.088,0.627c0.4,0.75,0.119,1.684-0.631,2.086
							c-0.748,0.402-1.684,0.121-2.086-0.627C168.391,136.237,168.673,135.3,169.422,134.901z"/>
						<path fill="#1B75BB" d="M168.355,137.222c-0.531-0.99-0.158-2.229,0.83-2.76c0.991-0.529,2.229-0.158,2.76,0.832
							s0.158,2.229-0.832,2.76S168.887,138.212,168.355,137.222z M171.069,135.763c-0.271-0.506-0.905-0.699-1.412-0.424
							c-0.508,0.271-0.698,0.904-0.427,1.412c0.272,0.508,0.906,0.697,1.413,0.426C171.152,136.905,171.344,136.272,171.069,135.763
							z"/>
					</g>
				</g>
			</g>
		</g>
		<g opacity="0.2">
			<g>
				<g>
					<circle fill="#1B75BB" cx="296.557" cy="3.565" r="1.824"/>
					<path fill="#1B75BB" d="M295.816,5.859c-1.266-0.408-1.963-1.77-1.555-3.033c0.41-1.268,1.771-1.965,3.037-1.555
						c1.266,0.408,1.963,1.771,1.555,3.035C298.443,5.572,297.082,6.27,295.816,5.859z M296.938,2.389
						c-0.648-0.209-1.347,0.148-1.557,0.797c-0.209,0.646,0.148,1.346,0.797,1.557c0.648,0.209,1.347-0.148,1.556-0.795
						C297.943,3.297,297.586,2.6,296.938,2.389z"/>
				</g>
				<g>
					<g>
						<path fill="#1B75BB" d="M279.959,120.103c-0.156-0.051-0.305-0.121-0.441-0.213l-23.527-15.785
							c-0.545-0.365-0.842-1.004-0.77-1.658l2.447-22.097L239.52,91.394c-0.613,0.373-1.395,0.334-1.971-0.092l-24.164-18.034
							c-0.475-0.355-0.74-0.926-0.704-1.521c0.036-0.592,0.368-1.129,0.886-1.424l44.52-25.469l-23.084,1.297
							c-0.509,0.029-1.005-0.164-1.359-0.527c-0.357-0.365-0.538-0.865-0.498-1.375l2.025-25.246
							c0.038-0.479,0.271-0.924,0.646-1.227c0.375-0.305,0.857-0.441,1.335-0.381l38.249,4.893
							c-2.14-4.316-4.515-12.441,0.615-22.184c7.088-13.457,24.587-12.896,31.951-10.518c0.999,0.324,1.871,0.693,2.594,1.096
							c7.061,3.947,17.351,16.615,10.369,29.375c-5.318,9.715-14.968,14.215-19.471,15.861l23.09,31.855
							c0.299,0.414,0.405,0.936,0.291,1.432c-0.115,0.496-0.438,0.92-0.889,1.16l-23.066,12.312
							c-0.85,0.453-1.906,0.141-2.373-0.699l-10.616-19.155l-5.62,55.577c0.003,0.189-0.023,0.381-0.086,0.572
							c-0.299,0.926-1.293,1.434-2.22,1.135C279.965,120.104,279.961,120.103,279.959,120.103z M258.845,101.772l20.196,13.549
							l5.912-58.458c0.076-0.768,0.645-1.395,1.398-1.549c0.757-0.156,1.525,0.199,1.898,0.873l12.504,22.559l19.751-10.539
							L297.178,36.02c-0.344-0.471-0.43-1.082-0.232-1.633c0.199-0.549,0.656-0.963,1.223-1.107
							c0.133-0.035,13.472-3.6,19.666-14.918c6.258-11.434-4.402-22.033-8.994-24.602c-0.514-0.287-1.189-0.566-1.959-0.818
							c-6.185-1.998-21.76-2.555-27.743,8.807c-6.437,12.223,0.974,21.547,1.049,21.641c0.456,0.561,0.524,1.34,0.175,1.971
							c-0.352,0.633-1.05,0.984-1.766,0.895l-40.057-5.125l-1.715,21.385l28.525-1.6c0.816-0.043,1.559,0.477,1.79,1.26
							c0.232,0.783-0.104,1.625-0.815,2.031l-48.672,27.844l21.051,15.712l20.196-12.29c0.574-0.35,1.298-0.342,1.864,0.02
							s0.879,1.014,0.806,1.682L258.845,101.772z"/>
					</g>
					<g>
						<path fill="#1B75BB" d="M294.153,22.139c-0.536-0.172-1.075-0.389-1.614-0.656c-6.322-3.137-6.529-11.43-6.535-11.781
							c-0.016-0.977,0.76-1.777,1.734-1.793c0.975-0.021,1.773,0.758,1.793,1.73c0.002,0.084,0.197,6.512,4.576,8.682
							c4.496,2.232,9.479-0.527,9.529-0.555c0.846-0.477,1.923-0.182,2.402,0.664c0.48,0.844,0.19,1.916-0.652,2.398
							C305.141,20.969,299.804,23.965,294.153,22.139z"/>
					</g>
					<g>
						<path fill="#1B75BB" d="M303.364,7.684c0.31-0.961,1.339-1.486,2.297-1.176c0.958,0.309,1.484,1.338,1.175,2.297
							c-0.309,0.957-1.339,1.484-2.296,1.174C303.581,9.668,303.055,8.639,303.364,7.684z"/>
						<path fill="#1B75BB" d="M304.358,10.539c-1.266-0.41-1.962-1.771-1.554-3.037s1.771-1.963,3.037-1.553
							c1.266,0.408,1.963,1.771,1.553,3.037C306.986,10.25,305.623,10.947,304.358,10.539z M305.48,7.068
							c-0.649-0.211-1.348,0.146-1.557,0.795s0.146,1.346,0.796,1.557c0.648,0.209,1.347-0.148,1.556-0.797
							C306.486,7.975,306.129,7.277,305.48,7.068z"/>
					</g>
				</g>
			</g>
		</g>
		<g opacity="0.2">
			<g>
				<g>
					<path fill="#1B75BB" d="M229.484,152.106c-0.539-0.414-0.641-1.188-0.226-1.727c0.413-0.537,1.188-0.639,1.728-0.223
						c0.539,0.412,0.641,1.188,0.227,1.727C230.798,152.423,230.023,152.524,229.484,152.106z"/>
					<path fill="#1B75BB" d="M231.526,152.124c-0.548,0.713-1.571,0.846-2.284,0.299c-0.711-0.547-0.845-1.572-0.297-2.283
						c0.547-0.713,1.571-0.846,2.283-0.297C231.94,150.388,232.074,151.413,231.526,152.124z M229.575,150.624
						c-0.282,0.363-0.214,0.889,0.151,1.17c0.364,0.279,0.89,0.213,1.171-0.152c0.28-0.365,0.211-0.891-0.152-1.172
						C230.38,150.19,229.854,150.259,229.575,150.624z"/>
				</g>
				<g>
					<g>
						<path fill="#1B75BB" d="M300.575,188.161c-0.067,0.088-0.146,0.166-0.235,0.232l-15.383,11.375
							c-0.355,0.266-0.829,0.309-1.229,0.113l-13.497-6.574l2.9,14.049c0.099,0.477-0.104,0.963-0.507,1.232l-16.957,11.271
							c-0.334,0.221-0.757,0.258-1.127,0.102c-0.368-0.158-0.635-0.492-0.704-0.887l-6.083-34.1l-4.42,14.977
							c-0.098,0.33-0.334,0.602-0.645,0.744c-0.312,0.145-0.673,0.146-0.987,0.006l-15.595-7.023
							c-0.297-0.133-0.527-0.383-0.633-0.689c-0.109-0.311-0.086-0.646,0.061-0.936l11.8-23.215
							c-3.231,0.381-8.938,0.045-13.967-5.428c-6.948-7.566-2.618-18.566,0.569-22.711c0.432-0.561,0.865-1.033,1.285-1.4
							c4.115-3.594,14.508-7.26,21.035,0.078c4.971,5.59,5.643,12.75,5.666,15.986l25.503-7.447
							c0.331-0.096,0.688-0.045,0.977,0.141c0.29,0.186,0.485,0.488,0.536,0.828l2.588,17.465c0.096,0.645-0.342,1.246-0.984,1.352
							l-14.592,2.4L300.02,186.3c0.121,0.043,0.236,0.104,0.344,0.184c0.521,0.402,0.617,1.15,0.218,1.672
							C300.58,188.159,300.576,188.159,300.575,188.161z M284.123,197.425l13.203-9.766l-35.832-17.039
							c-0.472-0.223-0.741-0.729-0.668-1.242c0.074-0.516,0.473-0.924,0.986-1.008l17.186-2.828l-2.215-14.955l-25.768,7.523
							c-0.378,0.111-0.786,0.027-1.092-0.225c-0.304-0.25-0.465-0.635-0.428-1.029c0.009-0.09,0.773-9.383-5.018-15.895
							c-5.85-6.576-15.014-2.205-17.688,0.131c-0.299,0.262-0.632,0.629-0.965,1.061c-2.676,3.479-6.569,13.258-0.703,19.645
							c6.31,6.869,13.925,4.275,14.001,4.248c0.459-0.162,0.972-0.027,1.293,0.336c0.322,0.367,0.388,0.891,0.166,1.326
							l-12.357,24.311l13.211,5.949l5.463-18.506c0.157-0.527,0.656-0.881,1.207-0.85c0.551,0.027,1.01,0.434,1.107,0.979
							l6.65,37.277l14.773-9.818l-3.229-15.635c-0.092-0.443,0.078-0.904,0.436-1.18c0.359-0.279,0.844-0.33,1.253-0.133
							L284.123,197.425z"/>
					</g>
					<g>
						<path fill="#1B75BB" d="M241.5,156.88c-0.232,0.301-0.492,0.596-0.783,0.877c-3.432,3.309-8.753,1.557-8.978,1.48
							c-0.624-0.211-0.956-0.887-0.746-1.51c0.208-0.623,0.886-0.957,1.509-0.748c0.053,0.018,4.186,1.354,6.561-0.938
							c2.441-2.354,1.818-6.148,1.811-6.186c-0.11-0.646,0.322-1.264,0.969-1.377s1.262,0.312,1.377,0.959
							C243.253,149.626,243.945,153.702,241.5,156.88z"/>
					</g>
					<g>
						<path fill="#1B75BB" d="M234.4,147.739c-0.541-0.416-0.641-1.189-0.227-1.729s1.188-0.641,1.729-0.225
							c0.538,0.412,0.639,1.188,0.225,1.727S234.938,148.153,234.4,147.739z"/>
						<path fill="#1B75BB" d="M236.441,147.755c-0.547,0.713-1.572,0.846-2.283,0.299c-0.711-0.549-0.846-1.572-0.299-2.285
							c0.549-0.711,1.573-0.844,2.285-0.297C236.855,146.021,236.99,147.042,236.441,147.755z M234.488,146.253
							c-0.28,0.365-0.211,0.889,0.154,1.17s0.889,0.213,1.17-0.152c0.28-0.365,0.212-0.889-0.152-1.17
							C235.295,145.819,234.77,145.888,234.488,146.253z"/>
					</g>
				</g>
			</g>
		</g>
		<g opacity="0.2">
			<g>
				<g>
					<circle fill="#1B75BB" cx="372.855" cy="17.733" r="1.462"/>
					<path fill="#1B75BB" d="M374.389,18.912c-0.65,0.844-1.867,1.002-2.712,0.354c-0.846-0.65-1.005-1.865-0.354-2.711
						c0.649-0.846,1.866-1.004,2.71-0.354C374.881,16.85,375.038,18.064,374.389,18.912z M372.071,17.131
						c-0.335,0.432-0.253,1.057,0.18,1.387c0.433,0.334,1.057,0.254,1.391-0.18c0.333-0.434,0.251-1.057-0.181-1.389
						C373.027,16.615,372.402,16.695,372.071,17.131z"/>
				</g>
				<g>
					<g>
						<path fill="#1B75BB" d="M456.377,61.701c-0.079,0.104-0.173,0.197-0.279,0.275l-18.266,13.51
							c-0.424,0.311-0.985,0.363-1.459,0.133l-16.026-7.807l3.443,16.681c0.116,0.564-0.123,1.145-0.601,1.465l-20.136,13.383
							c-0.396,0.262-0.899,0.307-1.338,0.121c-0.438-0.188-0.755-0.584-0.837-1.053l-7.223-40.489l-5.248,17.781
							c-0.115,0.393-0.396,0.715-0.766,0.885c-0.371,0.17-0.799,0.172-1.171,0.006l-18.518-8.338
							c-0.353-0.16-0.626-0.457-0.753-0.82c-0.129-0.367-0.102-0.768,0.072-1.111l14.012-27.562
							c-3.836,0.451-10.613,0.055-16.584-6.447c-8.25-8.984-3.107-22.045,0.676-26.963c0.514-0.668,1.027-1.23,1.527-1.664
							c4.885-4.268,17.225-8.621,24.977,0.092c5.902,6.637,6.699,15.137,6.727,18.98l30.283-8.842
							c0.393-0.113,0.815-0.053,1.16,0.166c0.344,0.223,0.576,0.58,0.637,0.984l3.072,20.738c0.113,0.764-0.406,1.479-1.168,1.604
							l-17.326,2.85l40.451,19.234c0.143,0.049,0.279,0.123,0.408,0.219c0.618,0.477,0.733,1.365,0.259,1.982
							C456.381,61.697,456.379,61.699,456.377,61.701z M436.842,72.701l15.677-11.596l-42.548-20.232
							c-0.559-0.266-0.879-0.865-0.791-1.475c0.086-0.613,0.561-1.098,1.17-1.197l20.408-3.357l-2.631-17.758L397.53,26.02
							c-0.449,0.133-0.935,0.031-1.298-0.266c-0.359-0.299-0.551-0.756-0.506-1.223c0.01-0.109,0.916-11.143-5.959-18.875
							c-6.945-7.809-17.827-2.617-21.003,0.158c-0.354,0.311-0.751,0.746-1.146,1.258c-3.178,4.133-7.799,15.742-0.835,23.324
							c7.492,8.158,16.534,5.078,16.624,5.045c0.545-0.191,1.154-0.033,1.535,0.4c0.383,0.436,0.461,1.059,0.199,1.576
							l-14.674,28.863l15.686,7.064l6.485-21.975c0.188-0.625,0.78-1.047,1.435-1.008c0.654,0.033,1.198,0.516,1.314,1.162
							l7.896,44.263l17.543-11.656l-3.834-18.567c-0.108-0.527,0.092-1.072,0.518-1.4c0.426-0.332,1.002-0.393,1.486-0.156
							L436.842,72.701z"/>
					</g>
					<g>
						<path fill="#1B75BB" d="M386.232,24.557c-0.276,0.361-0.586,0.709-0.933,1.043c-4.073,3.93-10.392,1.848-10.659,1.76
							c-0.74-0.254-1.136-1.057-0.885-1.797c0.247-0.74,1.051-1.133,1.791-0.885c0.062,0.021,4.969,1.609,7.789-1.115
							c2.899-2.793,2.159-7.301,2.15-7.344c-0.13-0.77,0.382-1.502,1.15-1.635c0.768-0.135,1.498,0.373,1.635,1.139
							C388.312,15.947,389.135,20.785,386.232,24.557z"/>
					</g>
					<g>
						<circle fill="#1B75BB" cx="378.692" cy="12.545" r="1.462"/>
						<path fill="#1B75BB" d="M380.226,13.725c-0.65,0.846-1.868,1.004-2.714,0.354c-0.844-0.65-1.003-1.867-0.352-2.713
							c0.648-0.844,1.867-1.002,2.711-0.354C380.717,11.662,380.875,12.879,380.226,13.725z M377.906,11.941
							c-0.334,0.432-0.251,1.057,0.182,1.389c0.433,0.334,1.056,0.252,1.391-0.182c0.332-0.434,0.251-1.057-0.182-1.389
							C378.863,11.426,378.239,11.508,377.906,11.941z"/>
					</g>
				</g>
			</g>
		</g>
		<g opacity="0.2">
			<g>
				<g>
					<circle fill="#1B75BB" cx="232.94" cy="246.952" r="1.531"/>
					<path fill="#1B75BB" d="M232.729,248.966c-1.11-0.117-1.919-1.115-1.804-2.227c0.117-1.107,1.113-1.916,2.225-1.801
						s1.919,1.115,1.802,2.225C234.838,248.272,233.84,249.081,232.729,248.966z M233.049,245.921
						c-0.57-0.062-1.082,0.354-1.141,0.924c-0.059,0.566,0.354,1.08,0.924,1.139c0.568,0.062,1.08-0.355,1.14-0.924
						S233.616,245.979,233.049,245.921z"/>
				</g>
				<g>
					<g>
						<path fill="#1B75BB" d="M239.544,345.554c-0.136-0.014-0.27-0.047-0.398-0.1l-22.065-8.879
							c-0.512-0.205-0.866-0.678-0.92-1.229l-1.828-18.574l-12.988,12.225c-0.439,0.412-1.088,0.516-1.637,0.268l-22.978-10.619
							c-0.454-0.207-0.769-0.631-0.845-1.127c-0.07-0.49,0.107-0.99,0.482-1.322l32.144-28.65l-18.735,5.074
							c-0.414,0.113-0.855,0.039-1.209-0.199c-0.357-0.236-0.592-0.617-0.647-1.041l-2.722-21.086
							c-0.052-0.402,0.064-0.809,0.32-1.123c0.254-0.316,0.627-0.512,1.027-0.543l32.269-2.625
							c-2.509-3.174-5.87-9.436-3.348-18.326c3.485-12.287,17.954-14.863,24.417-14.188c0.877,0.092,1.658,0.242,2.321,0.449
							c6.485,2.014,17.136,10.633,13.616,22.324c-2.68,8.904-9.823,14.277-13.236,16.412l24.496,22.154
							c0.318,0.287,0.496,0.697,0.489,1.125c-0.009,0.428-0.2,0.832-0.526,1.107l-16.811,14.117
							c-0.619,0.521-1.541,0.447-2.07-0.162l-12.047-13.889l5.036,46.625c0.036,0.154,0.046,0.316,0.03,0.484
							c-0.086,0.812-0.814,1.402-1.627,1.318C239.551,345.556,239.547,345.554,239.544,345.554z M219.02,334.165l18.941,7.621
							l-5.297-49.043c-0.07-0.645,0.287-1.258,0.879-1.514c0.595-0.26,1.287-0.102,1.71,0.387l14.19,16.359l14.393-12.09
							l-24.75-22.385c-0.366-0.326-0.541-0.814-0.475-1.303c0.068-0.482,0.371-0.906,0.812-1.121
							c0.102-0.051,10.439-5.295,13.563-15.668c3.154-10.479-7.445-17.336-11.661-18.645c-0.471-0.145-1.077-0.26-1.75-0.33
							c-5.429-0.568-18.317,1.678-21.259,12.049c-3.166,11.158,4.541,17.529,4.619,17.594c0.471,0.379,0.664,1.01,0.486,1.588
							c-0.178,0.58-0.691,0.992-1.295,1.039l-33.792,2.75l2.305,17.863l23.154-6.27c0.661-0.178,1.36,0.119,1.687,0.727
							c0.329,0.6,0.197,1.35-0.316,1.809l-35.141,31.32l20.02,9.252l14.453-13.604c0.41-0.385,1.007-0.506,1.533-0.307
							c0.53,0.197,0.899,0.678,0.955,1.24L219.02,334.165z"/>
					</g>
					<g>
						<path fill="#1B75BB" d="M234.191,262.624c-0.473-0.049-0.953-0.135-1.441-0.26c-5.737-1.479-7.348-8.254-7.414-8.539
							c-0.182-0.801,0.316-1.592,1.114-1.775c0.796-0.186,1.589,0.316,1.772,1.109c0.016,0.068,1.293,5.316,5.266,6.338
							c4.083,1.053,7.696-2.08,7.732-2.111c0.613-0.537,1.549-0.484,2.088,0.129c0.541,0.609,0.49,1.541-0.119,2.082
							C243.012,259.755,239.148,263.144,234.191,262.624z"/>
					</g>
					<g>
						<circle fill="#1B75BB" cx="240.768" cy="249.311" r="1.531"/>
						<path fill="#1B75BB" d="M240.559,251.323c-1.111-0.115-1.92-1.115-1.805-2.223c0.117-1.111,1.115-1.92,2.226-1.803
							c1.11,0.115,1.919,1.115,1.804,2.223C242.665,250.632,241.669,251.438,240.559,251.323z M240.875,248.278
							c-0.568-0.061-1.078,0.357-1.139,0.924c-0.059,0.568,0.354,1.08,0.925,1.139c0.568,0.061,1.079-0.354,1.14-0.922
							C241.86,248.849,241.445,248.339,240.875,248.278z"/>
					</g>
				</g>
			</g>
		</g>
		<g opacity="0.2">
			<g>
				<g>
					<circle fill="#1B75BB" cx="379.886" cy="220.106" r="1.459"/>
					<path fill="#1B75BB" d="M378.812,221.71c-0.885-0.594-1.122-1.793-0.531-2.678c0.594-0.885,1.794-1.123,2.679-0.531
						s1.122,1.797,0.528,2.68C380.896,222.065,379.697,222.302,378.812,221.71z M380.437,219.284
						c-0.452-0.305-1.069-0.182-1.372,0.27c-0.304,0.453-0.184,1.07,0.27,1.375c0.455,0.303,1.07,0.18,1.373-0.273
						C381.012,220.204,380.891,219.587,380.437,219.284z"/>
				</g>
				<g>
					<g>
						<path fill="#1B75BB" d="M341.533,306.171c-0.109-0.07-0.207-0.158-0.292-0.262l-14.647-17.311
							c-0.338-0.402-0.427-0.959-0.227-1.447l6.73-16.473l-16.392,4.518c-0.556,0.154-1.147-0.047-1.498-0.504l-14.644-19.184
							c-0.288-0.377-0.365-0.877-0.209-1.326c0.158-0.445,0.531-0.787,0.994-0.902l39.861-9.832l-18.055-4.07
							c-0.399-0.088-0.738-0.346-0.932-0.705s-0.223-0.785-0.082-1.166l7.1-18.988c0.134-0.361,0.413-0.654,0.768-0.803
							c0.355-0.154,0.757-0.152,1.111,0l28.369,12.16c-0.699-3.795-0.744-10.57,5.342-16.941c8.41-8.805,21.756-4.533,26.902-1.086
							c0.699,0.469,1.291,0.943,1.759,1.414c4.569,4.586,9.708,16.594,1.534,24.887c-6.226,6.309-14.641,7.658-18.469,7.938
							l10.783,29.588c0.141,0.383,0.107,0.809-0.09,1.166c-0.198,0.357-0.539,0.611-0.938,0.699l-20.46,4.412
							c-0.753,0.164-1.498-0.307-1.672-1.059l-3.97-17.072l-16.521,41.547c-0.039,0.146-0.104,0.289-0.19,0.424
							c-0.436,0.645-1.312,0.82-1.958,0.385C341.539,306.177,341.535,306.173,341.533,306.171z M329.305,287.429l12.572,14.861
							l17.379-43.701c0.229-0.576,0.805-0.934,1.416-0.885c0.617,0.045,1.131,0.486,1.27,1.086l4.677,20.107l17.517-3.777
							l-10.895-29.895c-0.16-0.439-0.092-0.928,0.182-1.309c0.272-0.379,0.716-0.598,1.184-0.584c0.107,0,11.16,0.186,18.414-7.168
							c7.324-7.43,1.443-17.93-1.527-20.912c-0.332-0.332-0.791-0.697-1.328-1.059c-4.322-2.895-16.189-6.744-23.289,0.689
							c-7.638,7.996-3.979,16.801-3.941,16.891c0.227,0.529,0.109,1.146-0.297,1.555c-0.41,0.41-1.025,0.527-1.557,0.299
							l-29.711-12.736l-6.013,16.088l22.311,5.029c0.637,0.145,1.095,0.709,1.099,1.361c0.01,0.654-0.436,1.227-1.071,1.385
							l-43.577,10.754l12.757,16.713l18.243-5.029c0.518-0.141,1.074,0.021,1.432,0.426c0.357,0.402,0.454,0.973,0.251,1.469
							L329.305,287.429z"/>
					</g>
					<g>
						<path fill="#1B75BB" d="M373.959,233.878c-0.375-0.254-0.743-0.539-1.098-0.863c-4.18-3.799-2.518-10.23-2.447-10.502
							c0.203-0.754,0.977-1.199,1.73-1s1.199,0.975,1,1.727c-0.018,0.064-1.279,5.055,1.616,7.688
							c2.974,2.705,7.413,1.674,7.458,1.662c0.757-0.18,1.521,0.283,1.703,1.039c0.186,0.756-0.273,1.518-1.028,1.705
							C382.674,235.386,377.908,236.521,373.959,233.878z"/>
					</g>
					<g>
						<circle fill="#1B75BB" cx="385.434" cy="225.582" r="1.46"/>
						<path fill="#1B75BB" d="M384.361,227.185c-0.885-0.59-1.123-1.793-0.531-2.676c0.594-0.885,1.795-1.123,2.68-0.531
							c0.883,0.594,1.121,1.795,0.529,2.678C386.446,227.54,385.244,227.78,384.361,227.185z M385.984,224.759
							c-0.451-0.303-1.068-0.182-1.371,0.273c-0.305,0.451-0.182,1.066,0.271,1.371s1.068,0.182,1.372-0.271
							S386.439,225.062,385.984,224.759z"/>
					</g>
				</g>
			</g>
		</g>
		<g opacity="0.2">
			<g>
				<g>
					<path fill="#1B75BB" d="M417.882,127.052c0.751-0.404,1.685-0.123,2.088,0.627c0.401,0.748,0.119,1.684-0.631,2.086
						c-0.749,0.402-1.685,0.123-2.087-0.627C416.849,128.388,417.132,127.45,417.882,127.052z"/>
					<path fill="#1B75BB" d="M416.816,129.37c-0.532-0.988-0.158-2.227,0.83-2.758c0.99-0.529,2.227-0.158,2.759,0.832
						c0.532,0.988,0.158,2.229-0.832,2.758C418.584,130.733,417.348,130.36,416.816,129.37z M419.529,127.915
						c-0.27-0.508-0.906-0.701-1.413-0.43c-0.506,0.275-0.698,0.908-0.427,1.416c0.272,0.508,0.908,0.697,1.414,0.426
						C419.611,129.056,419.803,128.419,419.529,127.915z"/>
				</g>
				<g>
					<g>
						<path fill="#1B75BB" d="M340.277,189.663c-0.066-0.123-0.114-0.252-0.144-0.389l-5.089-23.387
							c-0.117-0.541,0.076-1.104,0.502-1.459l14.428-12.025l-17.518-3.898c-0.592-0.133-1.046-0.613-1.146-1.211l-4.16-25.129
							c-0.082-0.494,0.093-0.996,0.463-1.338c0.369-0.34,0.885-0.473,1.371-0.348l42.025,10.551l-14.818-12.725
							c-0.327-0.279-0.516-0.691-0.519-1.119c-0.005-0.428,0.179-0.84,0.5-1.127l16.014-14.188c0.304-0.271,0.707-0.406,1.112-0.371
							c0.408,0.035,0.781,0.234,1.037,0.551l20.43,25.371c1.223-3.881,4.533-10.221,13.359-13.148
							c12.197-4.047,22.525,6.537,25.617,12.299c0.419,0.781,0.735,1.52,0.939,2.186c1.988,6.537,0.838,20.275-10.883,23.959
							c-8.926,2.805-17.438-0.104-21.144-1.738l-4.589,32.918c-0.059,0.428-0.299,0.809-0.659,1.043
							c-0.361,0.234-0.806,0.303-1.22,0.189l-21.256-6.01c-0.783-0.221-1.244-1.029-1.035-1.814l4.747-17.881l-35.958,30.559
							c-0.109,0.117-0.238,0.217-0.387,0.297c-0.725,0.387-1.628,0.115-2.017-0.607
							C340.279,189.671,340.279,189.665,340.277,189.663z M338.148,166.14l4.369,20.074l37.822-32.141
							c0.498-0.424,1.211-0.473,1.76-0.125c0.551,0.35,0.812,1.014,0.645,1.643l-5.591,21.061l18.198,5.143l4.637-33.258
							c0.066-0.49,0.373-0.91,0.816-1.131c0.441-0.219,0.963-0.203,1.393,0.041c0.1,0.057,10.311,5.693,20.711,2.43
							c10.504-3.301,10.217-16,8.924-20.248c-0.146-0.477-0.395-1.045-0.715-1.645c-2.598-4.84-11.756-14.297-22.051-10.883
							c-11.076,3.676-12.023,13.695-12.031,13.795c-0.051,0.607-0.466,1.123-1.047,1.303c-0.584,0.18-1.216-0.014-1.598-0.49
							l-21.396-26.57l-13.564,12.02l18.311,15.727c0.521,0.451,0.67,1.201,0.351,1.814c-0.314,0.615-1.014,0.928-1.685,0.76
							l-45.942-11.537l3.622,21.895l19.494,4.336c0.555,0.125,0.992,0.553,1.123,1.104c0.135,0.553-0.057,1.133-0.492,1.498
							L338.148,166.14z"/>
					</g>
					<g>
						<path fill="#1B75BB" d="M406.273,138.312c-0.227-0.42-0.428-0.869-0.598-1.346c-2.017-5.611,2.714-10.783,2.915-11
							c0.563-0.604,1.503-0.637,2.106-0.076c0.605,0.557,0.637,1.5,0.078,2.104c-0.047,0.053-3.692,4.08-2.296,7.965
							c1.433,3.994,6.083,5.23,6.13,5.242c0.795,0.205,1.277,1.014,1.074,1.811c-0.203,0.795-1.006,1.277-1.803,1.078
							C413.65,144.032,408.645,142.731,406.273,138.312z"/>
					</g>
					<g>
						<path fill="#1B75BB" d="M420.346,134.901c0.75-0.404,1.684-0.123,2.087,0.627c0.401,0.75,0.12,1.684-0.631,2.086
							c-0.747,0.402-1.683,0.121-2.085-0.627C419.314,136.237,419.597,135.3,420.346,134.901z"/>
						<path fill="#1B75BB" d="M419.279,137.222c-0.531-0.99-0.158-2.229,0.83-2.76c0.991-0.529,2.229-0.158,2.761,0.832
							c0.53,0.99,0.156,2.229-0.833,2.76C421.047,138.585,419.811,138.212,419.279,137.222z M421.993,135.763
							c-0.271-0.506-0.905-0.699-1.412-0.424c-0.508,0.271-0.698,0.904-0.427,1.412c0.272,0.508,0.906,0.697,1.414,0.426
							S422.268,136.272,421.993,135.763z"/>
					</g>
				</g>
			</g>
		</g>
		<g opacity="0.2">
			<g>
				<g>
					<circle fill="#1B75BB" cx="554.741" cy="3.565" r="1.824"/>
					<path fill="#1B75BB" d="M553.999,5.859c-1.266-0.408-1.962-1.77-1.554-3.033c0.408-1.268,1.771-1.965,3.037-1.555
						c1.266,0.408,1.962,1.771,1.553,3.035C556.627,5.572,555.265,6.27,553.999,5.859z M555.121,2.389
						c-0.648-0.209-1.348,0.148-1.557,0.797c-0.209,0.646,0.148,1.346,0.797,1.557c0.647,0.209,1.346-0.148,1.556-0.795
						C556.127,3.297,555.77,2.6,555.121,2.389z"/>
				</g>
				<g>
					<g>
						<path fill="#1B75BB" d="M538.141,120.103c-0.154-0.051-0.303-0.121-0.441-0.213l-23.525-15.785
							c-0.545-0.365-0.843-1.004-0.77-1.658l2.447-22.097l-18.148,11.044c-0.615,0.373-1.395,0.334-1.973-0.092l-24.162-18.034
							c-0.476-0.355-0.741-0.926-0.705-1.521c0.037-0.592,0.369-1.129,0.885-1.424l44.521-25.469l-23.084,1.297
							c-0.51,0.029-1.006-0.164-1.361-0.527c-0.356-0.365-0.537-0.865-0.496-1.375l2.024-25.246
							c0.038-0.479,0.271-0.924,0.647-1.227c0.374-0.305,0.857-0.441,1.334-0.381l38.249,4.893
							c-2.14-4.316-4.515-12.441,0.616-22.184c7.087-13.457,24.586-12.896,31.95-10.518c0.999,0.324,1.872,0.693,2.595,1.096
							c7.06,3.947,17.35,16.615,10.368,29.375c-5.317,9.715-14.968,14.215-19.471,15.861l23.09,31.855
							c0.3,0.414,0.405,0.936,0.291,1.432s-0.438,0.92-0.888,1.16l-23.067,12.312c-0.851,0.453-1.906,0.141-2.372-0.699
							l-10.616-19.155l-5.62,55.577c0.002,0.189-0.024,0.381-0.086,0.572c-0.299,0.926-1.295,1.434-2.221,1.135
							C538.148,120.104,538.145,120.103,538.141,120.103z M517.027,101.772l20.197,13.549l5.91-58.458
							c0.078-0.768,0.645-1.395,1.4-1.549c0.756-0.156,1.525,0.199,1.896,0.873l12.506,22.559l19.75-10.539L555.36,36.02
							c-0.343-0.471-0.43-1.082-0.231-1.633c0.198-0.549,0.656-0.963,1.221-1.107c0.133-0.035,13.473-3.6,19.668-14.918
							c6.258-11.434-4.404-22.033-8.996-24.602c-0.512-0.287-1.189-0.566-1.957-0.818c-6.186-1.998-21.76-2.555-27.744,8.807
							c-6.437,12.223,0.973,21.547,1.049,21.641c0.456,0.561,0.525,1.34,0.175,1.971c-0.351,0.633-1.05,0.984-1.765,0.895
							l-40.059-5.125l-1.715,21.385l28.527-1.6c0.816-0.043,1.558,0.477,1.789,1.26c0.232,0.783-0.104,1.625-0.815,2.031
							l-48.671,27.844l21.051,15.712l20.195-12.29c0.574-0.35,1.299-0.342,1.865,0.02s0.879,1.014,0.805,1.682L517.027,101.772z"/>
					</g>
					<g>
						<path fill="#1B75BB" d="M552.336,22.139c-0.537-0.172-1.075-0.389-1.613-0.656c-6.324-3.137-6.53-11.43-6.535-11.781
							c-0.018-0.977,0.76-1.777,1.734-1.793c0.973-0.021,1.773,0.758,1.792,1.73c0.002,0.084,0.196,6.512,4.575,8.682
							c4.498,2.232,9.48-0.527,9.53-0.555c0.847-0.477,1.923-0.182,2.403,0.664c0.48,0.844,0.189,1.916-0.654,2.398
							C563.324,20.969,557.986,23.965,552.336,22.139z"/>
					</g>
					<g>
						<path fill="#1B75BB" d="M561.547,7.684c0.311-0.961,1.339-1.486,2.297-1.176c0.958,0.309,1.484,1.338,1.174,2.297
							c-0.308,0.957-1.338,1.484-2.295,1.174C561.764,9.668,561.238,8.639,561.547,7.684z"/>
						<path fill="#1B75BB" d="M562.541,10.539c-1.266-0.41-1.963-1.771-1.554-3.037s1.771-1.963,3.038-1.553
							c1.266,0.408,1.961,1.771,1.553,3.037C565.17,10.25,563.807,10.947,562.541,10.539z M563.663,7.068
							c-0.649-0.211-1.347,0.146-1.556,0.795s0.146,1.346,0.795,1.557c0.648,0.209,1.348-0.148,1.557-0.797
							C564.669,7.975,564.312,7.277,563.663,7.068z"/>
					</g>
				</g>
			</g>
		</g>
		<g opacity="0.2">
			<g>
				<g>
					<path fill="#1B75BB" d="M487.668,152.106c-0.539-0.414-0.641-1.188-0.227-1.727c0.414-0.537,1.189-0.639,1.729-0.223
						c0.539,0.412,0.641,1.188,0.227,1.727C488.98,152.423,488.206,152.524,487.668,152.106z"/>
					<path fill="#1B75BB" d="M489.709,152.124c-0.548,0.713-1.572,0.846-2.283,0.299c-0.712-0.547-0.846-1.572-0.299-2.283
						c0.549-0.713,1.572-0.846,2.283-0.297C490.123,150.388,490.256,151.413,489.709,152.124z M487.758,150.624
						c-0.281,0.363-0.213,0.889,0.151,1.17c0.364,0.279,0.89,0.213,1.171-0.152s0.211-0.891-0.152-1.172
						C488.562,150.19,488.037,150.259,487.758,150.624z"/>
				</g>
				<g>
					<g>
						<path fill="#1B75BB" d="M558.758,188.161c-0.066,0.088-0.145,0.166-0.235,0.232l-15.382,11.375
							c-0.356,0.266-0.83,0.309-1.229,0.113l-13.498-6.574l2.9,14.049c0.098,0.477-0.104,0.963-0.506,1.232l-16.957,11.271
							c-0.335,0.221-0.758,0.258-1.128,0.102c-0.368-0.158-0.634-0.492-0.704-0.887l-6.084-34.1l-4.42,14.977
							c-0.097,0.33-0.332,0.602-0.645,0.744c-0.312,0.145-0.672,0.146-0.985,0.006l-15.595-7.023
							c-0.298-0.133-0.527-0.383-0.635-0.689c-0.109-0.311-0.086-0.646,0.061-0.936l11.801-23.215
							c-3.23,0.381-8.938,0.045-13.967-5.428c-6.948-7.566-2.617-18.566,0.569-22.711c0.433-0.561,0.866-1.033,1.286-1.4
							c4.113-3.594,14.508-7.26,21.035,0.078c4.971,5.59,5.641,12.75,5.665,15.986l25.503-7.447
							c0.331-0.096,0.688-0.045,0.977,0.141c0.291,0.186,0.486,0.488,0.537,0.828l2.588,17.465c0.096,0.645-0.342,1.246-0.984,1.352
							l-14.592,2.4l34.067,16.197c0.121,0.043,0.235,0.104,0.345,0.184c0.52,0.402,0.617,1.15,0.217,1.672
							C558.762,188.159,558.76,188.159,558.758,188.161z M542.307,197.425l13.203-9.766l-35.834-17.039
							c-0.471-0.223-0.74-0.729-0.666-1.242c0.072-0.516,0.473-0.924,0.986-1.008l17.186-2.828l-2.215-14.955l-25.768,7.523
							c-0.379,0.111-0.787,0.027-1.092-0.225c-0.305-0.25-0.465-0.635-0.428-1.029c0.008-0.09,0.771-9.383-5.02-15.895
							c-5.849-6.576-15.012-2.205-17.688,0.131c-0.299,0.262-0.631,0.629-0.965,1.061c-2.676,3.479-6.568,13.258-0.703,19.645
							c6.311,6.869,13.925,4.275,14.002,4.248c0.459-0.162,0.971-0.027,1.293,0.336c0.321,0.367,0.387,0.891,0.166,1.326
							l-12.357,24.311l13.21,5.949l5.462-18.506c0.158-0.527,0.658-0.881,1.209-0.85c0.551,0.027,1.01,0.434,1.105,0.979
							l6.651,37.277l14.773-9.818l-3.229-15.635c-0.091-0.443,0.078-0.904,0.437-1.18c0.359-0.279,0.844-0.33,1.252-0.133
							L542.307,197.425z"/>
					</g>
					<g>
						<path fill="#1B75BB" d="M499.684,156.88c-0.232,0.301-0.492,0.596-0.784,0.877c-3.431,3.309-8.753,1.557-8.978,1.48
							c-0.623-0.211-0.957-0.887-0.745-1.51c0.208-0.623,0.886-0.957,1.508-0.748c0.054,0.018,4.186,1.354,6.561-0.938
							c2.442-2.354,1.818-6.148,1.812-6.186c-0.111-0.646,0.321-1.264,0.969-1.377c0.646-0.113,1.262,0.312,1.375,0.959
							C501.436,149.626,502.129,153.702,499.684,156.88z"/>
					</g>
					<g>
						<path fill="#1B75BB" d="M492.583,147.739c-0.54-0.416-0.642-1.189-0.226-1.729c0.414-0.539,1.188-0.641,1.727-0.225
							c0.539,0.412,0.641,1.188,0.227,1.727C493.896,148.052,493.121,148.153,492.583,147.739z"/>
						<path fill="#1B75BB" d="M494.625,147.755c-0.547,0.713-1.572,0.846-2.284,0.299c-0.712-0.549-0.847-1.572-0.298-2.285
							c0.547-0.711,1.572-0.844,2.283-0.297C495.039,146.021,495.172,147.042,494.625,147.755z M492.672,146.253
							c-0.281,0.365-0.211,0.889,0.153,1.17s0.89,0.213,1.171-0.152c0.28-0.365,0.211-0.889-0.153-1.17
							C493.478,145.819,492.953,145.888,492.672,146.253z"/>
					</g>
				</g>
			</g>
		</g>
		<g opacity="0.2">
			<g>
				<g>
					<circle fill="#1B75BB" cx="491.123" cy="246.952" r="1.531"/>
					<path fill="#1B75BB" d="M490.912,248.966c-1.11-0.117-1.918-1.115-1.803-2.227c0.116-1.107,1.113-1.916,2.223-1.801
						c1.111,0.115,1.92,1.115,1.803,2.225C493.021,248.272,492.023,249.081,490.912,248.966z M491.232,245.921
						c-0.57-0.062-1.083,0.354-1.142,0.924c-0.059,0.566,0.354,1.08,0.923,1.139c0.57,0.062,1.082-0.355,1.141-0.924
						C492.215,246.491,491.799,245.979,491.232,245.921z"/>
				</g>
				<g>
					<g>
						<path fill="#1B75BB" d="M497.727,345.554c-0.135-0.014-0.27-0.047-0.398-0.1l-22.066-8.879
							c-0.51-0.205-0.865-0.678-0.919-1.229l-1.829-18.574l-12.987,12.225c-0.439,0.412-1.088,0.516-1.636,0.268l-22.979-10.619
							c-0.453-0.207-0.769-0.631-0.844-1.127c-0.072-0.49,0.107-0.99,0.48-1.322l32.145-28.65l-18.734,5.074
							c-0.414,0.113-0.855,0.039-1.21-0.199c-0.356-0.236-0.592-0.617-0.647-1.041l-2.721-21.086
							c-0.053-0.402,0.062-0.809,0.318-1.123c0.256-0.316,0.629-0.512,1.029-0.543l32.268-2.625
							c-2.508-3.174-5.869-9.436-3.347-18.326c3.484-12.287,17.954-14.863,24.416-14.188c0.877,0.092,1.659,0.242,2.321,0.449
							c6.485,2.014,17.137,10.633,13.617,22.324c-2.681,8.904-9.824,14.277-13.237,16.412l24.497,22.154
							c0.317,0.287,0.496,0.697,0.488,1.125c-0.009,0.428-0.2,0.832-0.526,1.107l-16.812,14.117
							c-0.618,0.521-1.541,0.447-2.068-0.162l-12.047-13.889l5.036,46.625c0.035,0.154,0.046,0.316,0.029,0.484
							c-0.086,0.812-0.813,1.402-1.628,1.318C497.733,345.556,497.73,345.554,497.727,345.554z M477.202,334.165l18.941,7.621
							l-5.297-49.043c-0.071-0.645,0.288-1.258,0.88-1.514c0.594-0.26,1.286-0.102,1.709,0.387l14.189,16.359l14.394-12.09
							l-24.749-22.385c-0.367-0.326-0.542-0.814-0.475-1.303c0.066-0.482,0.371-0.906,0.811-1.121
							c0.102-0.051,10.44-5.295,13.563-15.668c3.154-10.479-7.444-17.336-11.661-18.645c-0.471-0.145-1.076-0.26-1.75-0.33
							c-5.428-0.568-18.316,1.678-21.26,12.049c-3.164,11.158,4.542,17.529,4.621,17.594c0.471,0.379,0.663,1.01,0.486,1.588
							c-0.18,0.58-0.691,0.992-1.297,1.039l-33.791,2.75l2.306,17.863l23.153-6.27c0.662-0.178,1.361,0.119,1.688,0.727
							c0.328,0.6,0.196,1.35-0.316,1.809l-35.141,31.32l20.018,9.252l14.454-13.604c0.411-0.385,1.007-0.506,1.534-0.307
							c0.529,0.197,0.899,0.678,0.955,1.24L477.202,334.165z"/>
					</g>
					<g>
						<path fill="#1B75BB" d="M492.373,262.624c-0.471-0.049-0.952-0.135-1.439-0.26c-5.738-1.479-7.35-8.254-7.415-8.539
							c-0.181-0.801,0.317-1.592,1.114-1.775c0.797-0.186,1.589,0.316,1.772,1.109c0.017,0.068,1.292,5.316,5.267,6.338
							c4.082,1.053,7.695-2.08,7.731-2.111c0.612-0.537,1.548-0.484,2.088,0.129c0.542,0.609,0.49,1.541-0.119,2.082
							C501.195,259.755,497.332,263.144,492.373,262.624z"/>
					</g>
					<g>
						<circle fill="#1B75BB" cx="498.951" cy="249.311" r="1.531"/>
						<path fill="#1B75BB" d="M498.741,251.323c-1.11-0.115-1.919-1.115-1.805-2.223c0.118-1.111,1.115-1.92,2.227-1.803
							c1.108,0.115,1.919,1.115,1.802,2.223C500.848,250.632,499.852,251.438,498.741,251.323z M499.059,248.278
							c-0.568-0.061-1.078,0.357-1.139,0.924c-0.06,0.568,0.354,1.08,0.924,1.139c0.568,0.061,1.08-0.354,1.14-0.922
							C500.043,248.849,499.629,248.339,499.059,248.278z"/>
					</g>
				</g>
			</g>
		</g>
		<g opacity="0.2">
			<g>
				<g>
					<g>
						<path fill="#1B75BB" d="M599.717,306.171c-0.109-0.07-0.207-0.158-0.292-0.262l-14.648-17.311
							c-0.339-0.402-0.427-0.959-0.228-1.447l6.732-16.473l-16.393,4.518c-0.555,0.154-1.147-0.047-1.498-0.504l-14.643-19.184
							c-0.289-0.377-0.367-0.877-0.21-1.326c0.159-0.445,0.532-0.787,0.994-0.902l39.861-9.832l-18.055-4.07
							c-0.399-0.088-0.737-0.346-0.931-0.705c-0.195-0.359-0.225-0.785-0.084-1.166l7.101-18.988
							c0.134-0.361,0.413-0.654,0.769-0.803c0.355-0.154,0.756-0.152,1.11,0l28.369,12.16c-0.699-3.795-0.744-10.57,5.342-16.941
							c8.411-8.805,21.757-4.533,26.903-1.086c0.698,0.469,1.291,0.943,1.758,1.414c4.568,4.586,9.709,16.594,1.535,24.887
							c-6.227,6.309-14.642,7.658-18.47,7.938l10.783,29.588c0.14,0.383,0.108,0.809-0.089,1.166
							c-0.199,0.357-0.539,0.611-0.938,0.699l-20.46,4.412c-0.754,0.164-1.499-0.307-1.673-1.059l-3.969-17.072l-16.521,41.547
							c-0.039,0.146-0.104,0.289-0.191,0.424c-0.436,0.645-1.312,0.82-1.958,0.385C599.721,306.177,599.719,306.173,599.717,306.171
							z M587.486,287.429l12.574,14.861l17.379-43.701c0.227-0.576,0.803-0.934,1.416-0.885c0.615,0.045,1.131,0.486,1.27,1.086
							l4.676,20.107l17.518-3.777l-10.895-29.895c-0.161-0.439-0.094-0.928,0.181-1.309c0.272-0.379,0.716-0.598,1.184-0.584
							c0.108,0,11.16,0.186,18.414-7.168c7.324-7.43,1.444-17.93-1.526-20.912c-0.332-0.332-0.792-0.697-1.328-1.059
							c-4.323-2.895-16.189-6.744-23.289,0.689c-7.639,7.996-3.98,16.801-3.941,16.891c0.227,0.529,0.108,1.146-0.299,1.555
							c-0.41,0.41-1.024,0.527-1.555,0.299l-29.711-12.736l-6.014,16.088l22.311,5.029c0.637,0.145,1.095,0.709,1.1,1.361
							c0.009,0.654-0.436,1.227-1.072,1.385l-43.576,10.754l12.756,16.713l18.244-5.029c0.518-0.141,1.074,0.021,1.43,0.426
							c0.358,0.402,0.455,0.973,0.252,1.469L587.486,287.429z"/>
					</g>
				</g>
			</g>
		</g>
		<g opacity="0.2">
			<g>
				<g>
					<g>
						<path fill="#1B75BB" d="M598.46,189.663c-0.065-0.123-0.114-0.252-0.144-0.389l-5.088-23.387
							c-0.117-0.541,0.075-1.104,0.502-1.459l14.426-12.025l-17.516-3.898c-0.594-0.133-1.047-0.613-1.147-1.211l-4.159-25.129
							c-0.082-0.494,0.092-0.996,0.462-1.338c0.369-0.34,0.886-0.473,1.372-0.348l42.025,10.551l-14.818-12.725
							c-0.328-0.279-0.517-0.691-0.52-1.119c-0.004-0.428,0.18-0.84,0.5-1.127l16.014-14.188c0.305-0.271,0.707-0.406,1.113-0.371
							c0.407,0.035,0.781,0.234,1.035,0.551l20.431,25.371c1.224-3.881,4.534-10.221,13.359-13.148
							c12.197-4.047,22.525,6.537,25.617,12.299c0.419,0.781,0.735,1.52,0.94,2.186c1.988,6.537,0.838,20.275-10.883,23.959
							c-8.926,2.805-17.438-0.104-21.145-1.738l-4.588,32.918c-0.059,0.428-0.3,0.809-0.66,1.043
							c-0.361,0.234-0.805,0.303-1.219,0.189l-21.257-6.01c-0.782-0.221-1.243-1.029-1.034-1.814l4.746-17.881l-35.957,30.559
							c-0.109,0.117-0.239,0.217-0.387,0.297c-0.727,0.387-1.629,0.115-2.018-0.607C598.463,189.671,598.462,189.665,598.46,189.663
							z M596.332,166.14l4.369,20.074l37.822-32.141c0.496-0.424,1.211-0.473,1.759-0.125c0.551,0.35,0.812,1.014,0.646,1.643
							l-5.592,21.061l18.199,5.143l4.636-33.258c0.066-0.49,0.373-0.91,0.815-1.131c0.442-0.219,0.965-0.203,1.395,0.041
							c0.099,0.057,10.311,5.693,20.711,2.43c10.502-3.301,10.216-16,8.922-20.248c-0.145-0.477-0.393-1.045-0.713-1.645
							c-2.598-4.84-11.758-14.297-22.052-10.883c-11.076,3.676-12.022,13.695-12.03,13.795c-0.052,0.607-0.467,1.123-1.047,1.303
							c-0.586,0.18-1.217-0.014-1.599-0.49l-21.396-26.57l-13.564,12.02l18.309,15.727c0.521,0.451,0.671,1.201,0.352,1.814
							c-0.314,0.615-1.014,0.928-1.685,0.76l-45.942-11.537l3.622,21.895l19.495,4.336c0.554,0.125,0.99,0.553,1.123,1.104
							c0.135,0.553-0.057,1.133-0.492,1.498L596.332,166.14z"/>
					</g>
				</g>
			</g>
		</g>
	</g>
</g>
</svg>
